<?xml version="1.0" encoding="UTF-8" standalone="no"?>
<!DOCTYPE svg PUBLIC "-//W3C//DTD SVG 1.0//EN"
"http://www.w3.org/Graphics/SVG/1.1/DTD/svg10.dtd">
<svg xmlns="http://www.w3.org/2000/svg" xmlns:xlink="http://www.w3.org/1999/xlink" width=" 1603.00" height="786.00" >

<svg x="0.00" y="0.00" width=" 1603.00" height="786.00" >
<rect x="0" y="0" width="1603.00" height="786.00" 	 style= "fill: #FFFFFF; " /> 
<polygon style= "fill: #5C5F5D; opacity:1.00 " points="1139.71,384.94 1161.68,423.10 1161.83,386.67 " />
<polygon style= "fill: #383A39; opacity:1.00 " points="889.90,257.20 889.72,347.33 883.37,347.30 " />
<polygon style= "fill: #606461; opacity:1.00 " points="721.45,255.57 712.19,347.09 712.25,256.60 " />
<polygon style= "fill: #383A39; opacity:1.00 " points="889.90,257.20 883.37,347.30 883.55,256.12 " />
<polygon style= "fill: #606461; opacity:1.00 " points="721.45,255.57 721.39,347.07 712.19,347.09 " />
<polygon style= "fill: #3E403F; opacity:1.00 " points="883.55,256.12 883.37,347.30 868.54,347.26 " />
<polygon style= "fill: #767B77; opacity:1.00 " points="738.81,254.71 721.39,347.07 721.45,255.57 " />
<polygon style= "fill: #3E403F; opacity:1.00 " points="883.55,256.12 868.54,347.26 868.71,255.15 " />
<polygon style= "fill: #007676; opacity:1.00 " points="438.46,383.46 438.44,385.98 438.44,383.41 " />
<polygon style= "fill: #1C9595; opacity:1.00 " points="1150.41,384.63 1154.12,387.23 1150.40,387.22 " />
<polygon style= "fill: #1C9595; opacity:1.00 " points="1150.41,384.63 1154.13,384.64 1154.12,387.23 " />
<polygon style= "fill: #383A39; opacity:1.00 " points="1162.00,347.66 1161.84,384.12 1148.45,385.78 " />
<polygon style= "fill: #006666; opacity:1.00 " points="1158.34,384.45 1162.22,384.41 1162.17,384.46 " />
<polygon style= "fill: #767B77; opacity:1.00 " points="738.81,254.71 738.73,347.08 721.39,347.07 " />
<polygon style= "fill: #454745; opacity:1.00 " points="868.71,255.15 868.54,347.26 846.55,347.21 " />
<polygon style= "fill: #939794; opacity:1.00 " points="762.71,254.11 738.73,347.08 738.81,254.71 " />
<polygon style= "fill: #454745; opacity:1.00 " points="868.71,255.15 846.55,347.21 846.71,254.39 " />
<polygon style= "fill: #383A39; opacity:1.00 " points="1161.83,386.67 1161.68,423.10 1148.29,426.66 " />
<polygon style= "fill: #515451; opacity:1.00 " points="800.36,385.60 1148.44,388.46 1095.86,390.10 " />
<polygon style= "fill: #383A39; opacity:1.00 " points="1161.83,386.67 1148.29,426.66 1148.44,388.46 " />
<polygon style= "fill: #1C9595; opacity:1.00 " points="1157.86,384.66 1161.59,384.68 1161.58,387.27 " />
<polygon style= "fill: #939794; opacity:1.00 " points="762.71,254.11 762.62,347.10 738.73,347.08 " />
<polygon style= "fill: #606461; opacity:1.00 " points="464.98,388.13 439.09,423.31 439.03,386.30 " />
<polygon style= "fill: #007676; opacity:1.00 " points="439.65,383.84 439.36,386.38 439.36,383.79 " />
<polygon style= "fill: #007676; opacity:1.00 " points="439.65,383.84 439.65,386.44 439.36,386.38 " />
<polygon style= "fill: #6A6D6A; opacity:1.00 " points="846.71,254.39 846.55,347.21 819.61,347.17 " />
<polygon style= "fill: #7B7F7C; opacity:1.00 " points="790.69,253.84 762.62,347.10 762.71,254.11 " />
<polygon style= "fill: #6A6D6A; opacity:1.00 " points="846.71,254.39 819.61,347.17 819.75,253.94 " />
<polygon style= "fill: #004747; opacity:1.00 " points="1160.75,384.84 1160.74,387.44 1160.38,387.50 " />
<polygon style= "fill: #004747; opacity:1.00 " points="1160.75,384.84 1160.38,387.50 1160.39,384.89 " />
<polygon style= "fill: #7B7F7C; opacity:1.00 " points="790.69,253.84 790.58,347.13 762.62,347.10 " />
<polygon style= "fill: #909391; opacity:1.00 " points="819.75,253.94 819.61,347.17 790.58,347.13 " />
<polygon style= "fill: #909391; opacity:1.00 " points="819.75,253.94 790.58,347.13 790.69,253.84 " />
<polygon style= "fill: #007676; opacity:1.00 " points="440.74,384.00 440.34,386.56 440.33,383.95 " />
<polygon style= "fill: #007676; opacity:1.00 " points="440.74,384.00 440.74,386.62 440.34,386.56 " />
<polygon style= "fill: #004848; opacity:1.00 " points="1159.08,387.67 1159.56,385.00 1159.55,387.61 " />
<polygon style= "fill: #007777; opacity:1.00 " points="441.66,384.11 441.18,386.68 441.18,384.06 " />
<polygon style= "fill: #007777; opacity:1.00 " points="441.66,384.11 441.66,386.73 441.18,386.68 " />
<polygon style= "fill: #004848; opacity:1.00 " points="1158.57,385.10 1158.56,387.73 1158.01,387.79 " />
<polygon style= "fill: #007878; opacity:1.00 " points="442.18,386.79 442.18,384.17 442.74,384.22 " />
<polygon style= "fill: #004848; opacity:1.00 " points="1158.57,385.10 1158.01,387.79 1158.02,385.16 " />
<polygon style= "fill: #007878; opacity:1.00 " points="442.18,386.79 442.74,384.22 442.74,386.85 " />
<polygon style= "fill: #004848; opacity:1.00 " points="1157.41,387.84 1157.42,385.21 1158.02,385.16 " />
<polygon style= "fill: #606461; opacity:1.00 " points="447.42,371.68 447.44,384.26 439.03,383.71 " />
<polygon style= "fill: #288A8A; opacity:1.00 " points="447.08,384.27 450.82,384.25 450.83,386.88 " />
<polygon style= "fill: #288A8A; opacity:1.00 " points="443.34,384.28 447.08,384.27 447.09,386.90 " />
<polygon style= "fill: #288A8A; opacity:1.00 " points="443.34,384.28 447.09,386.90 443.34,386.91 " />
<polygon style= "fill: #606461; opacity:1.00 " points="464.93,346.61 439.03,383.71 438.97,346.67 " />
<polygon style= "fill: #383A39; opacity:1.00 " points="1162.00,347.66 1148.45,385.78 1148.61,347.55 " />
<polygon style= "fill: #004949; opacity:1.00 " points="1156.11,387.96 1156.79,385.26 1156.78,387.90 " />
<polygon style= "fill: #007979; opacity:1.00 " points="443.98,386.97 443.98,384.33 444.66,384.39 " />
<polygon style= "fill: #004949; opacity:1.00 " points="1156.11,387.96 1156.12,385.32 1156.79,385.26 " />
<polygon style= "fill: #007979; opacity:1.00 " points="443.98,386.97 444.66,384.39 444.66,387.03 " />
<polygon style= "fill: #004949; opacity:1.00 " points="1155.39,388.01 1155.40,385.37 1156.12,385.32 " />
<polygon style= "fill: #017979; opacity:1.00 " points="445.38,387.09 445.38,384.44 446.14,384.50 " />
<polygon style= "fill: #004A4A; opacity:1.00 " points="1153.84,388.13 1154.65,385.42 1154.64,388.07 " />
<polygon style= "fill: #017A7A; opacity:1.00 " points="446.14,384.50 446.94,387.21 446.14,387.15 " />
<polygon style= "fill: #004A4A; opacity:1.00 " points="1153.84,388.13 1153.85,385.48 1154.65,385.42 " />
<polygon style= "fill: #017A7A; opacity:1.00 " points="446.14,384.50 446.94,384.55 446.94,387.21 " />
<polygon style= "fill: #004A4A; opacity:1.00 " points="1153.85,385.48 1153.84,388.13 1153.01,388.18 " />
<polygon style= "fill: #017A7A; opacity:1.00 " points="446.94,384.55 447.78,387.27 446.94,387.21 " />
<polygon style= "fill: #004A4A; opacity:1.00 " points="1153.85,385.48 1153.01,388.18 1153.02,385.53 " />
<polygon style= "fill: #017A7A; opacity:1.00 " points="446.94,384.55 447.78,384.61 447.78,387.27 " />
<polygon style= "fill: #004A4A; opacity:1.00 " points="1152.13,388.24 1153.02,385.53 1153.01,388.18 " />
<polygon style= "fill: #004A4A; opacity:1.00 " points="1152.13,388.24 1152.15,385.58 1153.02,385.53 " />
<polygon style= "fill: #017B7B; opacity:1.00 " points="447.78,384.61 448.66,384.66 448.66,387.32 " />
<polygon style= "fill: #004A4A; opacity:1.00 " points="1151.23,385.63 1152.13,388.24 1151.22,388.30 " />
<polygon style= "fill: #017B7B; opacity:1.00 " points="448.66,384.66 449.58,384.72 449.58,387.38 " />
<polygon style= "fill: #004B4B; opacity:1.00 " points="1150.27,385.69 1151.22,388.30 1150.26,388.35 " />
<polygon style= "fill: #017B7B; opacity:1.00 " points="449.58,384.72 450.54,384.77 450.55,387.44 " />
<polygon style= "fill: #017C7C; opacity:1.00 " points="450.54,384.77 451.55,387.50 450.55,387.44 " />
<polygon style= "fill: #004B4B; opacity:1.00 " points="1149.28,385.74 1150.26,388.35 1149.27,388.41 " />
<polygon style= "fill: #017C7C; opacity:1.00 " points="450.54,384.77 451.55,384.83 451.55,387.50 " />
<polygon style= "fill: #606461; opacity:1.00 " points="464.98,388.13 465.03,426.92 439.09,423.31 " />
<polygon style= "fill: #017C7C; opacity:1.00 " points="451.55,384.83 452.59,387.56 451.55,387.50 " />
<polygon style= "fill: #606461; opacity:1.00 " points="464.93,346.61 464.98,385.42 447.44,384.26 " />
<polygon style= "fill: #606461; opacity:1.00 " points="447.42,371.68 464.93,346.61 447.44,384.26 " />
<polygon style= "fill: #3E403F; opacity:1.00 " points="1148.44,388.46 1095.71,430.00 1095.86,390.10 " />
<polygon style= "fill: #004B4B; opacity:1.00 " points="1148.24,385.79 1149.27,388.41 1148.23,388.47 " />
<polygon style= "fill: #017C7C; opacity:1.00 " points="451.55,384.83 452.59,384.88 452.59,387.56 " />
<polygon style= "fill: #004B4B; opacity:1.00 " points="1147.16,385.84 1148.24,385.79 1148.23,388.47 " />
<polygon style= "fill: #027D7D; opacity:1.00 " points="452.59,384.88 453.68,387.62 452.59,387.56 " />
<polygon style= "fill: #004B4B; opacity:1.00 " points="1147.16,385.84 1148.23,388.47 1147.15,388.52 " />
<polygon style= "fill: #027D7D; opacity:1.00 " points="452.59,384.88 453.67,384.94 453.68,387.62 " />
<polygon style= "fill: #004C4C; opacity:1.00 " points="1146.04,385.90 1147.16,385.84 1147.15,388.52 " />
<polygon style= "fill: #027D7D; opacity:1.00 " points="453.67,384.94 454.80,387.68 453.68,387.62 " />
<polygon style= "fill: #004C4C; opacity:1.00 " points="1146.04,385.90 1147.15,388.52 1146.03,388.58 " />
<polygon style= "fill: #027D7D; opacity:1.00 " points="453.67,384.94 454.80,384.99 454.80,387.68 " />
<polygon style= "fill: #004C4C; opacity:1.00 " points="1144.88,385.95 1146.04,385.90 1146.03,388.58 " />
<polygon style= "fill: #027E7E; opacity:1.00 " points="454.80,384.99 455.97,387.74 454.80,387.68 " />
<polygon style= "fill: #004C4C; opacity:1.00 " points="1144.88,385.95 1146.03,388.58 1144.87,388.64 " />
<polygon style= "fill: #027E7E; opacity:1.00 " points="454.80,384.99 455.96,385.05 455.97,387.74 " />
<polygon style= "fill: #004C4C; opacity:1.00 " points="1143.68,386.00 1144.88,385.95 1144.87,388.64 " />
<polygon style= "fill: #027E7E; opacity:1.00 " points="455.96,385.05 457.17,387.80 455.97,387.74 " />
<polygon style= "fill: #004C4C; opacity:1.00 " points="1143.68,386.00 1144.87,388.64 1143.67,388.69 " />
<polygon style= "fill: #027E7E; opacity:1.00 " points="455.96,385.05 457.17,385.10 457.17,387.80 " />
<polygon style= "fill: #004C4C; opacity:1.00 " points="1142.44,386.05 1143.68,386.00 1143.67,388.69 " />
<polygon style= "fill: #037F7F; opacity:1.00 " points="457.17,385.10 458.42,387.85 457.17,387.80 " />
<polygon style= "fill: #004C4C; opacity:1.00 " points="1142.44,386.05 1143.67,388.69 1142.43,388.75 " />
<polygon style= "fill: #037F7F; opacity:1.00 " points="457.17,385.10 458.42,385.16 458.42,387.85 " />
<polygon style= "fill: #004C4C; opacity:1.00 " points="1141.16,386.10 1142.44,386.05 1142.43,388.75 " />
<polygon style= "fill: #037F7F; opacity:1.00 " points="458.42,385.16 459.71,387.91 458.42,387.85 " />
<polygon style= "fill: #004C4C; opacity:1.00 " points="1141.16,386.10 1142.43,388.75 1141.15,388.80 " />
<polygon style= "fill: #037F7F; opacity:1.00 " points="458.42,385.16 459.71,385.21 459.71,387.91 " />
<polygon style= "fill: #004D4D; opacity:1.00 " points="1139.84,386.15 1141.16,386.10 1141.15,388.80 " />
<polygon style= "fill: #038080; opacity:1.00 " points="459.71,385.21 461.04,387.97 459.71,387.91 " />
<polygon style= "fill: #004D4D; opacity:1.00 " points="1139.84,386.15 1141.15,388.80 1139.83,388.86 " />
<polygon style= "fill: #038080; opacity:1.00 " points="459.71,385.21 461.04,385.27 461.04,387.97 " />
<polygon style= "fill: #004D4D; opacity:1.00 " points="1138.47,386.20 1139.84,386.15 1139.83,388.86 " />
<polygon style= "fill: #048181; opacity:1.00 " points="461.04,385.27 462.41,388.03 461.04,387.97 " />
<polygon style= "fill: #004D4D; opacity:1.00 " points="1138.47,386.20 1139.83,388.86 1138.46,388.91 " />
<polygon style= "fill: #048181; opacity:1.00 " points="461.04,385.27 462.41,385.32 462.41,388.03 " />
<polygon style= "fill: #004D4D; opacity:1.00 " points="1137.07,386.25 1138.47,386.20 1138.46,388.91 " />
<polygon style= "fill: #048181; opacity:1.00 " points="462.41,385.32 463.82,388.09 462.41,388.03 " />
<polygon style= "fill: #004D4D; opacity:1.00 " points="1137.07,386.25 1138.46,388.91 1137.06,388.97 " />
<polygon style= "fill: #048181; opacity:1.00 " points="462.41,385.32 463.82,385.38 463.82,388.09 " />
<polygon style= "fill: #004D4D; opacity:1.00 " points="1135.62,386.31 1137.07,386.25 1137.06,388.97 " />
<polygon style= "fill: #767B77; opacity:1.00 " points="530.29,389.86 465.03,426.92 464.98,388.13 " />
<polygon style= "fill: #048282; opacity:1.00 " points="463.82,385.38 465.27,388.15 463.82,388.09 " />
<polygon style= "fill: #004D4D; opacity:1.00 " points="1135.62,386.31 1137.06,388.97 1135.61,389.02 " />
<polygon style= "fill: #3E403F; opacity:1.00 " points="1148.44,388.46 1148.29,426.66 1095.71,430.00 " />
<polygon style= "fill: #3E403F; opacity:1.00 " points="1148.61,347.55 1148.45,385.78 1095.87,387.31 " />
<polygon style= "fill: #767B77; opacity:1.00 " points="530.25,346.61 464.98,385.42 464.93,346.61 " />
<polygon style= "fill: #767B77; opacity:1.00 " points="530.25,346.61 530.29,387.03 464.98,385.42 " />
<polygon style= "fill: #048282; opacity:1.00 " points="463.82,385.38 465.27,385.43 465.27,388.15 " />
<polygon style= "fill: #004E4E; opacity:1.00 " points="1134.14,386.36 1135.62,386.31 1135.61,389.02 " />
<polygon style= "fill: #006666; opacity:1.00 " points="468.68,385.40 470.16,385.46 466.76,385.48 " />
<polygon style= "fill: #058383; opacity:1.00 " points="465.27,385.43 466.77,388.20 465.27,388.15 " />
<polygon style= "fill: #004E4E; opacity:1.00 " points="1134.14,386.36 1135.61,389.02 1134.13,389.07 " />
<polygon style= "fill: #058383; opacity:1.00 " points="465.27,385.43 466.76,385.48 466.77,388.20 " />
<polygon style= "fill: #004E4E; opacity:1.00 " points="1132.61,386.41 1134.14,386.36 1134.13,389.07 " />
<polygon style= "fill: #058484; opacity:1.00 " points="466.76,385.48 468.30,388.26 466.77,388.20 " />
<polygon style= "fill: #004E4E; opacity:1.00 " points="1132.61,386.41 1134.13,389.07 1132.60,389.13 " />
<polygon style= "fill: #058484; opacity:1.00 " points="466.76,385.48 468.30,385.54 468.30,388.26 " />
<polygon style= "fill: #004E4E; opacity:1.00 " points="1131.04,386.46 1132.61,386.41 1132.60,389.13 " />
<polygon style= "fill: #068484; opacity:1.00 " points="468.30,385.54 469.88,388.32 468.30,388.26 " />
<polygon style= "fill: #006666; opacity:1.00 " points="1126.02,386.47 1127.61,386.42 1131.04,386.46 " />
<polygon style= "fill: #004E4E; opacity:1.00 " points="1131.04,386.46 1132.60,389.13 1131.03,389.18 " />
<polygon style= "fill: #068484; opacity:1.00 " points="468.30,385.54 469.87,385.59 469.88,388.32 " />
<polygon style= "fill: #006666; opacity:1.00 " points="1122.59,386.44 1127.61,386.42 1126.02,386.47 " />
<polygon style= "fill: #004E4E; opacity:1.00 " points="1129.43,386.51 1131.04,386.46 1131.03,389.18 " />
<polygon style= "fill: #078585; opacity:1.00 " points="469.87,385.59 471.49,388.38 469.88,388.32 " />
<polygon style= "fill: #004E4E; opacity:1.00 " points="1129.43,386.51 1131.03,389.18 1129.42,389.24 " />
<polygon style= "fill: #078585; opacity:1.00 " points="469.87,385.59 471.49,385.65 471.49,388.38 " />
<polygon style= "fill: #004E4E; opacity:1.00 " points="1127.78,386.55 1129.43,386.51 1129.42,389.24 " />
<polygon style= "fill: #078686; opacity:1.00 " points="471.49,385.65 473.15,388.44 471.49,388.38 " />
<polygon style= "fill: #004E4E; opacity:1.00 " points="1127.78,386.55 1129.42,389.24 1127.77,389.29 " />
<polygon style= "fill: #078686; opacity:1.00 " points="471.49,385.65 473.15,385.70 473.15,388.44 " />
<polygon style= "fill: #004F4F; opacity:1.00 " points="1126.09,386.60 1127.78,386.55 1127.77,389.29 " />
<polygon style= "fill: #088787; opacity:1.00 " points="473.15,385.70 474.85,388.49 473.15,388.44 " />
<polygon style= "fill: #004F4F; opacity:1.00 " points="1126.09,386.60 1127.77,389.29 1126.08,389.34 " />
<polygon style= "fill: #088787; opacity:1.00 " points="473.15,385.70 474.84,385.75 474.85,388.49 " />
<polygon style= "fill: #004F4F; opacity:1.00 " points="1124.35,386.65 1126.09,386.60 1126.08,389.34 " />
<polygon style= "fill: #088888; opacity:1.00 " points="474.84,385.75 476.59,388.55 474.85,388.49 " />
<polygon style= "fill: #004F4F; opacity:1.00 " points="1124.35,386.65 1126.08,389.34 1124.34,389.40 " />
<polygon style= "fill: #088888; opacity:1.00 " points="474.84,385.75 476.58,385.81 476.59,388.55 " />
<polygon style= "fill: #004F4F; opacity:1.00 " points="1122.58,386.70 1124.35,386.65 1124.34,389.40 " />
<polygon style= "fill: #098989; opacity:1.00 " points="476.58,385.81 478.37,388.61 476.59,388.55 " />
<polygon style= "fill: #004F4F; opacity:1.00 " points="1122.58,386.70 1124.34,389.40 1122.57,389.45 " />
<polygon style= "fill: #098989; opacity:1.00 " points="476.58,385.81 478.36,385.86 478.37,388.61 " />
<polygon style= "fill: #004F4F; opacity:1.00 " points="1120.77,386.75 1122.58,386.70 1122.57,389.45 " />
<polygon style= "fill: #0A8A8A; opacity:1.00 " points="478.36,385.86 480.19,388.66 478.37,388.61 " />
<polygon style= "fill: #004F4F; opacity:1.00 " points="1120.77,386.75 1122.57,389.45 1120.76,389.50 " />
<polygon style= "fill: #0A8A8A; opacity:1.00 " points="478.36,385.86 480.18,385.91 480.19,388.66 " />
<polygon style= "fill: #004F4F; opacity:1.00 " points="1118.91,386.80 1120.77,386.75 1120.76,389.50 " />
<polygon style= "fill: #0B8B8B; opacity:1.00 " points="480.18,385.91 482.05,388.72 480.19,388.66 " />
<polygon style= "fill: #004F4F; opacity:1.00 " points="1118.91,386.80 1120.76,389.50 1118.90,389.55 " />
<polygon style= "fill: #0B8B8B; opacity:1.00 " points="480.18,385.91 482.04,385.97 482.05,388.72 " />
<polygon style= "fill: #3E403F; opacity:1.00 " points="1148.61,347.55 1095.87,387.31 1096.01,347.39 " />
<polygon style= "fill: #005050; opacity:1.00 " points="1117.02,386.85 1118.91,386.80 1118.90,389.55 " />
<polygon style= "fill: #0C8C8C; opacity:1.00 " points="482.04,385.97 483.95,388.78 482.05,388.72 " />
<polygon style= "fill: #005050; opacity:1.00 " points="1117.02,386.85 1118.90,389.55 1117.01,389.60 " />
<polygon style= "fill: #0C8C8C; opacity:1.00 " points="482.04,385.97 483.94,386.02 483.95,388.78 " />
<polygon style= "fill: #005050; opacity:1.00 " points="1115.08,386.89 1117.02,386.85 1117.01,389.60 " />
<polygon style= "fill: #0C8E8E; opacity:1.00 " points="483.94,386.02 485.89,388.83 483.95,388.78 " />
<polygon style= "fill: #005050; opacity:1.00 " points="1115.08,386.89 1117.01,389.60 1115.07,389.65 " />
<polygon style= "fill: #0C8E8E; opacity:1.00 " points="483.94,386.02 485.89,386.07 485.89,388.83 " />
<polygon style= "fill: #005050; opacity:1.00 " points="1113.11,386.94 1115.08,386.89 1115.07,389.65 " />
<polygon style= "fill: #0D8F8F; opacity:1.00 " points="485.89,386.07 487.87,388.89 485.89,388.83 " />
<polygon style= "fill: #005050; opacity:1.00 " points="1113.11,386.94 1115.07,389.65 1113.10,389.71 " />
<polygon style= "fill: #0D8F8F; opacity:1.00 " points="485.89,386.07 487.87,386.12 487.87,388.89 " />
<polygon style= "fill: #005050; opacity:1.00 " points="1111.09,386.99 1113.11,386.94 1113.10,389.71 " />
<polygon style= "fill: #0E9090; opacity:1.00 " points="487.87,386.12 489.89,388.95 487.87,388.89 " />
<polygon style= "fill: #005050; opacity:1.00 " points="1111.09,386.99 1113.10,389.71 1111.08,389.76 " />
<polygon style= "fill: #0E9090; opacity:1.00 " points="487.87,386.12 489.89,386.18 489.89,388.95 " />
<polygon style= "fill: #005050; opacity:1.00 " points="1109.04,387.03 1111.09,386.99 1111.08,389.76 " />
<polygon style= "fill: #0F9191; opacity:1.00 " points="489.89,388.95 489.89,386.18 491.95,386.23 " />
<polygon style= "fill: #005050; opacity:1.00 " points="1109.04,387.03 1111.08,389.76 1109.03,389.81 " />
<polygon style= "fill: #0F9191; opacity:1.00 " points="489.89,388.95 491.95,386.23 491.95,389.00 " />
<polygon style= "fill: #005151; opacity:1.00 " points="1106.94,387.08 1109.04,387.03 1109.03,389.81 " />
<polygon style= "fill: #109393; opacity:1.00 " points="494.05,386.28 491.95,389.00 491.95,386.23 " />
<polygon style= "fill: #005151; opacity:1.00 " points="1106.94,387.08 1109.03,389.81 1106.93,389.86 " />
<polygon style= "fill: #109393; opacity:1.00 " points="494.05,386.28 494.06,389.06 491.95,389.00 " />
<polygon style= "fill: #005151; opacity:1.00 " points="1104.81,387.13 1106.94,387.08 1106.93,389.86 " />
<polygon style= "fill: #119494; opacity:1.00 " points="494.06,389.06 494.05,386.28 496.20,386.33 " />
<polygon style= "fill: #005151; opacity:1.00 " points="1104.81,387.13 1106.93,389.86 1104.80,389.91 " />
<polygon style= "fill: #119494; opacity:1.00 " points="494.06,389.06 496.20,386.33 496.20,389.11 " />
<polygon style= "fill: #21A8A8; opacity:1.00 " points="1079.52,387.07 1082.77,387.12 1082.76,389.90 " />
<polygon style= "fill: #005151; opacity:1.00 " points="1102.62,389.96 1104.81,387.13 1104.80,389.91 " />
<polygon style= "fill: #129696; opacity:1.00 " points="498.38,386.38 496.20,389.11 496.20,386.33 " />
<polygon style= "fill: #005151; opacity:1.00 " points="1102.62,389.96 1102.63,387.17 1104.81,387.13 " />
<polygon style= "fill: #129696; opacity:1.00 " points="498.38,386.38 498.38,389.17 496.20,389.11 " />
<polygon style= "fill: #21A8A8; opacity:1.00 " points="1082.77,387.12 1086.03,387.17 1086.02,389.95 " />
<polygon style= "fill: #005151; opacity:1.00 " points="1102.63,387.17 1102.62,389.96 1100.40,390.00 " />
<polygon style= "fill: #139797; opacity:1.00 " points="498.38,389.17 498.38,386.38 500.60,386.44 " />
<polygon style= "fill: #005151; opacity:1.00 " points="1102.63,387.17 1100.40,390.00 1100.41,387.22 " />
<polygon style= "fill: #139797; opacity:1.00 " points="498.38,389.17 500.60,386.44 500.60,389.22 " />
<polygon style= "fill: #21A8A8; opacity:1.00 " points="1086.03,387.17 1089.30,387.21 1089.29,390.00 " />
<polygon style= "fill: #006666; opacity:1.00 " points="506.33,386.45 509.71,386.41 511.97,386.46 " />
<polygon style= "fill: #005252; opacity:1.00 " points="563.30,386.55 566.26,386.50 566.26,389.29 " />
<polygon style= "fill: #005151; opacity:1.00 " points="1098.15,390.05 1100.41,387.22 1100.40,390.00 " />
<polygon style= "fill: #005252; opacity:1.00 " points="563.30,386.55 566.26,389.29 563.30,389.34 " />
<polygon style= "fill: #006666; opacity:1.00 " points="500.60,386.44 506.33,386.45 502.86,386.49 " />
<polygon style= "fill: #149898; opacity:1.00 " points="500.60,389.22 500.60,386.44 502.86,386.49 " />
<polygon style= "fill: #005151; opacity:1.00 " points="1098.15,390.05 1098.16,387.26 1100.41,387.22 " />
<polygon style= "fill: #149898; opacity:1.00 " points="500.60,389.22 502.86,386.49 502.86,389.28 " />
<polygon style= "fill: #767B77; opacity:1.00 " points="530.29,389.86 530.32,430.25 465.03,426.92 " />
<polygon style= "fill: #005252; opacity:1.00 " points="560.34,386.59 563.30,386.55 563.30,389.34 " />
<polygon style= "fill: #005252; opacity:1.00 " points="1098.16,387.26 1098.15,390.05 1095.86,390.10 " />
<polygon style= "fill: #005252; opacity:1.00 " points="560.34,386.59 563.30,389.34 560.34,389.38 " />
<polygon style= "fill: #169A9A; opacity:1.00 " points="502.86,389.28 502.86,386.49 505.16,386.54 " />
<polygon style= "fill: #005252; opacity:1.00 " points="1098.16,387.26 1095.86,390.10 1095.87,387.31 " />
<polygon style= "fill: #169A9A; opacity:1.00 " points="502.86,389.28 505.16,386.54 505.16,389.33 " />
<polygon style= "fill: #005252; opacity:1.00 " points="557.36,386.63 560.34,386.59 560.34,389.38 " />
<polygon style= "fill: #454745; opacity:1.00 " points="1095.86,390.10 1095.71,430.00 1005.65,432.63 " />
<polygon style= "fill: #454745; opacity:1.00 " points="1096.01,347.39 1095.87,387.31 1005.78,388.48 " />
<polygon style= "fill: #454745; opacity:1.00 " points="1095.86,390.10 1005.65,432.63 1005.77,391.37 " />
<polygon style= "fill: #005252; opacity:1.00 " points="1093.52,390.15 1095.87,387.31 1095.86,390.10 " />
<polygon style= "fill: #005252; opacity:1.00 " points="557.36,386.63 560.34,389.38 557.37,389.43 " />
<polygon style= "fill: #179B9B; opacity:1.00 " points="505.16,389.33 505.16,386.54 507.50,386.59 " />
<polygon style= "fill: #005252; opacity:1.00 " points="1093.52,390.15 1093.53,387.35 1095.87,387.31 " />
<polygon style= "fill: #179B9B; opacity:1.00 " points="505.16,389.33 507.50,386.59 507.50,389.39 " />
<polygon style= "fill: #005252; opacity:1.00 " points="554.39,386.68 557.36,386.63 557.37,389.43 " />
<polygon style= "fill: #005252; opacity:1.00 " points="1091.15,390.20 1093.53,387.35 1093.52,390.15 " />
<polygon style= "fill: #189D9D; opacity:1.00 " points="509.88,386.64 507.50,389.39 507.50,386.59 " />
<polygon style= "fill: #005252; opacity:1.00 " points="1091.15,390.20 1091.16,387.40 1093.53,387.35 " />
<polygon style= "fill: #189D9D; opacity:1.00 " points="509.88,386.64 509.88,389.44 507.50,389.39 " />
<polygon style= "fill: #005252; opacity:1.00 " points="1088.74,390.24 1091.16,387.40 1091.15,390.20 " />
<polygon style= "fill: #199E9E; opacity:1.00 " points="509.88,389.44 509.88,386.64 512.30,386.69 " />
<polygon style= "fill: #005252; opacity:1.00 " points="1088.74,390.24 1088.75,387.44 1091.16,387.40 " />
<polygon style= "fill: #199E9E; opacity:1.00 " points="509.88,389.44 512.30,386.69 512.30,389.49 " />
<polygon style= "fill: #005252; opacity:1.00 " points="1088.75,387.44 1088.74,390.24 1086.29,390.29 " />
<polygon style= "fill: #1A9F9F; opacity:1.00 " points="512.30,389.49 512.30,386.69 514.75,386.74 " />
<polygon style= "fill: #005252; opacity:1.00 " points="1088.75,387.44 1086.29,390.29 1086.30,387.48 " />
<polygon style= "fill: #1A9F9F; opacity:1.00 " points="512.30,389.49 514.75,386.74 514.75,389.55 " />
<polygon style= "fill: #005353; opacity:1.00 " points="1086.30,387.48 1086.29,390.29 1083.80,390.34 " />
<polygon style= "fill: #1BA1A1; opacity:1.00 " points="517.25,386.79 514.75,389.55 514.75,386.74 " />
<polygon style= "fill: #005353; opacity:1.00 " points="1086.30,387.48 1083.80,390.34 1083.81,387.53 " />
<polygon style= "fill: #1BA1A1; opacity:1.00 " points="517.25,386.79 517.25,389.60 514.75,389.55 " />
<polygon style= "fill: #015353; opacity:1.00 " points="1083.81,387.53 1083.80,390.34 1081.28,390.38 " />
<polygon style= "fill: #1CA2A2; opacity:1.00 " points="519.78,386.83 517.25,389.60 517.25,386.79 " />
<polygon style= "fill: #015353; opacity:1.00 " points="1083.81,387.53 1081.28,390.38 1081.28,387.57 " />
<polygon style= "fill: #1CA2A2; opacity:1.00 " points="519.78,386.83 519.78,389.65 517.25,389.60 " />
<polygon style= "fill: #015353; opacity:1.00 " points="1078.71,390.43 1081.28,387.57 1081.28,390.38 " />
<polygon style= "fill: #1DA4A4; opacity:1.00 " points="522.35,386.88 519.78,389.65 519.78,386.83 " />
<polygon style= "fill: #015353; opacity:1.00 " points="1078.71,390.43 1078.72,387.61 1081.28,387.57 " />
<polygon style= "fill: #1DA4A4; opacity:1.00 " points="522.35,386.88 522.35,389.70 519.78,389.65 " />
<polygon style= "fill: #015454; opacity:1.00 " points="1076.11,390.47 1078.72,387.61 1078.71,390.43 " />
<polygon style= "fill: #1EA5A5; opacity:1.00 " points="522.35,389.70 522.35,386.88 524.96,386.93 " />
<polygon style= "fill: #015454; opacity:1.00 " points="1076.11,390.47 1076.12,387.65 1078.72,387.61 " />
<polygon style= "fill: #1EA5A5; opacity:1.00 " points="522.35,389.70 524.96,386.93 524.96,389.75 " />
<polygon style= "fill: #015454; opacity:1.00 " points="1076.12,387.65 1076.11,390.47 1073.47,390.52 " />
<polygon style= "fill: #20A6A6; opacity:1.00 " points="524.96,389.75 524.96,386.93 527.60,386.98 " />
<polygon style= "fill: #015454; opacity:1.00 " points="1076.12,387.65 1073.47,390.52 1073.48,387.69 " />
<polygon style= "fill: #20A6A6; opacity:1.00 " points="524.96,389.75 527.60,386.98 527.61,389.81 " />
<polygon style= "fill: #015454; opacity:1.00 " points="1070.79,390.56 1073.48,387.69 1073.47,390.52 " />
<polygon style= "fill: #21A8A8; opacity:1.00 " points="527.61,389.81 527.60,386.98 530.29,387.03 " />
<polygon style= "fill: #015454; opacity:1.00 " points="1070.79,390.56 1070.80,387.73 1073.48,387.69 " />
<polygon style= "fill: #21A8A8; opacity:1.00 " points="527.61,389.81 530.29,387.03 530.29,389.86 " />
<polygon style= "fill: #015454; opacity:1.00 " points="1068.08,390.60 1070.80,387.73 1070.79,390.56 " />
<polygon style= "fill: #939794; opacity:1.00 " points="631.03,346.68 631.03,388.31 530.29,387.03 " />
<polygon style= "fill: #22A9A9; opacity:1.00 " points="533.01,387.07 530.29,389.86 530.29,387.03 " />
<polygon style= "fill: #015454; opacity:1.00 " points="1068.08,390.60 1068.09,387.77 1070.80,387.73 " />
<polygon style= "fill: #939794; opacity:1.00 " points="631.03,391.22 530.32,430.25 530.29,389.86 " />
<polygon style= "fill: #22A9A9; opacity:1.00 " points="533.01,387.07 533.01,389.91 530.29,389.86 " />
<polygon style= "fill: #015555; opacity:1.00 " points="1065.33,390.65 1068.09,387.77 1068.08,390.60 " />
<polygon style= "fill: #22AAAA; opacity:1.00 " points="533.01,389.91 533.01,387.07 535.76,387.12 " />
<polygon style= "fill: #015555; opacity:1.00 " points="1065.33,390.65 1065.34,387.81 1068.09,387.77 " />
<polygon style= "fill: #22AAAA; opacity:1.00 " points="533.01,389.91 535.76,387.12 535.77,389.96 " />
<polygon style= "fill: #025555; opacity:1.00 " points="1062.54,390.69 1065.34,387.81 1065.33,390.65 " />
<polygon style= "fill: #23ABAB; opacity:1.00 " points="538.56,387.17 535.77,389.96 535.76,387.12 " />
<polygon style= "fill: #025555; opacity:1.00 " points="1062.54,390.69 1062.55,387.85 1065.34,387.81 " />
<polygon style= "fill: #23ABAB; opacity:1.00 " points="538.56,387.17 538.56,390.01 535.77,389.96 " />
<polygon style= "fill: #025656; opacity:1.00 " points="1062.55,387.85 1062.54,390.69 1059.71,390.73 " />
<polygon style= "fill: #24ACAC; opacity:1.00 " points="538.56,390.01 538.56,387.17 541.39,387.21 " />
<polygon style= "fill: #025656; opacity:1.00 " points="1062.55,387.85 1059.71,390.73 1059.72,387.89 " />
<polygon style= "fill: #24ACAC; opacity:1.00 " points="538.56,390.01 541.39,387.21 541.39,390.06 " />
<polygon style= "fill: #025656; opacity:1.00 " points="1056.85,390.77 1059.72,387.89 1059.71,390.73 " />
<polygon style= "fill: #25ADAD; opacity:1.00 " points="541.39,387.21 544.26,390.11 541.39,390.06 " />
<polygon style= "fill: #025656; opacity:1.00 " points="1056.85,390.77 1056.86,387.93 1059.72,387.89 " />
<polygon style= "fill: #25ADAD; opacity:1.00 " points="541.39,387.21 544.25,387.26 544.26,390.11 " />
<polygon style= "fill: #025656; opacity:1.00 " points="1056.86,387.93 1056.85,390.77 1053.96,390.81 " />
<polygon style= "fill: #26AEAE; opacity:1.00 " points="544.25,387.26 547.16,390.15 544.26,390.11 " />
<polygon style= "fill: #025656; opacity:1.00 " points="1056.86,387.93 1053.96,390.81 1053.97,387.97 " />
<polygon style= "fill: #26AEAE; opacity:1.00 " points="544.25,387.26 547.16,387.31 547.16,390.15 " />
<polygon style= "fill: #035757; opacity:1.00 " points="1051.03,390.85 1053.97,387.97 1053.96,390.81 " />
<polygon style= "fill: #26AEAE; opacity:1.00 " points="547.16,387.31 550.09,390.20 547.16,390.15 " />
<polygon style= "fill: #035757; opacity:1.00 " points="1051.03,390.85 1051.04,388.00 1053.97,387.97 " />
<polygon style= "fill: #26AEAE; opacity:1.00 " points="547.16,387.31 550.09,387.35 550.09,390.20 " />
<polygon style= "fill: #035858; opacity:1.00 " points="1048.07,388.04 1051.04,388.00 1051.03,390.85 " />
<polygon style= "fill: #27AFAF; opacity:1.00 " points="550.09,387.35 553.07,390.25 550.09,390.20 " />
<polygon style= "fill: #035858; opacity:1.00 " points="1048.07,388.04 1051.03,390.85 1048.06,390.89 " />
<polygon style= "fill: #27AFAF; opacity:1.00 " points="550.09,387.35 553.06,387.40 553.07,390.25 " />
<polygon style= "fill: #035858; opacity:1.00 " points="1045.07,388.08 1048.07,388.04 1048.06,390.89 " />
<polygon style= "fill: #28B0B0; opacity:1.00 " points="553.06,387.40 556.07,390.30 553.07,390.25 " />
<polygon style= "fill: #035858; opacity:1.00 " points="1045.07,388.08 1048.06,390.89 1045.06,390.93 " />
<polygon style= "fill: #28B0B0; opacity:1.00 " points="553.06,387.40 556.07,387.44 556.07,390.30 " />
<polygon style= "fill: #045959; opacity:1.00 " points="1042.03,388.11 1045.07,388.08 1045.06,390.93 " />
<polygon style= "fill: #939794; opacity:1.00 " points="631.03,346.68 530.29,387.03 530.25,346.61 " />
<polygon style= "fill: #28B0B0; opacity:1.00 " points="556.07,387.44 559.11,390.34 556.07,390.30 " />
<polygon style= "fill: #045959; opacity:1.00 " points="1042.03,388.11 1045.06,390.93 1042.02,390.97 " />
<polygon style= "fill: #454745; opacity:1.00 " points="1096.01,347.39 1005.78,388.48 1005.90,347.19 " />
<polygon style= "fill: #28B0B0; opacity:1.00 " points="556.07,387.44 559.11,387.48 559.11,390.34 " />
<polygon style= "fill: #045959; opacity:1.00 " points="1038.96,388.15 1042.03,388.11 1042.02,390.97 " />
<polygon style= "fill: #29B1B1; opacity:1.00 " points="559.11,387.48 562.19,390.39 559.11,390.34 " />
<polygon style= "fill: #045959; opacity:1.00 " points="1038.96,388.15 1042.02,390.97 1038.95,391.01 " />
<polygon style= "fill: #29B1B1; opacity:1.00 " points="559.11,387.48 562.19,387.53 562.19,390.39 " />
<polygon style= "fill: #045A5A; opacity:1.00 " points="1035.86,388.18 1038.96,388.15 1038.95,391.01 " />
<polygon style= "fill: #29B1B1; opacity:1.00 " points="562.19,387.53 565.30,390.44 562.19,390.39 " />
<polygon style= "fill: #045A5A; opacity:1.00 " points="1035.86,388.18 1038.95,391.01 1035.85,391.05 " />
<polygon style= "fill: #29B1B1; opacity:1.00 " points="562.19,387.53 565.30,387.57 565.30,390.44 " />
<polygon style= "fill: #055B5B; opacity:1.00 " points="1032.72,388.22 1035.86,388.18 1035.85,391.05 " />
<polygon style= "fill: #29B1B1; opacity:1.00 " points="565.30,387.57 568.44,390.48 565.30,390.44 " />
<polygon style= "fill: #055B5B; opacity:1.00 " points="1032.72,388.22 1035.85,391.05 1032.71,391.09 " />
<polygon style= "fill: #29B1B1; opacity:1.00 " points="565.30,387.57 568.44,387.61 568.44,390.48 " />
<polygon style= "fill: #065C5C; opacity:1.00 " points="1029.55,388.25 1032.72,388.22 1032.71,391.09 " />
<polygon style= "fill: #29B1B1; opacity:1.00 " points="568.44,387.61 571.62,390.53 568.44,390.48 " />
<polygon style= "fill: #065C5C; opacity:1.00 " points="1029.55,388.25 1032.71,391.09 1029.54,391.12 " />
<polygon style= "fill: #29B1B1; opacity:1.00 " points="568.44,387.61 571.62,387.66 571.62,390.53 " />
<polygon style= "fill: #065C5C; opacity:1.00 " points="1026.35,388.29 1029.55,388.25 1029.54,391.12 " />
<polygon style= "fill: #29B1B1; opacity:1.00 " points="571.62,387.66 574.83,390.57 571.62,390.53 " />
<polygon style= "fill: #065C5C; opacity:1.00 " points="1026.35,388.29 1029.54,391.12 1026.34,391.16 " />
<polygon style= "fill: #29B1B1; opacity:1.00 " points="571.62,387.66 574.82,387.70 574.83,390.57 " />
<polygon style= "fill: #075D5D; opacity:1.00 " points="1023.11,388.32 1026.35,388.29 1026.34,391.16 " />
<polygon style= "fill: #29B1B1; opacity:1.00 " points="574.82,387.70 578.07,390.62 574.83,390.57 " />
<polygon style= "fill: #075D5D; opacity:1.00 " points="1023.11,388.32 1026.34,391.16 1023.10,391.20 " />
<polygon style= "fill: #29B1B1; opacity:1.00 " points="574.82,387.70 578.07,387.74 578.07,390.62 " />
<polygon style= "fill: #075E5E; opacity:1.00 " points="1019.85,388.35 1023.11,388.32 1023.10,391.20 " />
<polygon style= "fill: #29B1B1; opacity:1.00 " points="578.07,387.74 581.34,390.66 578.07,390.62 " />
<polygon style= "fill: #075E5E; opacity:1.00 " points="1019.85,388.35 1023.10,391.20 1019.84,391.23 " />
<polygon style= "fill: #29B1B1; opacity:1.00 " points="578.07,387.74 581.34,387.78 581.34,390.66 " />
<polygon style= "fill: #085F5F; opacity:1.00 " points="1016.55,388.38 1019.85,388.35 1019.84,391.23 " />
<polygon style= "fill: #29B0B0; opacity:1.00 " points="581.34,387.78 584.64,390.70 581.34,390.66 " />
<polygon style= "fill: #085F5F; opacity:1.00 " points="1016.55,388.38 1019.84,391.23 1016.54,391.26 " />
<polygon style= "fill: #29B0B0; opacity:1.00 " points="581.34,387.78 584.64,387.82 584.64,390.70 " />
<polygon style= "fill: #096161; opacity:1.00 " points="1013.21,388.41 1016.55,388.38 1016.54,391.26 " />
<polygon style= "fill: #29B0B0; opacity:1.00 " points="584.64,387.82 587.98,390.74 584.64,390.70 " />
<polygon style= "fill: #096161; opacity:1.00 " points="1013.21,388.41 1016.54,391.26 1013.21,391.30 " />
<polygon style= "fill: #29B0B0; opacity:1.00 " points="584.64,387.82 587.98,387.86 587.98,390.74 " />
<polygon style= "fill: #939794; opacity:1.00 " points="631.03,391.22 631.03,432.82 530.32,430.25 " />
<polygon style= "fill: #0A6262; opacity:1.00 " points="1009.85,388.45 1013.21,388.41 1013.21,391.30 " />
<polygon style= "fill: #29AFAF; opacity:1.00 " points="587.98,387.86 591.35,390.79 587.98,390.74 " />
<polygon style= "fill: #006666; opacity:1.00 " points="1004.04,388.42 1009.85,388.45 1006.46,388.48 " />
<polygon style= "fill: #0A6262; opacity:1.00 " points="1009.85,388.45 1013.21,391.30 1009.84,391.33 " />
<polygon style= "fill: #29AFAF; opacity:1.00 " points="587.98,387.86 591.35,387.90 591.35,390.79 " />
<polygon style= "fill: #006666; opacity:1.00 " points="1000.65,388.45 1004.04,388.42 1006.46,388.48 " />
<polygon style= "fill: #0B6363; opacity:1.00 " points="1006.46,388.48 1009.85,388.45 1009.84,391.33 " />
<polygon style= "fill: #28AFAF; opacity:1.00 " points="591.35,387.90 594.74,390.83 591.35,390.79 " />
<polygon style= "fill: #0B6363; opacity:1.00 " points="1006.46,388.48 1009.84,391.33 1006.45,391.36 " />
<polygon style= "fill: #28AFAF; opacity:1.00 " points="591.35,387.90 594.74,387.94 594.74,390.83 " />
<polygon style= "fill: #6A6D6A; opacity:1.00 " points="1005.90,347.19 1005.78,388.48 887.15,389.10 " />
<polygon style= "fill: #0C6464; opacity:1.00 " points="1003.04,388.50 1006.46,388.48 1006.45,391.36 " />
<polygon style= "fill: #28AEAE; opacity:1.00 " points="594.74,387.94 598.17,390.87 594.74,390.83 " />
<polygon style= "fill: #6A6D6A; opacity:1.00 " points="1005.77,391.37 887.06,434.13 887.14,392.05 " />
<polygon style= "fill: #0C6464; opacity:1.00 " points="1003.04,388.50 1006.45,391.36 1003.03,391.40 " />
<polygon style= "fill: #28AEAE; opacity:1.00 " points="594.74,387.94 598.17,387.98 598.17,390.87 " />
<polygon style= "fill: #0D6666; opacity:1.00 " points="999.59,388.53 1003.04,388.50 1003.03,391.40 " />
<polygon style= "fill: #28ADAD; opacity:1.00 " points="598.17,387.98 601.63,390.91 598.17,390.87 " />
<polygon style= "fill: #0D6666; opacity:1.00 " points="999.59,388.53 1003.03,391.40 999.58,391.43 " />
<polygon style= "fill: #28ADAD; opacity:1.00 " points="598.17,387.98 601.63,388.01 601.63,390.91 " />
<polygon style= "fill: #0E6767; opacity:1.00 " points="996.11,388.56 999.59,388.53 999.58,391.43 " />
<polygon style= "fill: #27ACAC; opacity:1.00 " points="601.63,388.01 605.11,390.95 601.63,390.91 " />
<polygon style= "fill: #0E6767; opacity:1.00 " points="996.11,388.56 999.58,391.43 996.10,391.46 " />
<polygon style= "fill: #27ACAC; opacity:1.00 " points="601.63,388.01 605.11,388.05 605.11,390.95 " />
<polygon style= "fill: #0F6868; opacity:1.00 " points="992.60,388.59 996.11,388.56 996.10,391.46 " />
<polygon style= "fill: #27ACAC; opacity:1.00 " points="605.11,388.05 608.63,390.99 605.11,390.95 " />
<polygon style= "fill: #0F6868; opacity:1.00 " points="992.60,388.59 996.10,391.46 992.59,391.49 " />
<polygon style= "fill: #27ACAC; opacity:1.00 " points="605.11,388.05 608.63,388.09 608.63,390.99 " />
<polygon style= "fill: #106A6A; opacity:1.00 " points="989.06,388.62 992.60,388.59 992.59,391.49 " />
<polygon style= "fill: #26ABAB; opacity:1.00 " points="608.63,388.09 612.17,391.03 608.63,390.99 " />
<polygon style= "fill: #106A6A; opacity:1.00 " points="989.06,388.62 992.59,391.49 989.05,391.52 " />
<polygon style= "fill: #26ABAB; opacity:1.00 " points="608.63,388.09 612.17,388.13 612.17,391.03 " />
<polygon style= "fill: #116C6C; opacity:1.00 " points="985.49,388.64 989.06,388.62 989.05,391.52 " />
<polygon style= "fill: #25A9A9; opacity:1.00 " points="612.17,388.13 615.74,391.07 612.17,391.03 " />
<polygon style= "fill: #116C6C; opacity:1.00 " points="985.49,388.64 989.05,391.52 985.49,391.55 " />
<polygon style= "fill: #25A9A9; opacity:1.00 " points="612.17,388.13 615.74,388.16 615.74,391.07 " />
<polygon style= "fill: #126D6D; opacity:1.00 " points="981.90,388.67 985.49,388.64 985.49,391.55 " />
<polygon style= "fill: #25A8A8; opacity:1.00 " points="615.74,388.16 619.34,391.10 615.74,391.07 " />
<polygon style= "fill: #126D6D; opacity:1.00 " points="981.90,388.67 985.49,391.55 981.89,391.58 " />
<polygon style= "fill: #25A8A8; opacity:1.00 " points="615.74,388.16 619.34,388.20 619.34,391.10 " />
<polygon style= "fill: #146F6F; opacity:1.00 " points="978.28,388.69 981.90,388.67 981.89,391.58 " />
<polygon style= "fill: #24A7A7; opacity:1.00 " points="619.34,388.20 622.96,391.14 619.34,391.10 " />
<polygon style= "fill: #146F6F; opacity:1.00 " points="978.28,388.69 981.89,391.58 978.27,391.60 " />
<polygon style= "fill: #24A7A7; opacity:1.00 " points="619.34,388.20 622.96,388.23 622.96,391.14 " />
<polygon style= "fill: #6A6D6A; opacity:1.00 " points="1005.77,391.37 1005.65,432.63 887.06,434.13 " />
<polygon style= "fill: #157171; opacity:1.00 " points="974.63,388.72 978.28,388.69 978.27,391.60 " />
<polygon style= "fill: #23A6A6; opacity:1.00 " points="622.96,388.23 626.61,391.18 622.96,391.14 " />
<polygon style= "fill: #157171; opacity:1.00 " points="974.63,388.72 978.27,391.60 974.63,391.63 " />
<polygon style= "fill: #23A6A6; opacity:1.00 " points="622.96,388.23 626.61,388.27 626.61,391.18 " />
<polygon style= "fill: #177373; opacity:1.00 " points="970.96,388.74 974.63,388.72 974.63,391.63 " />
<polygon style= "fill: #23A5A5; opacity:1.00 " points="626.61,388.27 630.29,391.21 626.61,391.18 " />
<polygon style= "fill: #177373; opacity:1.00 " points="970.96,388.74 974.63,391.63 970.95,391.66 " />
<polygon style= "fill: #23A5A5; opacity:1.00 " points="626.61,388.27 630.29,388.30 630.29,391.21 " />
<polygon style= "fill: #187575; opacity:1.00 " points="967.26,388.77 970.96,388.74 970.95,391.66 " />
<polygon style= "fill: #7B7F7C; opacity:1.00 " points="755.80,392.00 631.03,432.82 631.03,391.22 " />
<polygon style= "fill: #22A4A4; opacity:1.00 " points="630.29,388.30 633.99,391.25 630.29,391.21 " />
<polygon style= "fill: #187575; opacity:1.00 " points="967.26,388.77 970.95,391.66 967.26,391.68 " />
<polygon style= "fill: #7B7F7C; opacity:1.00 " points="755.85,346.81 631.03,388.31 631.03,346.68 " />
<polygon style= "fill: #7B7F7C; opacity:1.00 " points="755.85,346.81 755.81,389.04 631.03,388.31 " />
<polygon style= "fill: #22A4A4; opacity:1.00 " points="630.29,388.30 633.99,388.33 633.99,391.25 " />
<polygon style= "fill: #197676; opacity:1.00 " points="963.54,388.79 967.26,388.77 967.26,391.68 " />
<polygon style= "fill: #21A2A2; opacity:1.00 " points="633.99,388.33 637.72,391.28 633.99,391.25 " />
<polygon style= "fill: #197676; opacity:1.00 " points="963.54,388.79 967.26,391.68 963.53,391.71 " />
<polygon style= "fill: #21A2A2; opacity:1.00 " points="633.99,388.33 637.72,388.36 637.72,391.28 " />
<polygon style= "fill: #1B7878; opacity:1.00 " points="959.79,388.81 963.54,388.79 963.53,391.71 " />
<polygon style= "fill: #20A1A1; opacity:1.00 " points="637.72,388.36 641.47,391.32 637.72,391.28 " />
<polygon style= "fill: #1B7878; opacity:1.00 " points="959.79,388.81 963.53,391.71 959.79,391.73 " />
<polygon style= "fill: #20A1A1; opacity:1.00 " points="637.72,388.36 641.47,388.40 641.47,391.32 " />
<polygon style= "fill: #1C7A7A; opacity:1.00 " points="956.02,388.83 959.79,388.81 959.79,391.73 " />
<polygon style= "fill: #20A0A0; opacity:1.00 " points="641.47,388.40 645.24,391.35 641.47,391.32 " />
<polygon style= "fill: #1C7A7A; opacity:1.00 " points="956.02,388.83 959.79,391.73 956.02,391.75 " />
<polygon style= "fill: #20A0A0; opacity:1.00 " points="641.47,388.40 645.24,388.43 645.24,391.35 " />
<polygon style= "fill: #006666; opacity:1.00 " points="663.04,388.40 662.05,388.48 658.26,388.46 " />
<polygon style= "fill: #1E7C7C; opacity:1.00 " points="952.23,388.85 956.02,388.83 956.02,391.75 " />
<polygon style= "fill: #1F9F9F; opacity:1.00 " points="645.24,391.35 645.24,388.43 649.04,388.46 " />
<polygon style= "fill: #1E7C7C; opacity:1.00 " points="952.23,388.85 956.02,391.75 952.22,391.78 " />
<polygon style= "fill: #1F9F9F; opacity:1.00 " points="645.24,391.35 649.04,388.46 649.04,391.38 " />
<polygon style= "fill: #006666; opacity:1.00 " points="652.86,388.49 654.64,388.43 658.26,388.46 " />
<polygon style= "fill: #006666; opacity:1.00 " points="654.64,388.43 652.86,388.49 649.04,388.46 " />
<polygon style= "fill: #207E7E; opacity:1.00 " points="948.41,388.87 952.23,388.85 952.22,391.78 " />
<polygon style= "fill: #1E9E9E; opacity:1.00 " points="652.86,388.49 649.04,391.38 649.04,388.46 " />
<polygon style= "fill: #207E7E; opacity:1.00 " points="948.41,388.87 952.22,391.78 948.40,391.80 " />
<polygon style= "fill: #1E9E9E; opacity:1.00 " points="652.86,388.49 652.86,391.41 649.04,391.38 " />
<polygon style= "fill: #218181; opacity:1.00 " points="944.57,388.89 948.41,388.87 948.40,391.80 " />
<polygon style= "fill: #1E9D9D; opacity:1.00 " points="652.86,391.41 652.86,388.49 656.71,388.52 " />
<polygon style= "fill: #218181; opacity:1.00 " points="944.57,388.89 948.40,391.80 944.56,391.82 " />
<polygon style= "fill: #1E9D9D; opacity:1.00 " points="652.86,391.41 656.71,388.52 656.71,391.45 " />
<polygon style= "fill: #238383; opacity:1.00 " points="940.70,391.84 944.57,388.89 944.56,391.82 " />
<polygon style= "fill: #1D9C9C; opacity:1.00 " points="660.57,388.55 656.71,391.45 656.71,388.52 " />
<polygon style= "fill: #238383; opacity:1.00 " points="940.70,391.84 940.71,388.91 944.57,388.89 " />
<polygon style= "fill: #1D9C9C; opacity:1.00 " points="660.57,388.55 660.57,391.48 656.71,391.45 " />
<polygon style= "fill: #248585; opacity:1.00 " points="940.71,388.91 940.70,391.84 936.82,391.86 " />
<polygon style= "fill: #6A6D6A; opacity:1.00 " points="1005.90,347.19 887.15,389.10 887.23,346.99 " />
<polygon style= "fill: #1D9B9B; opacity:1.00 " points="660.57,391.48 660.57,388.55 664.46,388.58 " />
<polygon style= "fill: #248585; opacity:1.00 " points="940.71,388.91 936.82,391.86 936.83,388.93 " />
<polygon style= "fill: #1D9B9B; opacity:1.00 " points="660.57,391.48 664.46,388.58 664.46,391.51 " />
<polygon style= "fill: #268787; opacity:1.00 " points="932.92,391.88 936.83,388.93 936.82,391.86 " />
<polygon style= "fill: #1C9A9A; opacity:1.00 " points="664.46,391.51 664.46,388.58 668.36,388.60 " />
<polygon style= "fill: #268787; opacity:1.00 " points="932.92,391.88 932.92,388.95 936.83,388.93 " />
<polygon style= "fill: #1C9A9A; opacity:1.00 " points="664.46,391.51 668.36,388.60 668.36,391.54 " />
<polygon style= "fill: #278989; opacity:1.00 " points="932.92,388.95 932.92,391.88 928.99,391.90 " />
<polygon style= "fill: #1C9999; opacity:1.00 " points="668.36,391.54 668.36,388.60 672.29,388.63 " />
<polygon style= "fill: #278989; opacity:1.00 " points="932.92,388.95 928.99,391.90 929.00,388.97 " />
<polygon style= "fill: #1C9999; opacity:1.00 " points="668.36,391.54 672.29,388.63 672.29,391.56 " />
<polygon style= "fill: #298B8B; opacity:1.00 " points="925.05,391.92 929.00,388.97 928.99,391.90 " />
<polygon style= "fill: #1C9898; opacity:1.00 " points="672.29,391.56 672.29,388.63 676.24,388.66 " />
<polygon style= "fill: #298B8B; opacity:1.00 " points="925.05,391.92 925.06,388.98 929.00,388.97 " />
<polygon style= "fill: #1C9898; opacity:1.00 " points="672.29,391.56 676.24,388.66 676.24,391.59 " />
<polygon style= "fill: #2A8D8D; opacity:1.00 " points="921.09,391.93 925.06,388.98 925.05,391.92 " />
<polygon style= "fill: #1B9797; opacity:1.00 " points="680.20,388.68 676.24,391.59 676.24,388.66 " />
<polygon style= "fill: #2A8D8D; opacity:1.00 " points="921.09,391.93 921.10,389.00 925.06,388.98 " />
<polygon style= "fill: #1B9797; opacity:1.00 " points="680.20,388.68 680.20,391.62 676.24,391.59 " />
<polygon style= "fill: #2C9090; opacity:1.00 " points="917.11,391.95 921.10,389.00 921.09,391.93 " />
<polygon style= "fill: #1B9797; opacity:1.00 " points="680.20,391.62 680.20,388.68 684.19,388.71 " />
<polygon style= "fill: #2C9090; opacity:1.00 " points="917.11,391.95 917.12,389.01 921.10,389.00 " />
<polygon style= "fill: #1B9797; opacity:1.00 " points="680.20,391.62 684.19,388.71 684.18,391.65 " />
<polygon style= "fill: #2D9292; opacity:1.00 " points="917.12,389.01 917.11,391.95 913.11,391.96 " />
<polygon style= "fill: #1B9696; opacity:1.00 " points="684.18,391.65 684.19,388.71 688.19,388.73 " />
<polygon style= "fill: #2D9292; opacity:1.00 " points="917.12,389.01 913.11,391.96 913.12,389.03 " />
<polygon style= "fill: #1B9696; opacity:1.00 " points="684.18,391.65 688.19,388.73 688.19,391.67 " />
<polygon style= "fill: #2F9494; opacity:1.00 " points="913.12,389.03 913.11,391.96 909.10,391.98 " />
<polygon style= "fill: #1B9696; opacity:1.00 " points="692.20,388.76 688.19,391.67 688.19,388.73 " />
<polygon style= "fill: #2F9494; opacity:1.00 " points="913.12,389.03 909.10,391.98 909.10,389.04 " />
<polygon style= "fill: #1B9696; opacity:1.00 " points="692.20,388.76 692.20,391.70 688.19,391.67 " />
<polygon style= "fill: #7B7F7C; opacity:1.00 " points="755.80,392.00 755.76,434.20 631.03,432.82 " />
<polygon style= "fill: #309696; opacity:1.00 " points="909.10,389.04 909.10,391.98 905.06,391.99 " />
<polygon style= "fill: #1B9595; opacity:1.00 " points="696.24,388.78 692.20,391.70 692.20,388.76 " />
<polygon style= "fill: #309696; opacity:1.00 " points="909.10,389.04 905.06,391.99 905.07,389.05 " />
<polygon style= "fill: #1B9595; opacity:1.00 " points="696.24,388.78 696.24,391.72 692.20,391.70 " />
<polygon style= "fill: #319898; opacity:1.00 " points="901.02,392.01 905.07,389.05 905.06,391.99 " />
<polygon style= "fill: #1B9595; opacity:1.00 " points="700.29,388.80 696.24,391.72 696.24,388.78 " />
<polygon style= "fill: #319898; opacity:1.00 " points="901.02,392.01 901.02,389.06 905.07,389.05 " />
<polygon style= "fill: #1B9595; opacity:1.00 " points="700.29,388.80 700.29,391.75 696.24,391.72 " />
<polygon style= "fill: #329A9A; opacity:1.00 " points="896.95,392.02 901.02,389.06 901.02,392.01 " />
<polygon style= "fill: #1B9595; opacity:1.00 " points="700.29,391.75 700.29,388.80 704.36,388.82 " />
<polygon style= "fill: #329A9A; opacity:1.00 " points="896.95,392.02 896.96,389.08 901.02,389.06 " />
<polygon style= "fill: #1B9595; opacity:1.00 " points="700.29,391.75 704.36,388.82 704.35,391.77 " />
<polygon style= "fill: #339C9C; opacity:1.00 " points="896.96,389.08 896.95,392.02 892.87,392.03 " />
<polygon style= "fill: #1C9595; opacity:1.00 " points="704.35,391.77 704.36,388.82 708.44,388.85 " />
<polygon style= "fill: #339C9C; opacity:1.00 " points="896.96,389.08 892.87,392.03 892.88,389.09 " />
<polygon style= "fill: #1C9595; opacity:1.00 " points="704.35,391.77 708.44,388.85 708.44,391.79 " />
<polygon style= "fill: #349E9E; opacity:1.00 " points="888.78,392.04 892.88,389.09 892.87,392.03 " />
<polygon style= "fill: #1C9595; opacity:1.00 " points="708.44,391.79 708.44,388.85 712.53,388.87 " />
<polygon style= "fill: #349E9E; opacity:1.00 " points="888.78,392.04 888.79,389.10 892.88,389.09 " />
<polygon style= "fill: #1C9595; opacity:1.00 " points="708.44,391.79 712.53,388.87 712.53,391.81 " />
<polygon style= "fill: #909391; opacity:1.00 " points="887.14,392.05 755.76,434.20 755.80,392.00 " />
<polygon style= "fill: #35A0A0; opacity:1.00 " points="884.68,392.05 888.79,389.10 888.78,392.04 " />
<polygon style= "fill: #1D9595; opacity:1.00 " points="716.64,388.89 712.53,391.81 712.53,388.87 " />
<polygon style= "fill: #909391; opacity:1.00 " points="887.23,346.99 887.15,389.10 755.81,389.04 " />
<polygon style= "fill: #35A0A0; opacity:1.00 " points="884.68,392.05 884.68,389.11 888.79,389.10 " />
<polygon style= "fill: #1D9595; opacity:1.00 " points="716.64,388.89 716.64,391.83 712.53,391.81 " />
<polygon style= "fill: #36A2A2; opacity:1.00 " points="880.56,392.06 884.68,389.11 884.68,392.05 " />
<polygon style= "fill: #1D9696; opacity:1.00 " points="716.64,391.83 716.64,388.89 720.76,388.91 " />
<polygon style= "fill: #36A2A2; opacity:1.00 " points="880.56,392.06 880.56,389.11 884.68,389.11 " />
<polygon style= "fill: #1D9696; opacity:1.00 " points="716.64,391.83 720.76,388.91 720.76,391.85 " />
<polygon style= "fill: #37A3A3; opacity:1.00 " points="876.42,392.07 880.56,389.11 880.56,392.06 " />
<polygon style= "fill: #909391; opacity:1.00 " points="887.14,392.05 887.06,434.13 755.76,434.20 " />
<polygon style= "fill: #1E9696; opacity:1.00 " points="724.90,388.92 720.76,391.85 720.76,388.91 " />
<polygon style= "fill: #37A3A3; opacity:1.00 " points="876.42,392.07 876.43,389.12 880.56,389.11 " />
<polygon style= "fill: #1E9696; opacity:1.00 " points="724.90,388.92 724.89,391.87 720.76,391.85 " />
<polygon style= "fill: #38A5A5; opacity:1.00 " points="876.43,389.12 876.42,392.07 872.28,392.08 " />
<polygon style= "fill: #1E9797; opacity:1.00 " points="724.89,391.87 724.90,388.92 729.04,388.94 " />
<polygon style= "fill: #38A5A5; opacity:1.00 " points="876.43,389.12 872.28,392.08 872.29,389.13 " />
<polygon style= "fill: #1E9797; opacity:1.00 " points="724.89,391.87 729.04,388.94 729.04,391.89 " />
<polygon style= "fill: #38A6A6; opacity:1.00 " points="868.13,392.09 872.29,389.13 872.28,392.08 " />
<polygon style= "fill: #1F9797; opacity:1.00 " points="729.04,388.94 733.20,391.91 729.04,391.89 " />
<polygon style= "fill: #38A6A6; opacity:1.00 " points="868.13,392.09 868.13,389.14 872.29,389.13 " />
<polygon style= "fill: #1F9797; opacity:1.00 " points="729.04,388.94 733.20,388.96 733.20,391.91 " />
<polygon style= "fill: #39A7A7; opacity:1.00 " points="868.13,389.14 868.13,392.09 863.96,392.09 " />
<polygon style= "fill: #209898; opacity:1.00 " points="733.20,388.96 737.36,391.93 733.20,391.91 " />
<polygon style= "fill: #39A7A7; opacity:1.00 " points="868.13,389.14 863.96,392.09 863.97,389.14 " />
<polygon style= "fill: #209898; opacity:1.00 " points="733.20,388.96 737.36,388.98 737.36,391.93 " />
<polygon style= "fill: #39A8A8; opacity:1.00 " points="859.79,392.10 863.97,389.14 863.96,392.09 " />
<polygon style= "fill: #219999; opacity:1.00 " points="737.36,388.98 741.54,391.95 737.36,391.93 " />
<polygon style= "fill: #39A8A8; opacity:1.00 " points="859.79,392.10 859.79,389.15 863.97,389.14 " />
<polygon style= "fill: #219999; opacity:1.00 " points="737.36,388.98 741.54,388.99 741.54,391.95 " />
<polygon style= "fill: #909391; opacity:1.00 " points="887.23,346.99 755.81,389.04 755.85,346.81 " />
<polygon style= "fill: #39A9A9; opacity:1.00 " points="855.61,389.15 859.79,389.15 859.79,392.10 " />
<polygon style= "fill: #229A9A; opacity:1.00 " points="741.54,388.99 745.72,391.96 741.54,391.95 " />
<polygon style= "fill: #39A9A9; opacity:1.00 " points="855.61,389.15 859.79,392.10 855.60,392.10 " />
<polygon style= "fill: #229A9A; opacity:1.00 " points="741.54,388.99 745.73,389.01 745.72,391.96 " />
<polygon style= "fill: #39AAAA; opacity:1.00 " points="851.42,389.15 855.61,389.15 855.60,392.10 " />
<polygon style= "fill: #239A9A; opacity:1.00 " points="745.73,389.01 749.92,391.98 745.72,391.96 " />
<polygon style= "fill: #39AAAA; opacity:1.00 " points="851.42,389.15 855.60,392.10 851.41,392.11 " />
<polygon style= "fill: #239A9A; opacity:1.00 " points="745.73,389.01 749.92,389.02 749.92,391.98 " />
<polygon style= "fill: #39AAAA; opacity:1.00 " points="847.22,389.16 851.42,389.15 851.41,392.11 " />
<polygon style= "fill: #249B9B; opacity:1.00 " points="749.92,389.02 754.12,391.99 749.92,391.98 " />
<polygon style= "fill: #39AAAA; opacity:1.00 " points="847.22,389.16 851.41,392.11 847.21,392.11 " />
<polygon style= "fill: #249B9B; opacity:1.00 " points="749.92,389.02 754.12,389.04 754.12,391.99 " />
<polygon style= "fill: #39ABAB; opacity:1.00 " points="843.01,389.16 847.22,389.16 847.21,392.11 " />
<polygon style= "fill: #259C9C; opacity:1.00 " points="754.12,389.04 758.33,392.00 754.12,391.99 " />
<polygon style= "fill: #39ABAB; opacity:1.00 " points="843.01,389.16 847.21,392.11 843.00,392.11 " />
<polygon style= "fill: #259C9C; opacity:1.00 " points="754.12,389.04 758.33,389.05 758.33,392.00 " />
<polygon style= "fill: #39ABAB; opacity:1.00 " points="838.79,389.16 843.01,389.16 843.00,392.11 " />
<polygon style= "fill: #269D9D; opacity:1.00 " points="758.33,389.05 762.54,392.02 758.33,392.00 " />
<polygon style= "fill: #39ABAB; opacity:1.00 " points="838.79,389.16 843.00,392.11 838.79,392.12 " />
<polygon style= "fill: #269D9D; opacity:1.00 " points="758.33,389.05 762.55,389.06 762.54,392.02 " />
<polygon style= "fill: #38ABAB; opacity:1.00 " points="834.57,389.16 838.79,389.16 838.79,392.12 " />
<polygon style= "fill: #289E9E; opacity:1.00 " points="762.55,389.06 766.77,392.03 762.54,392.02 " />
<polygon style= "fill: #38ABAB; opacity:1.00 " points="834.57,389.16 838.79,392.12 834.57,392.12 " />
<polygon style= "fill: #289E9E; opacity:1.00 " points="762.55,389.06 766.77,389.07 766.77,392.03 " />
<polygon style= "fill: #38ABAB; opacity:1.00 " points="830.35,389.16 834.57,389.16 834.57,392.12 " />
<polygon style= "fill: #29A0A0; opacity:1.00 " points="766.77,389.07 770.99,392.04 766.77,392.03 " />
<polygon style= "fill: #38ABAB; opacity:1.00 " points="830.35,389.16 834.57,392.12 830.34,392.12 " />
<polygon style= "fill: #29A0A0; opacity:1.00 " points="766.77,389.07 771.00,389.08 770.99,392.04 " />
<polygon style= "fill: #37ABAB; opacity:1.00 " points="826.12,389.16 830.35,389.16 830.34,392.12 " />
<polygon style= "fill: #2AA1A1; opacity:1.00 " points="771.00,389.08 775.22,392.05 770.99,392.04 " />
<polygon style= "fill: #37ABAB; opacity:1.00 " points="826.12,389.16 830.34,392.12 826.11,392.12 " />
<polygon style= "fill: #2AA1A1; opacity:1.00 " points="771.00,389.08 775.23,389.09 775.22,392.05 " />
<polygon style= "fill: #37ABAB; opacity:1.00 " points="821.88,389.16 826.12,389.16 826.11,392.12 " />
<polygon style= "fill: #2BA2A2; opacity:1.00 " points="775.23,389.09 779.46,392.06 775.22,392.05 " />
<polygon style= "fill: #37ABAB; opacity:1.00 " points="821.88,389.16 826.11,392.12 821.88,392.12 " />
<polygon style= "fill: #2BA2A2; opacity:1.00 " points="775.23,389.09 779.46,389.10 779.46,392.06 " />
<polygon style= "fill: #36AAAA; opacity:1.00 " points="817.64,389.16 821.88,389.16 821.88,392.12 " />
<polygon style= "fill: #2DA3A3; opacity:1.00 " points="779.46,389.10 783.70,392.07 779.46,392.06 " />
<polygon style= "fill: #36AAAA; opacity:1.00 " points="817.64,389.16 821.88,392.12 817.64,392.11 " />
<polygon style= "fill: #2DA3A3; opacity:1.00 " points="779.46,389.10 783.70,389.11 783.70,392.07 " />
<polygon style= "fill: #35AAAA; opacity:1.00 " points="813.40,389.15 817.64,389.16 817.64,392.11 " />
<polygon style= "fill: #2EA4A4; opacity:1.00 " points="783.70,389.11 787.94,392.08 783.70,392.07 " />
<polygon style= "fill: #35AAAA; opacity:1.00 " points="813.40,389.15 817.64,392.11 813.40,392.11 " />
<polygon style= "fill: #2EA4A4; opacity:1.00 " points="783.70,389.11 787.94,389.12 787.94,392.08 " />
<polygon style= "fill: #34A9A9; opacity:1.00 " points="809.16,389.15 813.40,389.15 813.40,392.11 " />
<polygon style= "fill: #2FA5A5; opacity:1.00 " points="787.94,389.12 792.18,392.09 787.94,392.08 " />
<polygon style= "fill: #34A9A9; opacity:1.00 " points="809.16,389.15 813.40,392.11 809.16,392.11 " />
<polygon style= "fill: #2FA5A5; opacity:1.00 " points="787.94,389.12 792.18,389.13 792.18,392.09 " />
<polygon style= "fill: #30A6A6; opacity:1.00 " points="792.18,389.13 796.42,392.09 792.18,392.09 " />
<polygon style= "fill: #33A8A8; opacity:1.00 " points="804.92,389.14 809.16,389.15 809.16,392.11 " />
<polygon style= "fill: #33A8A8; opacity:1.00 " points="804.92,389.14 809.16,392.11 804.91,392.10 " />
<polygon style= "fill: #30A6A6; opacity:1.00 " points="792.18,389.13 796.43,389.13 796.42,392.09 " />
<polygon style= "fill: #31A7A7; opacity:1.00 " points="796.43,389.13 800.67,392.10 796.42,392.09 " />
<polygon style= "fill: #32A8A8; opacity:1.00 " points="800.67,389.14 804.91,392.10 800.67,392.10 " />
<polygon style= "fill: #32A8A8; opacity:1.00 " points="800.67,389.14 804.92,389.14 804.91,392.10 " />
<polygon style= "fill: #31A7A7; opacity:1.00 " points="796.43,389.13 800.67,389.14 800.67,392.10 " />
</svg>
</svg>
