<?xml version="1.0" encoding="UTF-8" standalone="no"?>
<!DOCTYPE svg PUBLIC "-//W3C//DTD SVG 1.0//EN"
"http://www.w3.org/Graphics/SVG/1.1/DTD/svg10.dtd">
<svg xmlns="http://www.w3.org/2000/svg" xmlns:xlink="http://www.w3.org/1999/xlink" width=" 1603.00" height="786.00" >

<svg x="0.00" y="0.00" width=" 1603.00" height="786.00" >
<rect x="0" y="0" width="1603.00" height="786.00" 	 style= "fill: #FFFFFF; " /> 
<polygon style= "fill: #077171; opacity:1.00 " points="1457.97,398.36 1457.97,387.64 1473.23,387.64 " />
<polygon style= "fill: #077171; opacity:1.00 " points="1457.97,398.36 1473.23,387.64 1473.23,398.36 " />
<polygon style= "fill: #077171; opacity:1.00 " points="1534.30,398.36 1534.30,387.64 1549.57,387.64 " />
<polygon style= "fill: #077171; opacity:1.00 " points="1534.30,398.36 1549.57,387.64 1549.57,398.36 " />
<polygon style= "fill: #077171; opacity:1.00 " points="1519.03,398.36 1519.03,387.64 1534.30,387.64 " />
<polygon style= "fill: #077171; opacity:1.00 " points="1519.03,398.36 1534.30,387.64 1534.30,398.36 " />
<polygon style= "fill: #077171; opacity:1.00 " points="1503.77,398.36 1503.77,387.64 1519.03,387.64 " />
<polygon style= "fill: #077171; opacity:1.00 " points="1503.77,398.36 1519.03,387.64 1519.03,398.36 " />
<polygon style= "fill: #077171; opacity:1.00 " points="1503.77,387.64 1503.77,398.36 1488.50,398.36 " />
<polygon style= "fill: #077171; opacity:1.00 " points="1503.77,387.64 1488.50,398.36 1488.50,387.64 " />
<polygon style= "fill: #077171; opacity:1.00 " points="893.10,398.36 893.10,387.64 908.37,387.64 " />
<polygon style= "fill: #077171; opacity:1.00 " points="893.10,398.36 908.37,387.64 908.37,398.36 " />
<polygon style= "fill: #077171; opacity:1.00 " points="251.90,387.64 267.17,387.64 267.17,398.36 " />
<polygon style= "fill: #077171; opacity:1.00 " points="251.90,387.64 267.17,398.36 251.90,398.36 " />
<polygon style= "fill: #077171; opacity:1.00 " points="267.17,387.64 282.43,387.64 282.43,398.36 " />
<polygon style= "fill: #077171; opacity:1.00 " points="267.17,387.64 282.43,398.36 267.17,398.36 " />
<polygon style= "fill: #077171; opacity:1.00 " points="282.43,387.64 297.70,387.64 297.70,398.36 " />
<polygon style= "fill: #077171; opacity:1.00 " points="282.43,387.64 297.70,398.36 282.43,398.36 " />
<polygon style= "fill: #077171; opacity:1.00 " points="297.70,387.64 312.97,387.64 312.97,398.36 " />
<polygon style= "fill: #077171; opacity:1.00 " points="297.70,387.64 312.97,398.36 297.70,398.36 " />
<polygon style= "fill: #077171; opacity:1.00 " points="312.97,387.64 328.23,387.64 328.23,398.36 " />
<polygon style= "fill: #077171; opacity:1.00 " points="312.97,387.64 328.23,398.36 312.97,398.36 " />
<polygon style= "fill: #077171; opacity:1.00 " points="328.23,387.64 343.50,387.64 343.50,398.36 " />
<polygon style= "fill: #077171; opacity:1.00 " points="328.23,387.64 343.50,398.36 328.23,398.36 " />
<polygon style= "fill: #077171; opacity:1.00 " points="343.50,387.64 358.77,387.64 358.77,398.36 " />
<polygon style= "fill: #077171; opacity:1.00 " points="343.50,387.64 358.77,398.36 343.50,398.36 " />
<polygon style= "fill: #077171; opacity:1.00 " points="358.77,387.64 374.03,387.64 374.03,398.36 " />
<polygon style= "fill: #077171; opacity:1.00 " points="358.77,387.64 374.03,398.36 358.77,398.36 " />
<polygon style= "fill: #077171; opacity:1.00 " points="374.03,387.64 389.30,387.64 389.30,398.36 " />
<polygon style= "fill: #077171; opacity:1.00 " points="374.03,387.64 389.30,398.36 374.03,398.36 " />
<polygon style= "fill: #077171; opacity:1.00 " points="389.30,387.64 404.57,387.64 404.57,398.36 " />
<polygon style= "fill: #077171; opacity:1.00 " points="389.30,387.64 404.57,398.36 389.30,398.36 " />
<polygon style= "fill: #077171; opacity:1.00 " points="404.57,387.64 419.83,387.64 419.83,398.36 " />
<polygon style= "fill: #077171; opacity:1.00 " points="404.57,387.64 419.83,398.36 404.57,398.36 " />
<polygon style= "fill: #077171; opacity:1.00 " points="419.83,387.64 435.10,387.64 435.10,398.36 " />
<polygon style= "fill: #077171; opacity:1.00 " points="419.83,387.64 435.10,398.36 419.83,398.36 " />
<polygon style= "fill: #077171; opacity:1.00 " points="435.10,387.64 450.37,387.64 450.37,398.36 " />
<polygon style= "fill: #077171; opacity:1.00 " points="435.10,387.64 450.37,398.36 435.10,398.36 " />
<polygon style= "fill: #077171; opacity:1.00 " points="450.37,387.64 465.63,387.64 465.63,398.36 " />
<polygon style= "fill: #077171; opacity:1.00 " points="450.37,387.64 465.63,398.36 450.37,398.36 " />
<polygon style= "fill: #077171; opacity:1.00 " points="465.63,387.64 480.90,387.64 480.90,398.36 " />
<polygon style= "fill: #077171; opacity:1.00 " points="465.63,387.64 480.90,398.36 465.63,398.36 " />
<polygon style= "fill: #077171; opacity:1.00 " points="1549.57,398.36 1549.57,387.64 1564.83,387.64 " />
<polygon style= "fill: #077171; opacity:1.00 " points="1549.57,398.36 1564.83,387.64 1564.83,398.36 " />
<polygon style= "fill: #077171; opacity:1.00 " points="38.17,387.64 53.43,387.64 53.43,398.36 " />
<polygon style= "fill: #077171; opacity:1.00 " points="38.17,387.64 53.43,398.36 38.17,398.36 " />
<polygon style= "fill: #077171; opacity:1.00 " points="53.43,387.64 68.70,387.64 68.70,398.36 " />
<polygon style= "fill: #077171; opacity:1.00 " points="53.43,387.64 68.70,398.36 53.43,398.36 " />
<polygon style= "fill: #077171; opacity:1.00 " points="68.70,387.64 83.97,387.64 83.97,398.36 " />
<polygon style= "fill: #077171; opacity:1.00 " points="68.70,387.64 83.97,398.36 68.70,398.36 " />
<polygon style= "fill: #077171; opacity:1.00 " points="83.97,387.64 99.23,387.64 99.23,398.36 " />
<polygon style= "fill: #077171; opacity:1.00 " points="83.97,387.64 99.23,398.36 83.97,398.36 " />
<polygon style= "fill: #077171; opacity:1.00 " points="99.23,387.64 114.50,387.64 114.50,398.36 " />
<polygon style= "fill: #077171; opacity:1.00 " points="99.23,387.64 114.50,398.36 99.23,398.36 " />
<polygon style= "fill: #077171; opacity:1.00 " points="114.50,387.64 129.77,387.64 129.77,398.36 " />
<polygon style= "fill: #077171; opacity:1.00 " points="114.50,387.64 129.77,398.36 114.50,398.36 " />
<polygon style= "fill: #077171; opacity:1.00 " points="129.77,387.64 145.03,387.64 145.03,398.36 " />
<polygon style= "fill: #077171; opacity:1.00 " points="129.77,387.64 145.03,398.36 129.77,398.36 " />
<polygon style= "fill: #077171; opacity:1.00 " points="145.03,387.64 160.30,387.64 160.30,398.36 " />
<polygon style= "fill: #077171; opacity:1.00 " points="145.03,387.64 160.30,398.36 145.03,398.36 " />
<polygon style= "fill: #077171; opacity:1.00 " points="160.30,387.64 175.57,387.64 175.57,398.36 " />
<polygon style= "fill: #077171; opacity:1.00 " points="160.30,387.64 175.57,398.36 160.30,398.36 " />
<polygon style= "fill: #077171; opacity:1.00 " points="175.57,387.64 190.83,387.64 190.83,398.36 " />
<polygon style= "fill: #077171; opacity:1.00 " points="175.57,387.64 190.83,398.36 175.57,398.36 " />
<polygon style= "fill: #077171; opacity:1.00 " points="190.83,387.64 206.10,387.64 206.10,398.36 " />
<polygon style= "fill: #077171; opacity:1.00 " points="190.83,387.64 206.10,398.36 190.83,398.36 " />
<polygon style= "fill: #077171; opacity:1.00 " points="206.10,387.64 221.37,387.64 221.37,398.36 " />
<polygon style= "fill: #077171; opacity:1.00 " points="206.10,387.64 221.37,398.36 206.10,398.36 " />
<polygon style= "fill: #077171; opacity:1.00 " points="236.63,387.64 236.63,398.36 221.37,398.36 " />
<polygon style= "fill: #077171; opacity:1.00 " points="236.63,387.64 221.37,398.36 221.37,387.64 " />
<polygon style= "fill: #077171; opacity:1.00 " points="236.63,398.36 236.63,387.64 251.90,387.64 " />
<polygon style= "fill: #077171; opacity:1.00 " points="236.63,398.36 251.90,387.64 251.90,398.36 " />
<polygon style= "fill: #077171; opacity:1.00 " points="496.17,387.64 511.43,387.64 511.43,398.36 " />
<polygon style= "fill: #077171; opacity:1.00 " points="496.17,387.64 511.43,398.36 496.17,398.36 " />
<polygon style= "fill: #077171; opacity:1.00 " points="511.43,387.64 526.70,387.64 526.70,398.36 " />
<polygon style= "fill: #077171; opacity:1.00 " points="511.43,387.64 526.70,398.36 511.43,398.36 " />
<polygon style= "fill: #077171; opacity:1.00 " points="526.70,387.64 541.97,387.64 541.97,398.36 " />
<polygon style= "fill: #077171; opacity:1.00 " points="526.70,387.64 541.97,398.36 526.70,398.36 " />
<polygon style= "fill: #077171; opacity:1.00 " points="541.97,387.64 557.23,387.64 557.23,398.36 " />
<polygon style= "fill: #077171; opacity:1.00 " points="541.97,387.64 557.23,398.36 541.97,398.36 " />
<polygon style= "fill: #077171; opacity:1.00 " points="557.23,387.64 572.50,387.64 572.50,398.36 " />
<polygon style= "fill: #077171; opacity:1.00 " points="557.23,387.64 572.50,398.36 557.23,398.36 " />
<polygon style= "fill: #077171; opacity:1.00 " points="572.50,387.64 587.77,387.64 587.77,398.36 " />
<polygon style= "fill: #077171; opacity:1.00 " points="572.50,387.64 587.77,398.36 572.50,398.36 " />
<polygon style= "fill: #077171; opacity:1.00 " points="587.77,387.64 603.03,387.64 603.03,398.36 " />
<polygon style= "fill: #077171; opacity:1.00 " points="587.77,387.64 603.03,398.36 587.77,398.36 " />
<polygon style= "fill: #077171; opacity:1.00 " points="603.03,387.64 618.30,387.64 618.30,398.36 " />
<polygon style= "fill: #077171; opacity:1.00 " points="603.03,387.64 618.30,398.36 603.03,398.36 " />
<polygon style= "fill: #077171; opacity:1.00 " points="618.30,387.64 633.57,387.64 633.57,398.36 " />
<polygon style= "fill: #077171; opacity:1.00 " points="618.30,387.64 633.57,398.36 618.30,398.36 " />
<polygon style= "fill: #077171; opacity:1.00 " points="633.57,387.64 648.83,387.64 648.83,398.36 " />
<polygon style= "fill: #077171; opacity:1.00 " points="633.57,387.64 648.83,398.36 633.57,398.36 " />
<polygon style= "fill: #077171; opacity:1.00 " points="648.83,387.64 664.10,387.64 664.10,398.36 " />
<polygon style= "fill: #077171; opacity:1.00 " points="648.83,387.64 664.10,398.36 648.83,398.36 " />
<polygon style= "fill: #077171; opacity:1.00 " points="664.10,387.64 679.37,387.64 679.37,398.36 " />
<polygon style= "fill: #077171; opacity:1.00 " points="664.10,387.64 679.37,398.36 664.10,398.36 " />
<polygon style= "fill: #077171; opacity:1.00 " points="679.37,387.64 694.63,387.64 694.63,398.36 " />
<polygon style= "fill: #077171; opacity:1.00 " points="679.37,387.64 694.63,398.36 679.37,398.36 " />
<polygon style= "fill: #077171; opacity:1.00 " points="694.63,387.64 709.90,387.64 709.90,398.36 " />
<polygon style= "fill: #077171; opacity:1.00 " points="694.63,387.64 709.90,398.36 694.63,398.36 " />
<polygon style= "fill: #077171; opacity:1.00 " points="709.90,387.64 725.17,387.64 725.17,398.36 " />
<polygon style= "fill: #077171; opacity:1.00 " points="709.90,387.64 725.17,398.36 709.90,398.36 " />
<polygon style= "fill: #077171; opacity:1.00 " points="725.17,387.64 740.43,387.64 740.43,398.36 " />
<polygon style= "fill: #077171; opacity:1.00 " points="725.17,387.64 740.43,398.36 725.17,398.36 " />
<polygon style= "fill: #077171; opacity:1.00 " points="740.43,387.64 755.70,387.64 755.70,398.36 " />
<polygon style= "fill: #077171; opacity:1.00 " points="740.43,387.64 755.70,398.36 740.43,398.36 " />
<polygon style= "fill: #077171; opacity:1.00 " points="755.70,387.64 770.97,387.64 770.97,398.36 " />
<polygon style= "fill: #077171; opacity:1.00 " points="755.70,387.64 770.97,398.36 755.70,398.36 " />
<polygon style= "fill: #077171; opacity:1.00 " points="770.97,387.64 786.23,387.64 786.23,398.36 " />
<polygon style= "fill: #077171; opacity:1.00 " points="770.97,387.64 786.23,398.36 770.97,398.36 " />
<polygon style= "fill: #077171; opacity:1.00 " points="786.23,387.64 801.50,387.64 801.50,398.36 " />
<polygon style= "fill: #077171; opacity:1.00 " points="786.23,387.64 801.50,398.36 786.23,398.36 " />
<polygon style= "fill: #077171; opacity:1.00 " points="801.50,387.64 816.77,387.64 816.77,398.36 " />
<polygon style= "fill: #077171; opacity:1.00 " points="801.50,387.64 816.77,398.36 801.50,398.36 " />
<polygon style= "fill: #077171; opacity:1.00 " points="816.77,387.64 832.03,387.64 832.03,398.36 " />
<polygon style= "fill: #077171; opacity:1.00 " points="816.77,387.64 832.03,398.36 816.77,398.36 " />
<polygon style= "fill: #077171; opacity:1.00 " points="832.03,387.64 847.30,387.64 847.30,398.36 " />
<polygon style= "fill: #077171; opacity:1.00 " points="832.03,387.64 847.30,398.36 832.03,398.36 " />
<polygon style= "fill: #077171; opacity:1.00 " points="847.30,387.64 862.57,387.64 862.57,398.36 " />
<polygon style= "fill: #077171; opacity:1.00 " points="847.30,387.64 862.57,398.36 847.30,398.36 " />
<polygon style= "fill: #077171; opacity:1.00 " points="862.57,387.64 877.83,387.64 877.83,398.36 " />
<polygon style= "fill: #077171; opacity:1.00 " points="862.57,387.64 877.83,398.36 862.57,398.36 " />
<polygon style= "fill: #077171; opacity:1.00 " points="496.17,387.64 496.17,398.36 480.90,398.36 " />
<polygon style= "fill: #077171; opacity:1.00 " points="496.17,387.64 480.90,398.36 480.90,387.64 " />
<polygon style= "fill: #077171; opacity:1.00 " points="893.10,387.64 893.10,398.36 877.83,398.36 " />
<polygon style= "fill: #077171; opacity:1.00 " points="893.10,387.64 877.83,398.36 877.83,387.64 " />
<polygon style= "fill: #077171; opacity:1.00 " points="923.63,387.64 923.63,398.36 908.37,398.36 " />
<polygon style= "fill: #077171; opacity:1.00 " points="923.63,387.64 908.37,398.36 908.37,387.64 " />
<polygon style= "fill: #077171; opacity:1.00 " points="938.90,387.64 954.17,387.64 954.17,398.36 " />
<polygon style= "fill: #077171; opacity:1.00 " points="938.90,387.64 954.17,398.36 938.90,398.36 " />
<polygon style= "fill: #077171; opacity:1.00 " points="954.17,387.64 969.43,387.64 969.43,398.36 " />
<polygon style= "fill: #077171; opacity:1.00 " points="954.17,387.64 969.43,398.36 954.17,398.36 " />
<polygon style= "fill: #077171; opacity:1.00 " points="969.43,387.64 984.70,387.64 984.70,398.36 " />
<polygon style= "fill: #077171; opacity:1.00 " points="969.43,387.64 984.70,398.36 969.43,398.36 " />
<polygon style= "fill: #077171; opacity:1.00 " points="984.70,387.64 999.97,387.64 999.97,398.36 " />
<polygon style= "fill: #077171; opacity:1.00 " points="984.70,387.64 999.97,398.36 984.70,398.36 " />
<polygon style= "fill: #077171; opacity:1.00 " points="999.97,387.64 1015.23,387.64 1015.23,398.36 " />
<polygon style= "fill: #077171; opacity:1.00 " points="999.97,387.64 1015.23,398.36 999.97,398.36 " />
<polygon style= "fill: #077171; opacity:1.00 " points="1015.23,387.64 1030.50,387.64 1030.50,398.36 " />
<polygon style= "fill: #077171; opacity:1.00 " points="1015.23,387.64 1030.50,398.36 1015.23,398.36 " />
<polygon style= "fill: #077171; opacity:1.00 " points="1030.50,387.64 1045.77,387.64 1045.77,398.36 " />
<polygon style= "fill: #077171; opacity:1.00 " points="1030.50,387.64 1045.77,398.36 1030.50,398.36 " />
<polygon style= "fill: #077171; opacity:1.00 " points="1045.77,387.64 1061.03,387.64 1061.03,398.36 " />
<polygon style= "fill: #077171; opacity:1.00 " points="1045.77,387.64 1061.03,398.36 1045.77,398.36 " />
<polygon style= "fill: #077171; opacity:1.00 " points="1061.03,387.64 1076.30,387.64 1076.30,398.36 " />
<polygon style= "fill: #077171; opacity:1.00 " points="1061.03,387.64 1076.30,398.36 1061.03,398.36 " />
<polygon style= "fill: #077171; opacity:1.00 " points="1076.30,387.64 1091.57,387.64 1091.57,398.36 " />
<polygon style= "fill: #077171; opacity:1.00 " points="1076.30,387.64 1091.57,398.36 1076.30,398.36 " />
<polygon style= "fill: #077171; opacity:1.00 " points="1091.57,387.64 1106.83,387.64 1106.83,398.36 " />
<polygon style= "fill: #077171; opacity:1.00 " points="1091.57,387.64 1106.83,398.36 1091.57,398.36 " />
<polygon style= "fill: #077171; opacity:1.00 " points="1106.83,387.64 1122.10,387.64 1122.10,398.36 " />
<polygon style= "fill: #077171; opacity:1.00 " points="1106.83,387.64 1122.10,398.36 1106.83,398.36 " />
<polygon style= "fill: #077171; opacity:1.00 " points="1122.10,387.64 1137.37,387.64 1137.37,398.36 " />
<polygon style= "fill: #077171; opacity:1.00 " points="1122.10,387.64 1137.37,398.36 1122.10,398.36 " />
<polygon style= "fill: #077171; opacity:1.00 " points="1137.37,387.64 1152.63,387.64 1152.63,398.36 " />
<polygon style= "fill: #077171; opacity:1.00 " points="1137.37,387.64 1152.63,398.36 1137.37,398.36 " />
<polygon style= "fill: #077171; opacity:1.00 " points="1152.63,387.64 1167.90,387.64 1167.90,398.36 " />
<polygon style= "fill: #077171; opacity:1.00 " points="1152.63,387.64 1167.90,398.36 1152.63,398.36 " />
<polygon style= "fill: #077171; opacity:1.00 " points="1167.90,387.64 1183.17,387.64 1183.17,398.36 " />
<polygon style= "fill: #077171; opacity:1.00 " points="1167.90,387.64 1183.17,398.36 1167.90,398.36 " />
<polygon style= "fill: #077171; opacity:1.00 " points="1183.17,387.64 1198.43,387.64 1198.43,398.36 " />
<polygon style= "fill: #077171; opacity:1.00 " points="1183.17,387.64 1198.43,398.36 1183.17,398.36 " />
<polygon style= "fill: #077171; opacity:1.00 " points="1198.43,387.64 1213.70,387.64 1213.70,398.36 " />
<polygon style= "fill: #077171; opacity:1.00 " points="1198.43,387.64 1213.70,398.36 1198.43,398.36 " />
<polygon style= "fill: #077171; opacity:1.00 " points="1213.70,387.64 1228.97,387.64 1228.97,398.36 " />
<polygon style= "fill: #077171; opacity:1.00 " points="1213.70,387.64 1228.97,398.36 1213.70,398.36 " />
<polygon style= "fill: #077171; opacity:1.00 " points="1228.97,387.64 1244.23,387.64 1244.23,398.36 " />
<polygon style= "fill: #077171; opacity:1.00 " points="1228.97,387.64 1244.23,398.36 1228.97,398.36 " />
<polygon style= "fill: #077171; opacity:1.00 " points="1244.23,387.64 1259.50,387.64 1259.50,398.36 " />
<polygon style= "fill: #077171; opacity:1.00 " points="1244.23,387.64 1259.50,398.36 1244.23,398.36 " />
<polygon style= "fill: #077171; opacity:1.00 " points="1259.50,387.64 1274.77,387.64 1274.77,398.36 " />
<polygon style= "fill: #077171; opacity:1.00 " points="1259.50,387.64 1274.77,398.36 1259.50,398.36 " />
<polygon style= "fill: #077171; opacity:1.00 " points="1274.77,387.64 1290.03,387.64 1290.03,398.36 " />
<polygon style= "fill: #077171; opacity:1.00 " points="1274.77,387.64 1290.03,398.36 1274.77,398.36 " />
<polygon style= "fill: #077171; opacity:1.00 " points="1290.03,387.64 1305.30,387.64 1305.30,398.36 " />
<polygon style= "fill: #077171; opacity:1.00 " points="1290.03,387.64 1305.30,398.36 1290.03,398.36 " />
<polygon style= "fill: #077171; opacity:1.00 " points="1305.30,387.64 1320.57,387.64 1320.57,398.36 " />
<polygon style= "fill: #077171; opacity:1.00 " points="1305.30,387.64 1320.57,398.36 1305.30,398.36 " />
<polygon style= "fill: #077171; opacity:1.00 " points="1320.57,387.64 1335.83,387.64 1335.83,398.36 " />
<polygon style= "fill: #077171; opacity:1.00 " points="1320.57,387.64 1335.83,398.36 1320.57,398.36 " />
<polygon style= "fill: #077171; opacity:1.00 " points="1335.83,387.64 1351.10,387.64 1351.10,398.36 " />
<polygon style= "fill: #077171; opacity:1.00 " points="1335.83,387.64 1351.10,398.36 1335.83,398.36 " />
<polygon style= "fill: #077171; opacity:1.00 " points="1351.10,387.64 1366.37,387.64 1366.37,398.36 " />
<polygon style= "fill: #077171; opacity:1.00 " points="1351.10,387.64 1366.37,398.36 1351.10,398.36 " />
<polygon style= "fill: #077171; opacity:1.00 " points="1366.37,387.64 1381.63,387.64 1381.63,398.36 " />
<polygon style= "fill: #077171; opacity:1.00 " points="1366.37,387.64 1381.63,398.36 1366.37,398.36 " />
<polygon style= "fill: #077171; opacity:1.00 " points="1381.63,387.64 1396.90,387.64 1396.90,398.36 " />
<polygon style= "fill: #077171; opacity:1.00 " points="1381.63,387.64 1396.90,398.36 1381.63,398.36 " />
<polygon style= "fill: #077171; opacity:1.00 " points="1396.90,387.64 1412.17,387.64 1412.17,398.36 " />
<polygon style= "fill: #077171; opacity:1.00 " points="1396.90,387.64 1412.17,398.36 1396.90,398.36 " />
<polygon style= "fill: #077171; opacity:1.00 " points="1412.17,387.64 1427.43,387.64 1427.43,398.36 " />
<polygon style= "fill: #077171; opacity:1.00 " points="1412.17,387.64 1427.43,398.36 1412.17,398.36 " />
<polygon style= "fill: #077171; opacity:1.00 " points="1427.43,387.64 1442.70,387.64 1442.70,398.36 " />
<polygon style= "fill: #077171; opacity:1.00 " points="1427.43,387.64 1442.70,398.36 1427.43,398.36 " />
<polygon style= "fill: #077171; opacity:1.00 " points="1457.97,387.64 1457.97,398.36 1442.70,398.36 " />
<polygon style= "fill: #077171; opacity:1.00 " points="1457.97,387.64 1442.70,398.36 1442.70,387.64 " />
<polygon style= "fill: #077171; opacity:1.00 " points="938.90,387.64 938.90,398.36 923.63,398.36 " />
<polygon style= "fill: #077171; opacity:1.00 " points="938.90,387.64 923.63,398.36 923.63,387.64 " />
<polygon style= "fill: #077171; opacity:1.00 " points="1473.23,398.36 1473.23,387.64 1488.50,387.64 " />
<polygon style= "fill: #077171; opacity:1.00 " points="1473.23,398.36 1488.50,387.64 1488.50,398.36 " />
</svg>
</svg>
