<?xml version="1.0" encoding="UTF-8" standalone="no"?>
<!DOCTYPE svg PUBLIC "-//W3C//DTD SVG 1.0//EN"
"http://www.w3.org/Graphics/SVG/1.1/DTD/svg10.dtd">
<svg xmlns="http://www.w3.org/2000/svg" xmlns:xlink="http://www.w3.org/1999/xlink" width=" 1603.00" height="786.00" >

<svg x="0.00" y="0.00" width=" 1603.00" height="786.00" >
<rect x="0" y="0" width="1603.00" height="786.00" 	 style= "fill: #FFFFFF; " /> 
<polygon style= "fill: #5B5F5C; opacity:1.00 " points="1265.42,447.56 1290.46,499.69 1290.75,450.08 " />
<polygon style= "fill: #393B3A; opacity:1.00 " points="922.50,272.96 921.78,394.83 911.77,394.72 " />
<polygon style= "fill: #5F6360; opacity:1.00 " points="693.22,269.94 681.55,393.37 682.30,271.38 " />
<polygon style= "fill: #393B3A; opacity:1.00 " points="922.50,272.96 911.77,394.72 912.51,271.39 " />
<polygon style= "fill: #5F6360; opacity:1.00 " points="693.22,269.94 692.47,393.39 681.55,393.37 " />
<polygon style= "fill: #3F413F; opacity:1.00 " points="912.51,271.39 911.77,394.72 890.44,394.55 " />
<polygon style= "fill: #717572; opacity:1.00 " points="715.37,268.78 692.47,393.39 693.22,269.94 " />
<polygon style= "fill: #3F413F; opacity:1.00 " points="912.51,271.39 890.44,394.55 891.19,269.94 " />
<polygon style= "fill: #717572; opacity:1.00 " points="715.37,268.78 714.62,393.48 692.47,393.39 " />
<polygon style= "fill: #474A48; opacity:1.00 " points="891.19,269.94 890.44,394.55 859.70,394.34 " />
<polygon style= "fill: #FFFFD5; opacity:1.00 " points="1278.56,447.27 1283.14,447.31 1283.12,450.51 " />
<polygon style= "fill: #393B3A; opacity:1.00 " points="1290.75,450.08 1266.87,504.56 1267.17,452.43 " />
<polygon style= "fill: #89876B; opacity:1.00 " points="1290.39,447.01 1290.57,446.93 1290.55,450.43 " />
<polygon style= "fill: #8F9390; opacity:1.00 " points="746.73,268.02 714.62,393.48 715.37,268.78 " />
<polygon style= "fill: #89876B; opacity:1.00 " points="1290.39,447.01 1290.55,450.43 1290.37,450.51 " />
<polygon style= "fill: #474A48; opacity:1.00 " points="891.19,269.94 859.70,394.34 860.46,268.77 " />
<polygon style= "fill: #8F9390; opacity:1.00 " points="746.73,268.02 745.97,393.64 714.62,393.48 " />
<polygon style= "fill: #5F6360; opacity:1.00 " points="339.17,446.99 311.26,494.13 311.57,444.33 " />
<polygon style= "fill: #E9E5B7; opacity:1.00 " points="312.64,441.25 312.31,444.68 312.33,441.17 " />
<polygon style= "fill: #E9E5B7; opacity:1.00 " points="312.64,441.25 312.62,444.77 312.31,444.68 " />
<polygon style= "fill: #757876; opacity:1.00 " points="860.46,268.77 859.70,394.34 822.67,394.10 " />
<polygon style= "fill: #8B896D; opacity:1.00 " points="1289.12,450.82 1289.53,447.23 1289.51,450.75 " />
<polygon style= "fill: #7C807D; opacity:1.00 " points="784.09,267.75 745.97,393.64 746.73,268.02 " />
<polygon style= "fill: #8B896D; opacity:1.00 " points="1289.12,450.82 1289.14,447.30 1289.53,447.23 " />
<polygon style= "fill: #757876; opacity:1.00 " points="860.46,268.77 822.67,394.10 823.43,268.01 " />
<polygon style= "fill: #7C807D; opacity:1.00 " points="784.09,267.75 783.33,393.86 745.97,393.64 " />
<polygon style= "fill: #393B3A; opacity:1.00 " points="1291.05,397.00 1290.77,446.61 1267.20,448.79 " />
<polygon style= "fill: #FFFFD5; opacity:1.00 " points="1283.14,447.31 1283.62,447.32 1283.60,450.85 " />
<polygon style= "fill: #FFFFD5; opacity:1.00 " points="1283.12,450.51 1283.14,447.31 1283.60,450.85 " />
<polygon style= "fill: #F0EDC7; opacity:1.00 " points="325.12,441.66 330.19,441.67 330.16,445.21 " />
<polygon style= "fill: #F0EDC7; opacity:1.00 " points="325.12,441.66 330.16,445.21 325.10,445.20 " />
<polygon style= "fill: #F0EDC7; opacity:1.00 " points="320.53,441.65 325.12,441.66 325.10,445.20 " />
<polygon style= "fill: #F0EDC7; opacity:1.00 " points="320.53,441.99 320.53,441.65 325.10,445.20 " />
<polygon style= "fill: #5F6360; opacity:1.00 " points="339.53,391.01 339.20,443.33 311.60,440.84 " />
<polygon style= "fill: #C7C49D; opacity:1.00 " points="313.41,441.40 318.96,441.49 313.88,441.48 " />
<polygon style= "fill: #E9E5B7; opacity:1.00 " points="313.39,444.93 313.41,441.40 313.88,441.48 " />
<polygon style= "fill: #FFFFD5; opacity:1.00 " points="1283.62,447.32 1288.69,447.37 1288.67,450.90 " />
<polygon style= "fill: #929693; opacity:1.00 " points="823.43,268.01 822.67,394.10 783.33,393.86 " />
<polygon style= "fill: #929693; opacity:1.00 " points="823.43,268.01 783.33,393.86 784.09,267.75 " />
<polygon style= "fill: #393B3A; opacity:1.00 " points="1290.75,450.08 1290.46,499.69 1266.87,504.56 " />
<polygon style= "fill: #EAE6B8; opacity:1.00 " points="314.37,445.10 314.40,441.56 314.97,441.64 " />
<polygon style= "fill: #F0EDC7; opacity:1.00 " points="320.04,441.65 320.53,441.65 320.53,441.99 " />
<polygon style= "fill: #EAE6B8; opacity:1.00 " points="314.37,445.10 314.97,441.64 314.95,445.18 " />
<polygon style= "fill: #F0EDC7; opacity:1.00 " points="314.97,441.64 320.02,445.19 314.95,445.18 " />
<polygon style= "fill: #8D8B6F; opacity:1.00 " points="1287.02,451.13 1287.65,447.51 1287.62,451.05 " />
<polygon style= "fill: #5F6360; opacity:1.00 " points="339.53,391.01 311.60,440.84 311.91,391.04 " />
<polygon style= "fill: #8D8B6F; opacity:1.00 " points="1287.02,451.13 1287.04,447.58 1287.65,447.51 " />
<polygon style= "fill: #8D8B6F; opacity:1.00 " points="1287.04,447.58 1286.36,451.21 1286.38,447.65 " />
<polygon style= "fill: #ECE8B9; opacity:1.00 " points="317.00,441.87 316.25,445.35 316.27,441.79 " />
<polygon style= "fill: #ECE8B9; opacity:1.00 " points="317.00,441.87 316.98,445.43 316.25,445.35 " />
<polygon style= "fill: #8E8C70; opacity:1.00 " points="1285.67,447.72 1285.65,451.28 1284.89,451.36 " />
<polygon style= "fill: #8E8C70; opacity:1.00 " points="1285.67,447.72 1284.89,451.36 1284.91,447.79 " />
<polygon style= "fill: #EDE9BA; opacity:1.00 " points="316.98,445.43 317.00,441.87 317.79,441.95 " />
<polygon style= "fill: #EDE9BA; opacity:1.00 " points="316.98,445.43 317.79,441.95 317.77,445.52 " />
<polygon style= "fill: #8F8D70; opacity:1.00 " points="1284.07,451.43 1284.91,447.79 1284.89,451.36 " />
<polygon style= "fill: #8F8D70; opacity:1.00 " points="1284.07,451.43 1284.09,447.86 1284.91,447.79 " />
<polygon style= "fill: #EDE9BA; opacity:1.00 " points="317.79,441.95 318.61,445.60 317.77,445.52 " />
<polygon style= "fill: #EDE9BA; opacity:1.00 " points="317.79,441.95 318.63,442.03 318.61,445.60 " />
<polygon style= "fill: #8F8D71; opacity:1.00 " points="1283.20,451.51 1284.09,447.86 1284.07,451.43 " />
<polygon style= "fill: #8F8D71; opacity:1.00 " points="1283.20,451.51 1283.22,447.93 1284.09,447.86 " />
<polygon style= "fill: #EEEABB; opacity:1.00 " points="318.63,442.03 319.50,445.69 318.61,445.60 " />
<polygon style= "fill: #EEEABB; opacity:1.00 " points="318.63,442.03 319.53,442.11 319.50,445.69 " />
<polygon style= "fill: #908E71; opacity:1.00 " points="1283.22,447.93 1283.20,451.51 1282.27,451.58 " />
<polygon style= "fill: #908E71; opacity:1.00 " points="1283.22,447.93 1282.27,451.58 1282.29,448.00 " />
<polygon style= "fill: #EEEBBB; opacity:1.00 " points="319.53,442.11 320.47,442.19 320.45,445.78 " />
<polygon style= "fill: #908E72; opacity:1.00 " points="1281.29,451.66 1282.29,448.00 1282.27,451.58 " />
<polygon style= "fill: #908E72; opacity:1.00 " points="1281.29,451.66 1281.31,448.07 1282.29,448.00 " />
<polygon style= "fill: #EFEBBC; opacity:1.00 " points="320.47,442.19 321.48,442.27 321.46,445.86 " />
<polygon style= "fill: #918F72; opacity:1.00 " points="1280.25,451.73 1281.31,448.07 1281.29,451.66 " />
<polygon style= "fill: #393B3A; opacity:1.00 " points="1291.05,397.00 1267.20,448.79 1267.50,396.67 " />
<polygon style= "fill: #918F72; opacity:1.00 " points="1280.25,451.73 1280.27,448.14 1281.31,448.07 " />
<polygon style= "fill: #F0ECBC; opacity:1.00 " points="321.48,442.27 322.54,442.35 322.51,445.95 " />
<polygon style= "fill: #918F72; opacity:1.00 " points="1279.16,451.81 1280.27,448.14 1280.25,451.73 " />
<polygon style= "fill: #918F72; opacity:1.00 " points="1279.16,451.81 1279.18,448.21 1280.27,448.14 " />
<polygon style= "fill: #F0EDBD; opacity:1.00 " points="322.54,442.35 323.63,446.04 322.51,445.95 " />
<polygon style= "fill: #F0EDBD; opacity:1.00 " points="322.54,442.35 323.65,442.43 323.63,446.04 " />
<polygon style= "fill: #929073; opacity:1.00 " points="1278.01,451.88 1279.18,448.21 1279.16,451.81 " />
<polygon style= "fill: #929073; opacity:1.00 " points="1278.01,451.88 1278.03,448.27 1279.18,448.21 " />
<polygon style= "fill: #F1EDBE; opacity:1.00 " points="323.65,442.43 324.80,446.12 323.63,446.04 " />
<polygon style= "fill: #5F6360; opacity:1.00 " points="339.17,446.99 338.85,499.31 311.26,494.13 " />
<polygon style= "fill: #F1EDBE; opacity:1.00 " points="323.65,442.43 324.82,442.52 324.80,446.12 " />
<polygon style= "fill: #929073; opacity:1.00 " points="1278.03,448.27 1278.01,451.88 1276.81,451.95 " />
<polygon style= "fill: #929073; opacity:1.00 " points="1278.03,448.27 1276.81,451.95 1276.83,448.34 " />
<polygon style= "fill: #F2EEBE; opacity:1.00 " points="324.82,442.52 326.02,446.21 324.80,446.12 " />
<polygon style= "fill: #F2EEBE; opacity:1.00 " points="324.82,442.52 326.04,442.60 326.02,446.21 " />
<polygon style= "fill: #939173; opacity:1.00 " points="1275.55,452.02 1276.83,448.34 1276.81,451.95 " />
<polygon style= "fill: #939173; opacity:1.00 " points="1275.55,452.02 1275.58,448.41 1276.83,448.34 " />
<polygon style= "fill: #F2EEBF; opacity:1.00 " points="326.04,442.60 327.30,446.30 326.02,446.21 " />
<polygon style= "fill: #F2EEBF; opacity:1.00 " points="326.04,442.60 327.32,442.68 327.30,446.30 " />
<polygon style= "fill: #939174; opacity:1.00 " points="1275.58,448.41 1275.55,452.02 1274.24,452.10 " />
<polygon style= "fill: #C7C49D; opacity:1.00 " points="1272.90,448.54 1268.98,448.41 1274.26,448.47 " />
<polygon style= "fill: #939174; opacity:1.00 " points="1275.58,448.41 1274.24,452.10 1274.26,448.47 " />
<polygon style= "fill: #F3EFBF; opacity:1.00 " points="327.32,442.68 328.63,446.39 327.30,446.30 " />
<polygon style= "fill: #F3EFBF; opacity:1.00 " points="327.32,442.68 328.65,442.76 328.63,446.39 " />
<polygon style= "fill: #949174; opacity:1.00 " points="1272.88,452.17 1274.26,448.47 1274.24,452.10 " />
<polygon style= "fill: #949174; opacity:1.00 " points="1272.88,452.17 1272.90,448.54 1274.26,448.47 " />
<polygon style= "fill: #F4F0C0; opacity:1.00 " points="328.65,442.76 330.02,446.47 328.63,446.39 " />
<polygon style= "fill: #F4F0C0; opacity:1.00 " points="328.65,442.76 330.04,442.84 330.02,446.47 " />
<polygon style= "fill: #949275; opacity:1.00 " points="1271.47,448.61 1272.90,448.54 1272.88,452.17 " />
<polygon style= "fill: #949275; opacity:1.00 " points="1271.47,448.61 1272.88,452.17 1271.45,452.24 " />
<polygon style= "fill: #F4F0C0; opacity:1.00 " points="330.04,442.84 331.47,446.56 330.02,446.47 " />
<polygon style= "fill: #F4F0C0; opacity:1.00 " points="330.04,442.84 331.49,442.93 331.47,446.56 " />
<polygon style= "fill: #959275; opacity:1.00 " points="1270.00,448.67 1271.47,448.61 1271.45,452.24 " />
<polygon style= "fill: #959275; opacity:1.00 " points="1270.00,448.67 1271.45,452.24 1269.97,452.31 " />
<polygon style= "fill: #F5F1C1; opacity:1.00 " points="331.49,442.93 332.97,446.65 331.47,446.56 " />
<polygon style= "fill: #F5F1C1; opacity:1.00 " points="331.49,442.93 332.99,443.01 332.97,446.65 " />
<polygon style= "fill: #959375; opacity:1.00 " points="1268.46,448.73 1270.00,448.67 1269.97,452.31 " />
<polygon style= "fill: #959375; opacity:1.00 " points="1268.46,448.73 1269.97,452.31 1268.44,452.38 " />
<polygon style= "fill: #F6F2C1; opacity:1.00 " points="332.99,443.01 334.52,446.74 332.97,446.65 " />
<polygon style= "fill: #F6F2C1; opacity:1.00 " points="332.99,443.01 334.54,443.09 334.52,446.74 " />
<polygon style= "fill: #3F413F; opacity:1.00 " points="1267.50,396.67 1267.20,448.79 1190.04,450.49 " />
<polygon style= "fill: #969376; opacity:1.00 " points="1266.87,448.80 1268.46,448.73 1268.44,452.38 " />
<polygon style= "fill: #3F413F; opacity:1.00 " points="1267.17,452.43 1189.70,508.79 1190.02,454.31 " />
<polygon style= "fill: #969376; opacity:1.00 " points="1266.87,448.80 1268.44,452.38 1266.85,452.45 " />
<polygon style= "fill: #F6F3C2; opacity:1.00 " points="334.54,443.09 336.13,446.83 334.52,446.74 " />
<polygon style= "fill: #F6F3C2; opacity:1.00 " points="334.54,443.09 336.16,443.18 336.13,446.83 " />
<polygon style= "fill: #969476; opacity:1.00 " points="1265.23,448.86 1266.87,448.80 1266.85,452.45 " />
<polygon style= "fill: #969476; opacity:1.00 " points="1265.23,448.86 1266.85,452.45 1265.21,452.52 " />
<polygon style= "fill: #F7F3C3; opacity:1.00 " points="336.16,443.18 337.80,446.92 336.13,446.83 " />
<polygon style= "fill: #F7F3C3; opacity:1.00 " points="336.16,443.18 337.82,443.26 337.80,446.92 " />
<polygon style= "fill: #979476; opacity:1.00 " points="1263.53,448.93 1265.23,448.86 1265.21,452.52 " />
<polygon style= "fill: #979476; opacity:1.00 " points="1263.53,448.93 1265.21,452.52 1263.51,452.59 " />
<polygon style= "fill: #717572; opacity:1.00 " points="420.44,449.80 338.85,499.31 339.17,446.99 " />
<polygon style= "fill: #F8F4C3; opacity:1.00 " points="337.82,443.26 339.52,447.01 337.80,446.92 " />
<polygon style= "fill: #717572; opacity:1.00 " points="420.81,391.33 339.20,443.33 339.53,391.01 " />
<polygon style= "fill: #717572; opacity:1.00 " points="420.81,391.33 420.47,445.97 339.20,443.33 " />
<polygon style= "fill: #F8F4C3; opacity:1.00 " points="337.82,443.26 339.55,443.34 339.52,447.01 " />
<polygon style= "fill: #979577; opacity:1.00 " points="1261.77,448.99 1263.53,448.93 1263.51,452.59 " />
<polygon style= "fill: #979577; opacity:1.00 " points="1261.77,448.99 1263.51,452.59 1261.75,452.65 " />
<polygon style= "fill: #F9F5C4; opacity:1.00 " points="339.55,443.34 341.30,447.10 339.52,447.01 " />
<polygon style= "fill: #F9F5C4; opacity:1.00 " points="339.55,443.34 341.33,443.43 341.30,447.10 " />
<polygon style= "fill: #979577; opacity:1.00 " points="1259.96,449.05 1261.77,448.99 1261.75,452.65 " />
<polygon style= "fill: #C7C49D; opacity:1.00 " points="346.01,443.42 343.16,443.51 341.33,443.43 " />
<polygon style= "fill: #979577; opacity:1.00 " points="1259.96,449.05 1261.75,452.65 1259.94,452.72 " />
<polygon style= "fill: #F9F6C5; opacity:1.00 " points="341.33,443.43 343.14,447.19 341.30,447.10 " />
<polygon style= "fill: #F9F6C5; opacity:1.00 " points="341.33,443.43 343.16,443.51 343.14,447.19 " />
<polygon style= "fill: #989577; opacity:1.00 " points="1258.09,449.11 1259.96,449.05 1259.94,452.72 " />
<polygon style= "fill: #989577; opacity:1.00 " points="1258.09,449.11 1259.94,452.72 1258.07,452.79 " />
<polygon style= "fill: #FAF6C5; opacity:1.00 " points="343.16,443.51 345.03,447.28 343.14,447.19 " />
<polygon style= "fill: #FAF6C5; opacity:1.00 " points="343.16,443.51 345.05,443.60 345.03,447.28 " />
<polygon style= "fill: #989678; opacity:1.00 " points="1256.17,449.17 1258.09,449.11 1258.07,452.79 " />
<polygon style= "fill: #989678; opacity:1.00 " points="1256.17,449.17 1258.07,452.79 1256.14,452.86 " />
<polygon style= "fill: #FBF7C6; opacity:1.00 " points="345.05,443.60 346.97,447.37 345.03,447.28 " />
<polygon style= "fill: #FBF7C6; opacity:1.00 " points="345.05,443.60 347.00,443.68 346.97,447.37 " />
<polygon style= "fill: #999678; opacity:1.00 " points="1254.19,449.23 1256.17,449.17 1256.14,452.86 " />
<polygon style= "fill: #999678; opacity:1.00 " points="1254.19,449.23 1256.14,452.86 1254.16,452.92 " />
<polygon style= "fill: #FCF8C7; opacity:1.00 " points="347.00,443.68 348.98,447.46 346.97,447.37 " />
<polygon style= "fill: #FCF8C7; opacity:1.00 " points="347.00,443.68 349.00,443.77 348.98,447.46 " />
<polygon style= "fill: #999778; opacity:1.00 " points="1252.15,449.29 1254.19,449.23 1254.16,452.92 " />
<polygon style= "fill: #999778; opacity:1.00 " points="1252.15,449.29 1254.16,452.92 1252.13,452.99 " />
<polygon style= "fill: #FDF9C8; opacity:1.00 " points="349.00,443.77 351.04,447.55 348.98,447.46 " />
<polygon style= "fill: #FDF9C8; opacity:1.00 " points="349.00,443.77 351.06,443.85 351.04,447.55 " />
<polygon style= "fill: #9A9779; opacity:1.00 " points="1250.06,449.35 1252.15,449.29 1252.13,452.99 " />
<polygon style= "fill: #9A9779; opacity:1.00 " points="1250.06,449.35 1252.13,452.99 1250.04,453.05 " />
<polygon style= "fill: #FEFAC9; opacity:1.00 " points="351.06,443.85 353.15,447.64 351.04,447.55 " />
<polygon style= "fill: #FEFAC9; opacity:1.00 " points="351.06,443.85 353.17,443.93 353.15,447.64 " />
<polygon style= "fill: #9A9879; opacity:1.00 " points="1247.91,449.41 1250.06,449.35 1250.04,453.05 " />
<polygon style= "fill: #9A9879; opacity:1.00 " points="1247.91,449.41 1250.04,453.05 1247.89,453.12 " />
<polygon style= "fill: #FFFBC9; opacity:1.00 " points="353.17,443.93 355.32,447.73 353.15,447.64 " />
<polygon style= "fill: #3F413F; opacity:1.00 " points="1267.17,452.43 1266.87,504.56 1189.70,508.79 " />
<polygon style= "fill: #FFFBC9; opacity:1.00 " points="353.17,443.93 355.34,444.02 355.32,447.73 " />
<polygon style= "fill: #9A9879; opacity:1.00 " points="1245.71,449.47 1247.91,449.41 1247.89,453.12 " />
<polygon style= "fill: #9A9879; opacity:1.00 " points="1245.71,449.47 1247.89,453.12 1245.68,453.18 " />
<polygon style= "fill: #FFFCCA; opacity:1.00 " points="355.34,444.02 357.55,447.82 355.32,447.73 " />
<polygon style= "fill: #C7C49D; opacity:1.00 " points="1238.76,449.46 1240.97,449.40 1245.71,449.47 " />
<polygon style= "fill: #FFFCCA; opacity:1.00 " points="355.34,444.02 357.57,444.10 357.55,447.82 " />
<polygon style= "fill: #9B987A; opacity:1.00 " points="1243.45,449.53 1245.71,449.47 1245.68,453.18 " />
<polygon style= "fill: #C7C49D; opacity:1.00 " points="1231.86,449.45 1234.07,449.39 1238.76,449.46 " />
<polygon style= "fill: #9B987A; opacity:1.00 " points="1243.45,449.53 1245.68,453.18 1243.42,453.24 " />
<polygon style= "fill: #FFFDCB; opacity:1.00 " points="357.57,444.10 359.83,447.91 357.55,447.82 " />
<polygon style= "fill: #FFFDCB; opacity:1.00 " points="357.57,444.10 359.85,444.19 359.83,447.91 " />
<polygon style= "fill: #9B997A; opacity:1.00 " points="1241.13,449.58 1243.45,449.53 1243.42,453.24 " />
<polygon style= "fill: #9B997A; opacity:1.00 " points="1241.13,449.58 1243.42,453.24 1241.11,453.30 " />
<polygon style= "fill: #FFFECC; opacity:1.00 " points="359.85,444.19 362.17,448.00 359.83,447.91 " />
<polygon style= "fill: #FFFECC; opacity:1.00 " points="359.85,444.19 362.19,444.27 362.17,448.00 " />
<polygon style= "fill: #9C997A; opacity:1.00 " points="1238.76,449.64 1241.13,449.58 1241.11,453.30 " />
<polygon style= "fill: #9C997A; opacity:1.00 " points="1238.76,449.64 1241.11,453.30 1238.74,453.37 " />
<polygon style= "fill: #FFFFCD; opacity:1.00 " points="362.19,444.27 364.56,448.09 362.17,448.00 " />
<polygon style= "fill: #FFFFCD; opacity:1.00 " points="362.19,444.27 364.58,444.36 364.56,448.09 " />
<polygon style= "fill: #9C9A7B; opacity:1.00 " points="1236.33,449.70 1238.76,449.64 1238.74,453.37 " />
<polygon style= "fill: #9C9A7B; opacity:1.00 " points="1236.33,449.70 1238.74,453.37 1236.31,453.43 " />
<polygon style= "fill: #FFFFCE; opacity:1.00 " points="364.58,444.36 367.01,448.18 364.56,448.09 " />
<polygon style= "fill: #C7C49D; opacity:1.00 " points="376.24,444.40 374.42,444.51 371.74,444.43 " />
<polygon style= "fill: #FFFFCE; opacity:1.00 " points="364.58,444.36 367.03,444.45 367.01,448.18 " />
<polygon style= "fill: #9C9A7B; opacity:1.00 " points="1233.85,449.75 1236.33,449.70 1236.31,453.43 " />
<polygon style= "fill: #C7C49D; opacity:1.00 " points="371.74,444.43 369.53,444.53 367.03,444.45 " />
<polygon style= "fill: #C7C49D; opacity:1.00 " points="371.74,444.43 374.42,444.51 369.53,444.53 " />
<polygon style= "fill: #9C9A7B; opacity:1.00 " points="1233.85,449.75 1236.31,453.43 1233.83,453.49 " />
<polygon style= "fill: #FFFFCF; opacity:1.00 " points="367.03,444.45 369.51,448.27 367.01,448.18 " />
<polygon style= "fill: #FFFFCF; opacity:1.00 " points="367.03,444.45 369.53,444.53 369.51,448.27 " />
<polygon style= "fill: #9D9A7B; opacity:1.00 " points="1231.31,449.80 1233.85,449.75 1233.83,453.49 " />
<polygon style= "fill: #9D9A7B; opacity:1.00 " points="1231.31,449.80 1233.83,453.49 1231.29,453.55 " />
<polygon style= "fill: #FFFFD0; opacity:1.00 " points="369.51,448.27 369.53,444.53 372.09,444.62 " />
<polygon style= "fill: #FFFFD0; opacity:1.00 " points="369.51,448.27 372.09,444.62 372.07,448.36 " />
<polygon style= "fill: #9D9B7B; opacity:1.00 " points="1228.72,449.86 1231.31,449.80 1231.29,453.55 " />
<polygon style= "fill: #9D9B7B; opacity:1.00 " points="1228.72,449.86 1231.29,453.55 1228.70,453.61 " />
<polygon style= "fill: #FFFFD1; opacity:1.00 " points="374.71,444.70 372.07,448.36 372.09,444.62 " />
<polygon style= "fill: #FFFFD1; opacity:1.00 " points="374.71,444.70 374.69,448.45 372.07,448.36 " />
<polygon style= "fill: #9E9B7C; opacity:1.00 " points="1226.07,449.91 1228.72,449.86 1228.70,453.61 " />
<polygon style= "fill: #9E9B7C; opacity:1.00 " points="1226.07,449.91 1228.70,453.61 1226.05,453.66 " />
<polygon style= "fill: #FFFFD3; opacity:1.00 " points="374.69,448.45 374.71,444.70 377.38,444.79 " />
<polygon style= "fill: #FFFFD3; opacity:1.00 " points="374.69,448.45 377.38,444.79 377.36,448.54 " />
<polygon style= "fill: #9E9B7C; opacity:1.00 " points="1223.37,449.96 1226.07,449.91 1226.05,453.66 " />
<polygon style= "fill: #9E9B7C; opacity:1.00 " points="1223.37,449.96 1226.05,453.66 1223.35,453.72 " />
<polygon style= "fill: #FFFFD4; opacity:1.00 " points="380.11,444.87 377.36,448.54 377.38,444.79 " />
<polygon style= "fill: #FFFFD4; opacity:1.00 " points="380.11,444.87 380.08,448.63 377.36,448.54 " />
<polygon style= "fill: #3F413F; opacity:1.00 " points="1267.50,396.67 1190.04,450.49 1190.36,396.01 " />
<polygon style= "fill: #9E9C7C; opacity:1.00 " points="1220.61,450.02 1223.37,449.96 1223.35,453.72 " />
<polygon style= "fill: #9E9C7C; opacity:1.00 " points="1220.61,450.02 1223.35,453.72 1220.59,453.78 " />
<polygon style= "fill: #FFFFD5; opacity:1.00 " points="380.08,448.63 380.11,444.87 382.89,444.96 " />
<polygon style= "fill: #FFFFD5; opacity:1.00 " points="380.08,448.63 382.89,444.96 382.86,448.72 " />
<polygon style= "fill: #9F9C7D; opacity:1.00 " points="1217.80,450.07 1220.61,450.02 1220.59,453.78 " />
<polygon style= "fill: #9F9C7D; opacity:1.00 " points="1217.80,450.07 1220.59,453.78 1217.78,453.84 " />
<polygon style= "fill: #FFFFD6; opacity:1.00 " points="382.86,448.72 382.89,444.96 385.72,445.04 " />
<polygon style= "fill: #FFFFD6; opacity:1.00 " points="382.86,448.72 385.72,445.04 385.70,448.81 " />
<polygon style= "fill: #9F9D7D; opacity:1.00 " points="1214.93,450.12 1217.80,450.07 1217.78,453.84 " />
<polygon style= "fill: #717572; opacity:1.00 " points="420.44,449.80 420.10,504.45 338.85,499.31 " />
<polygon style= "fill: #9F9D7D; opacity:1.00 " points="1214.93,450.12 1217.78,453.84 1214.91,453.89 " />
<polygon style= "fill: #FFFFD7; opacity:1.00 " points="385.70,448.81 385.72,445.04 388.61,445.13 " />
<polygon style= "fill: #FFFFD7; opacity:1.00 " points="385.70,448.81 388.61,445.13 388.59,448.90 " />
<polygon style= "fill: #9F9D7D; opacity:1.00 " points="1212.01,450.17 1214.93,450.12 1214.91,453.89 " />
<polygon style= "fill: #9F9D7D; opacity:1.00 " points="1212.01,450.17 1214.91,453.89 1211.99,453.95 " />
<polygon style= "fill: #FFFFD9; opacity:1.00 " points="388.59,448.90 388.61,445.13 391.55,445.21 " />
<polygon style= "fill: #FFFFD9; opacity:1.00 " points="388.59,448.90 391.55,445.21 391.53,448.99 " />
<polygon style= "fill: #A09D7E; opacity:1.00 " points="1209.03,450.22 1212.01,450.17 1211.99,453.95 " />
<polygon style= "fill: #A09D7E; opacity:1.00 " points="1209.03,450.22 1211.99,453.95 1209.01,454.00 " />
<polygon style= "fill: #FFFFDA; opacity:1.00 " points="394.55,445.30 391.53,448.99 391.55,445.21 " />
<polygon style= "fill: #FFFFDA; opacity:1.00 " points="394.55,445.30 394.53,449.08 391.53,448.99 " />
<polygon style= "fill: #A09E7E; opacity:1.00 " points="1206.00,450.26 1209.03,450.22 1209.01,454.00 " />
<polygon style= "fill: #A09E7E; opacity:1.00 " points="1206.00,450.26 1209.01,454.00 1205.98,454.05 " />
<polygon style= "fill: #FFFFDB; opacity:1.00 " points="394.53,449.08 394.55,445.30 397.61,445.38 " />
<polygon style= "fill: #FFFFDB; opacity:1.00 " points="394.53,449.08 397.61,445.38 397.58,449.17 " />
<polygon style= "fill: #A19E7E; opacity:1.00 " points="1202.92,450.31 1206.00,450.26 1205.98,454.05 " />
<polygon style= "fill: #A19E7E; opacity:1.00 " points="1202.92,450.31 1205.98,454.05 1202.89,454.11 " />
<polygon style= "fill: #FFFFDD; opacity:1.00 " points="397.58,449.17 397.61,445.38 400.71,445.47 " />
<polygon style= "fill: #FFFFDD; opacity:1.00 " points="397.58,449.17 400.71,445.47 400.69,449.26 " />
<polygon style= "fill: #C7C49D; opacity:1.00 " points="408.10,445.52 400.71,445.47 405.05,445.44 " />
<polygon style= "fill: #A2A080; opacity:1.00 " points="446.03,445.75 450.22,449.50 446.00,449.54 " />
<polygon style= "fill: #A19E7F; opacity:1.00 " points="1199.76,454.16 1202.92,450.31 1202.89,454.11 " />
<polygon style= "fill: #A19E7F; opacity:1.00 " points="1199.76,454.16 1199.78,450.36 1202.92,450.31 " />
<polygon style= "fill: #FFFFDE; opacity:1.00 " points="403.87,445.55 400.69,449.26 400.71,445.47 " />
<polygon style= "fill: #A2A080; opacity:1.00 " points="441.79,445.78 446.03,445.75 446.00,449.54 " />
<polygon style= "fill: #FFFFDE; opacity:1.00 " points="403.87,445.55 403.85,449.35 400.69,449.26 " />
<polygon style= "fill: #A2A080; opacity:1.00 " points="441.79,445.78 446.00,449.54 441.77,449.59 " />
<polygon style= "fill: #A19F7F; opacity:1.00 " points="1199.78,450.36 1199.76,454.16 1196.56,454.21 " />
<polygon style= "fill: #A19F7F; opacity:1.00 " points="1199.78,450.36 1196.56,454.21 1196.59,450.40 " />
<polygon style= "fill: #FFFFDF; opacity:1.00 " points="407.08,445.64 403.85,449.35 403.87,445.55 " />
<polygon style= "fill: #FFFFDF; opacity:1.00 " points="407.08,445.64 407.06,449.44 403.85,449.35 " />
<polygon style= "fill: #A29F7F; opacity:1.00 " points="1193.32,454.26 1196.59,450.40 1196.56,454.21 " />
<polygon style= "fill: #C7C49D; opacity:1.00 " points="1188.92,450.36 1193.34,450.45 1190.04,450.49 " />
<polygon style= "fill: #A29F7F; opacity:1.00 " points="1193.32,454.26 1193.34,450.45 1196.59,450.40 " />
<polygon style= "fill: #FFFFE0; opacity:1.00 " points="410.35,445.72 407.06,449.44 407.08,445.64 " />
<polygon style= "fill: #FFFFE0; opacity:1.00 " points="410.35,445.72 410.33,449.53 407.06,449.44 " />
<polygon style= "fill: #A2A07F; opacity:1.00 " points="1193.34,450.45 1193.32,454.26 1190.02,454.31 " />
<polygon style= "fill: #A2A07F; opacity:1.00 " points="1193.34,450.45 1190.02,454.31 1190.04,450.49 " />
<polygon style= "fill: #FFFFE2; opacity:1.00 " points="410.33,449.53 410.35,445.72 413.67,445.81 " />
<polygon style= "fill: #FFFFE2; opacity:1.00 " points="410.33,449.53 413.67,445.81 413.65,449.62 " />
<polygon style= "fill: #474A48; opacity:1.00 " points="1190.36,396.01 1190.04,450.49 1062.38,451.44 " />
<polygon style= "fill: #474A48; opacity:1.00 " points="1190.02,454.31 1189.70,508.79 1062.03,511.74 " />
<polygon style= "fill: #474A48; opacity:1.00 " points="1190.02,454.31 1062.03,511.74 1062.36,455.39 " />
<polygon style= "fill: #A3A080; opacity:1.00 " points="1186.67,454.36 1190.04,450.49 1190.02,454.31 " />
<polygon style= "fill: #A3A080; opacity:1.00 " points="1186.67,454.36 1186.69,450.54 1190.04,450.49 " />
<polygon style= "fill: #FFFFE3; opacity:1.00 " points="413.65,449.62 413.67,445.81 417.04,445.89 " />
<polygon style= "fill: #FFFFE3; opacity:1.00 " points="413.65,449.62 417.04,445.89 417.02,449.71 " />
<polygon style= "fill: #A3A080; opacity:1.00 " points="1183.26,454.40 1186.69,450.54 1186.67,454.36 " />
<polygon style= "fill: #A3A080; opacity:1.00 " points="1183.26,454.40 1183.29,450.58 1186.69,450.54 " />
<polygon style= "fill: #FFFFE4; opacity:1.00 " points="417.02,449.71 417.04,445.89 420.47,445.97 " />
<polygon style= "fill: #FFFFE4; opacity:1.00 " points="417.02,449.71 420.47,445.97 420.44,449.80 " />
<polygon style= "fill: #A3A181; opacity:1.00 " points="1179.81,454.45 1183.29,450.58 1183.26,454.40 " />
<polygon style= "fill: #A3A181; opacity:1.00 " points="1179.81,454.45 1179.83,450.62 1183.29,450.58 " />
<polygon style= "fill: #8F9390; opacity:1.00 " points="551.95,391.98 551.60,448.45 420.47,445.97 " />
<polygon style= "fill: #FFFFE5; opacity:1.00 " points="423.95,446.06 420.44,449.80 420.47,445.97 " />
<polygon style= "fill: #8F9390; opacity:1.00 " points="551.58,452.40 420.10,504.45 420.44,449.80 " />
<polygon style= "fill: #FFFFE5; opacity:1.00 " points="423.95,446.06 423.92,449.89 420.44,449.80 " />
<polygon style= "fill: #A4A181; opacity:1.00 " points="1179.83,450.62 1179.81,454.45 1176.30,454.50 " />
<polygon style= "fill: #A4A181; opacity:1.00 " points="1179.83,450.62 1176.30,454.50 1176.32,450.66 " />
<polygon style= "fill: #FFFFE7; opacity:1.00 " points="423.92,449.89 423.95,446.06 427.47,446.14 " />
<polygon style= "fill: #FFFFE7; opacity:1.00 " points="423.92,449.89 427.47,446.14 427.45,449.98 " />
<polygon style= "fill: #A4A281; opacity:1.00 " points="1176.32,450.66 1176.30,454.50 1172.74,454.54 " />
<polygon style= "fill: #A4A281; opacity:1.00 " points="1176.32,450.66 1172.74,454.54 1172.76,450.70 " />
<polygon style= "fill: #FFFFE8; opacity:1.00 " points="431.05,446.23 427.45,449.98 427.47,446.14 " />
<polygon style= "fill: #FFFFE8; opacity:1.00 " points="431.05,446.23 431.03,450.06 427.45,449.98 " />
<polygon style= "fill: #A5A282; opacity:1.00 " points="1172.76,450.70 1172.74,454.54 1169.13,454.59 " />
<polygon style= "fill: #A5A282; opacity:1.00 " points="1172.76,450.70 1169.13,454.59 1169.15,450.74 " />
<polygon style= "fill: #FFFFE9; opacity:1.00 " points="431.03,450.06 431.05,446.23 434.69,446.31 " />
<polygon style= "fill: #FFFFE9; opacity:1.00 " points="431.03,450.06 434.69,446.31 434.66,450.15 " />
<polygon style= "fill: #A5A382; opacity:1.00 " points="1165.47,454.63 1169.15,450.74 1169.13,454.59 " />
<polygon style= "fill: #A5A382; opacity:1.00 " points="1165.47,454.63 1165.49,450.78 1169.15,450.74 " />
<polygon style= "fill: #FFFFEA; opacity:1.00 " points="434.69,446.31 438.34,450.24 434.66,450.15 " />
<polygon style= "fill: #FFFFEA; opacity:1.00 " points="434.69,446.31 438.37,446.39 438.34,450.24 " />
<polygon style= "fill: #A6A383; opacity:1.00 " points="1161.75,454.67 1165.49,450.78 1165.47,454.63 " />
<polygon style= "fill: #A6A383; opacity:1.00 " points="1161.75,454.67 1161.78,450.82 1165.49,450.78 " />
<polygon style= "fill: #FFFFEB; opacity:1.00 " points="438.37,446.39 442.08,450.33 438.34,450.24 " />
<polygon style= "fill: #FFFFEB; opacity:1.00 " points="438.37,446.39 442.10,446.47 442.08,450.33 " />
<polygon style= "fill: #A6A483; opacity:1.00 " points="1161.78,450.82 1161.75,454.67 1157.99,454.71 " />
<polygon style= "fill: #A6A483; opacity:1.00 " points="1161.78,450.82 1157.99,454.71 1158.01,450.86 " />
<polygon style= "fill: #FFFFEC; opacity:1.00 " points="442.10,446.47 445.86,450.42 442.08,450.33 " />
<polygon style= "fill: #FFFFEC; opacity:1.00 " points="442.10,446.47 445.88,446.56 445.86,450.42 " />
<polygon style= "fill: #A7A483; opacity:1.00 " points="1154.18,454.75 1158.01,450.86 1157.99,454.71 " />
<polygon style= "fill: #A7A483; opacity:1.00 " points="1154.18,454.75 1154.20,450.89 1158.01,450.86 " />
<polygon style= "fill: #FFFFED; opacity:1.00 " points="445.88,446.56 449.69,450.50 445.86,450.42 " />
<polygon style= "fill: #FFFFED; opacity:1.00 " points="445.88,446.56 449.72,446.64 449.69,450.50 " />
<polygon style= "fill: #A7A584; opacity:1.00 " points="1150.32,454.79 1154.20,450.89 1154.18,454.75 " />
<polygon style= "fill: #A7A584; opacity:1.00 " points="1150.32,454.79 1150.34,450.93 1154.20,450.89 " />
<polygon style= "fill: #FFFFED; opacity:1.00 " points="449.72,446.64 453.58,450.59 449.69,450.50 " />
<polygon style= "fill: #FFFFED; opacity:1.00 " points="449.72,446.64 453.60,446.72 453.58,450.59 " />
<polygon style= "fill: #A8A585; opacity:1.00 " points="1146.40,454.83 1150.34,450.93 1150.32,454.79 " />
<polygon style= "fill: #8F9390; opacity:1.00 " points="551.95,391.98 420.47,445.97 420.81,391.33 " />
<polygon style= "fill: #A8A585; opacity:1.00 " points="1146.40,454.83 1146.43,450.96 1150.34,450.93 " />
<polygon style= "fill: #FFFFEE; opacity:1.00 " points="453.60,446.72 457.51,450.67 453.58,450.59 " />
<polygon style= "fill: #FFFFEE; opacity:1.00 " points="453.60,446.72 457.53,446.80 457.51,450.67 " />
<polygon style= "fill: #A9A685; opacity:1.00 " points="1142.44,454.87 1146.43,450.96 1146.40,454.83 " />
<polygon style= "fill: #A9A685; opacity:1.00 " points="1142.44,454.87 1142.47,451.00 1146.43,450.96 " />
<polygon style= "fill: #FFFFEF; opacity:1.00 " points="457.53,446.80 461.49,450.76 457.51,450.67 " />
<polygon style= "fill: #FFFFEF; opacity:1.00 " points="457.53,446.80 461.51,446.88 461.49,450.76 " />
<polygon style= "fill: #A9A786; opacity:1.00 " points="1142.47,451.00 1142.44,454.87 1138.43,454.91 " />
<polygon style= "fill: #A9A786; opacity:1.00 " points="1142.47,451.00 1138.43,454.91 1138.46,451.03 " />
<polygon style= "fill: #FFFFEF; opacity:1.00 " points="461.51,446.88 465.52,450.85 461.49,450.76 " />
<polygon style= "fill: #FFFFEF; opacity:1.00 " points="461.51,446.88 465.54,446.97 465.52,450.85 " />
<polygon style= "fill: #AAA786; opacity:1.00 " points="1134.38,454.94 1138.46,451.03 1138.43,454.91 " />
<polygon style= "fill: #AAA786; opacity:1.00 " points="1134.38,454.94 1134.40,451.06 1138.46,451.03 " />
<polygon style= "fill: #FFFFF0; opacity:1.00 " points="465.54,446.97 469.59,450.93 465.52,450.85 " />
<polygon style= "fill: #FFFFF0; opacity:1.00 " points="465.54,446.97 469.62,447.05 469.59,450.93 " />
<polygon style= "fill: #ABA887; opacity:1.00 " points="1134.40,451.06 1134.38,454.94 1130.27,454.98 " />
<polygon style= "fill: #ABA887; opacity:1.00 " points="1134.40,451.06 1130.27,454.98 1130.29,451.09 " />
<polygon style= "fill: #FFFFF0; opacity:1.00 " points="469.62,447.05 473.72,451.02 469.59,450.93 " />
<polygon style= "fill: #FFFFF0; opacity:1.00 " points="469.62,447.05 473.74,447.13 473.72,451.02 " />
<polygon style= "fill: #ACA988; opacity:1.00 " points="1126.12,455.01 1130.29,451.09 1130.27,454.98 " />
<polygon style= "fill: #ACA988; opacity:1.00 " points="1126.12,455.01 1126.14,451.12 1130.29,451.09 " />
<polygon style= "fill: #FFFFF0; opacity:1.00 " points="473.74,447.13 477.89,451.10 473.72,451.02 " />
<polygon style= "fill: #FFFFF0; opacity:1.00 " points="473.74,447.13 477.91,447.21 477.89,451.10 " />
<polygon style= "fill: #ADAA89; opacity:1.00 " points="1121.94,451.15 1126.14,451.12 1126.12,455.01 " />
<polygon style= "fill: #ADAA89; opacity:1.00 " points="1121.94,451.15 1126.12,455.01 1121.92,455.05 " />
<polygon style= "fill: #FFFFF0; opacity:1.00 " points="477.91,447.21 482.11,451.18 477.89,451.10 " />
<polygon style= "fill: #FFFFF0; opacity:1.00 " points="477.91,447.21 482.13,447.29 482.11,451.18 " />
<polygon style= "fill: #ADAB89; opacity:1.00 " points="1117.70,451.18 1121.94,451.15 1121.92,455.05 " />
<polygon style= "fill: #ADAB89; opacity:1.00 " points="1117.70,451.18 1121.92,455.05 1117.68,455.08 " />
<polygon style= "fill: #FFFFF1; opacity:1.00 " points="482.13,447.29 486.37,451.27 482.11,451.18 " />
<polygon style= "fill: #FFFFF1; opacity:1.00 " points="482.13,447.29 486.39,447.37 486.37,451.27 " />
<polygon style= "fill: #AEAC8A; opacity:1.00 " points="1113.41,451.21 1117.70,451.18 1117.68,455.08 " />
<polygon style= "fill: #474A48; opacity:1.00 " points="1190.36,396.01 1062.38,451.44 1062.71,395.09 " />
<polygon style= "fill: #AEAC8A; opacity:1.00 " points="1113.41,451.21 1117.68,455.08 1113.38,455.11 " />
<polygon style= "fill: #FFFFF1; opacity:1.00 " points="486.39,447.37 490.68,451.35 486.37,451.27 " />
<polygon style= "fill: #C7C49D; opacity:1.00 " points="501.24,447.41 502.56,447.54 498.15,447.47 " />
<polygon style= "fill: #FFFFF1; opacity:1.00 " points="486.39,447.37 490.70,447.45 490.68,451.35 " />
<polygon style= "fill: #C7C49D; opacity:1.00 " points="493.80,447.39 498.15,447.47 495.06,447.52 " />
<polygon style= "fill: #C7C49D; opacity:1.00 " points="493.80,447.39 495.06,447.52 490.70,447.45 " />
<polygon style= "fill: #AFAD8B; opacity:1.00 " points="1109.07,451.23 1113.41,451.21 1113.38,455.11 " />
<polygon style= "fill: #AFAD8B; opacity:1.00 " points="1109.07,451.23 1113.38,455.11 1109.05,455.14 " />
<polygon style= "fill: #FFFFF0; opacity:1.00 " points="490.70,447.45 495.03,451.43 490.68,451.35 " />
<polygon style= "fill: #FFFFF0; opacity:1.00 " points="490.70,447.45 495.06,447.52 495.03,451.43 " />
<polygon style= "fill: #B1AE8C; opacity:1.00 " points="1104.69,451.26 1109.07,451.23 1109.05,455.14 " />
<polygon style= "fill: #B1AE8C; opacity:1.00 " points="1104.69,451.26 1109.05,455.14 1104.67,455.17 " />
<polygon style= "fill: #FFFFF0; opacity:1.00 " points="495.06,447.52 499.43,451.51 495.03,451.43 " />
<polygon style= "fill: #8F9390; opacity:1.00 " points="551.58,452.40 551.23,508.87 420.10,504.45 " />
<polygon style= "fill: #FFFFF0; opacity:1.00 " points="495.06,447.52 499.46,447.60 499.43,451.51 " />
<polygon style= "fill: #B2AF8D; opacity:1.00 " points="1100.27,451.28 1104.69,451.26 1104.67,455.17 " />
<polygon style= "fill: #B2AF8D; opacity:1.00 " points="1100.27,451.28 1104.67,455.17 1100.24,455.20 " />
<polygon style= "fill: #FFFFF0; opacity:1.00 " points="499.46,447.60 503.87,451.60 499.43,451.51 " />
<polygon style= "fill: #FFFFF0; opacity:1.00 " points="499.46,447.60 503.90,447.68 503.87,451.60 " />
<polygon style= "fill: #B3B08E; opacity:1.00 " points="1095.80,451.30 1100.27,451.28 1100.24,455.20 " />
<polygon style= "fill: #B3B08E; opacity:1.00 " points="1095.80,451.30 1100.24,455.20 1095.77,455.22 " />
<polygon style= "fill: #FFFFF0; opacity:1.00 " points="503.90,447.68 508.36,451.68 503.87,451.60 " />
<polygon style= "fill: #FFFFF0; opacity:1.00 " points="503.90,447.68 508.38,447.76 508.36,451.68 " />
<polygon style= "fill: #B4B190; opacity:1.00 " points="1091.28,451.33 1095.80,451.30 1095.77,455.22 " />
<polygon style= "fill: #B4B190; opacity:1.00 " points="1091.28,451.33 1095.77,455.22 1091.26,455.25 " />
<polygon style= "fill: #FFFFEF; opacity:1.00 " points="508.38,447.76 512.89,451.76 508.36,451.68 " />
<polygon style= "fill: #FFFFEF; opacity:1.00 " points="508.38,447.76 512.91,447.83 512.89,451.76 " />
<polygon style= "fill: #B6B391; opacity:1.00 " points="1086.73,451.35 1091.28,451.33 1091.26,455.25 " />
<polygon style= "fill: #B6B391; opacity:1.00 " points="1086.73,451.35 1091.26,455.25 1086.71,455.27 " />
<polygon style= "fill: #FFFFEF; opacity:1.00 " points="512.91,447.83 517.46,451.84 512.89,451.76 " />
<polygon style= "fill: #FFFFEF; opacity:1.00 " points="512.91,447.83 517.48,447.91 517.46,451.84 " />
<polygon style= "fill: #B7B492; opacity:1.00 " points="1082.13,451.37 1086.73,451.35 1086.71,455.27 " />
<polygon style= "fill: #EAE6B8; opacity:1.00 " points="935.78,450.40 937.53,450.50 937.51,454.43 " />
<polygon style= "fill: #B7B492; opacity:1.00 " points="1082.13,451.37 1086.71,455.27 1082.11,455.30 " />
<polygon style= "fill: #FFFFEE; opacity:1.00 " points="517.48,447.91 522.07,451.92 517.46,451.84 " />
<polygon style= "fill: #FFFFEE; opacity:1.00 " points="517.48,447.91 522.10,447.99 522.07,451.92 " />
<polygon style= "fill: #B8B694; opacity:1.00 " points="1077.50,451.39 1082.13,451.37 1082.11,455.30 " />
<polygon style= "fill: #B8B694; opacity:1.00 " points="1077.50,451.39 1082.11,455.30 1077.47,455.32 " />
<polygon style= "fill: #FFFFED; opacity:1.00 " points="522.10,447.99 526.73,452.00 522.07,451.92 " />
<polygon style= "fill: #FFFFED; opacity:1.00 " points="522.10,447.99 526.75,448.06 526.73,452.00 " />
<polygon style= "fill: #BAB795; opacity:1.00 " points="1072.82,451.41 1077.50,451.39 1077.47,455.32 " />
<polygon style= "fill: #EAE6B8; opacity:1.00 " points="937.53,450.50 939.29,450.61 939.26,454.54 " />
<polygon style= "fill: #BAB795; opacity:1.00 " points="1072.82,451.41 1077.47,455.32 1072.79,455.34 " />
<polygon style= "fill: #FFFFEC; opacity:1.00 " points="526.75,448.06 531.42,452.08 526.73,452.00 " />
<polygon style= "fill: #FFFFEC; opacity:1.00 " points="526.75,448.06 531.45,448.14 531.42,452.08 " />
<polygon style= "fill: #BCB997; opacity:1.00 " points="1068.10,451.42 1072.82,451.41 1072.79,455.34 " />
<polygon style= "fill: #BCB997; opacity:1.00 " points="1068.10,451.42 1072.79,455.34 1068.07,455.36 " />
<polygon style= "fill: #FFFFEB; opacity:1.00 " points="531.45,448.14 536.16,452.15 531.42,452.08 " />
<polygon style= "fill: #EAE6B8; opacity:1.00 " points="939.29,450.61 941.03,454.65 939.26,454.54 " />
<polygon style= "fill: #FFFFEB; opacity:1.00 " points="531.45,448.14 536.18,448.21 536.16,452.15 " />
<polygon style= "fill: #BDBB98; opacity:1.00 " points="1063.34,451.44 1068.10,451.42 1068.07,455.36 " />
<polygon style= "fill: #EAE6B8; opacity:1.00 " points="939.29,450.61 941.05,450.71 941.03,454.65 " />
<polygon style= "fill: #EAE6B8; opacity:1.00 " points="941.05,450.71 942.82,450.81 942.80,454.76 " />
<polygon style= "fill: #EAE6B8; opacity:1.00 " points="942.82,450.81 944.60,450.91 944.57,454.87 " />
<polygon style= "fill: #EAE6B8; opacity:1.00 " points="944.60,450.91 946.38,451.02 946.36,454.98 " />
<polygon style= "fill: #EAE6B8; opacity:1.00 " points="946.38,451.02 948.15,455.09 946.36,454.98 " />
<polygon style= "fill: #EAE6B8; opacity:1.00 " points="946.38,451.02 948.17,451.12 948.15,455.09 " />
<polygon style= "fill: #EAE6B8; opacity:1.00 " points="948.17,451.12 949.97,451.22 949.94,455.20 " />
<polygon style= "fill: #EAE6B8; opacity:1.00 " points="949.97,451.22 951.77,451.33 951.74,455.32 " />
<polygon style= "fill: #EAE6B8; opacity:1.00 " points="951.77,451.33 953.40,451.42 953.38,455.04 " />
<polygon style= "fill: #757876; opacity:1.00 " points="1062.71,395.09 1062.38,451.44 897.59,451.41 " />
<polygon style= "fill: #C7C49D; opacity:1.00 " points="1055.46,451.36 1063.34,451.44 1058.54,451.45 " />
<polygon style= "fill: #BDBB98; opacity:1.00 " points="1063.34,451.44 1068.07,455.36 1063.31,455.38 " />
<polygon style= "fill: #FFFFEB; opacity:1.00 " points="536.18,448.21 540.93,452.23 536.16,452.15 " />
<polygon style= "fill: #FFFFEB; opacity:1.00 " points="536.18,448.21 540.96,448.28 540.93,452.23 " />
<polygon style= "fill: #BFBC9A; opacity:1.00 " points="1058.54,451.45 1063.34,451.44 1063.31,455.38 " />
<polygon style= "fill: #C7C49D; opacity:1.00 " points="1050.68,451.37 1058.54,451.45 1053.70,451.47 " />
<polygon style= "fill: #757876; opacity:1.00 " points="1062.36,455.39 897.22,512.84 897.56,455.43 " />
<polygon style= "fill: #BFBC9A; opacity:1.00 " points="1058.54,451.45 1063.31,455.38 1058.52,455.40 " />
<polygon style= "fill: #FFFFEA; opacity:1.00 " points="540.96,448.28 545.75,452.31 540.93,452.23 " />
<polygon style= "fill: #FFFFEA; opacity:1.00 " points="540.96,448.28 545.77,448.36 545.75,452.31 " />
<polygon style= "fill: #C1BE9C; opacity:1.00 " points="1053.70,451.47 1058.54,451.45 1058.52,455.40 " />
<polygon style= "fill: #C7C49D; opacity:1.00 " points="1045.89,451.39 1053.70,451.47 1048.83,451.48 " />
<polygon style= "fill: #C1BE9C; opacity:1.00 " points="1053.70,451.47 1058.52,455.40 1053.68,455.42 " />
<polygon style= "fill: #FFFFE9; opacity:1.00 " points="545.77,448.36 550.60,452.38 545.75,452.31 " />
<polygon style= "fill: #FFFFE9; opacity:1.00 " points="545.77,448.36 550.62,448.43 550.60,452.38 " />
<polygon style= "fill: #C3C09D; opacity:1.00 " points="1048.83,451.48 1053.70,451.47 1053.68,455.42 " />
<polygon style= "fill: #C7C49D; opacity:1.00 " points="1041.02,451.40 1048.83,451.48 1043.92,451.49 " />
<polygon style= "fill: #C3C09D; opacity:1.00 " points="1048.83,451.48 1053.68,455.42 1048.80,455.44 " />
<polygon style= "fill: #7C807D; opacity:1.00 " points="718.38,454.39 551.23,508.87 551.58,452.40 " />
<polygon style= "fill: #FFFFE7; opacity:1.00 " points="550.62,448.43 555.49,452.46 550.60,452.38 " />
<polygon style= "fill: #7C807D; opacity:1.00 " points="718.75,392.92 551.60,448.45 551.95,391.98 " />
<polygon style= "fill: #7C807D; opacity:1.00 " points="718.75,392.92 718.40,450.36 551.60,448.45 " />
<polygon style= "fill: #FFFFE7; opacity:1.00 " points="550.62,448.43 555.51,448.50 555.49,452.46 " />
<polygon style= "fill: #C5C29F; opacity:1.00 " points="1043.92,451.49 1048.83,451.48 1048.80,455.44 " />
<polygon style= "fill: #C7C49D; opacity:1.00 " points="1036.12,451.41 1043.92,451.49 1038.97,451.50 " />
<polygon style= "fill: #C5C29F; opacity:1.00 " points="1043.92,451.49 1048.80,455.44 1043.89,455.45 " />
<polygon style= "fill: #FFFFE6; opacity:1.00 " points="555.51,448.50 560.42,452.53 555.49,452.46 " />
<polygon style= "fill: #C7C49D; opacity:1.00 " points="1031.19,451.42 1036.12,451.41 1038.97,451.50 " />
<polygon style= "fill: #FFFFE6; opacity:1.00 " points="555.51,448.50 560.44,448.57 560.42,452.53 " />
<polygon style= "fill: #C7C4A1; opacity:1.00 " points="1038.97,451.50 1043.92,451.49 1043.89,455.45 " />
<polygon style= "fill: #C7C49D; opacity:1.00 " points="1031.19,451.42 1038.97,451.50 1033.98,451.51 " />
<polygon style= "fill: #C7C4A1; opacity:1.00 " points="1038.97,451.50 1043.89,455.45 1038.94,455.46 " />
<polygon style= "fill: #FFFFE5; opacity:1.00 " points="560.44,448.57 565.38,452.61 560.42,452.53 " />
<polygon style= "fill: #C7C49D; opacity:1.00 " points="1026.20,451.43 1031.19,451.42 1033.98,451.51 " />
<polygon style= "fill: #FFFFE5; opacity:1.00 " points="560.44,448.57 565.40,448.65 565.38,452.61 " />
<polygon style= "fill: #C9C6A3; opacity:1.00 " points="1033.98,451.51 1038.97,451.50 1038.94,455.46 " />
<polygon style= "fill: #C7C49D; opacity:1.00 " points="1026.20,451.43 1033.98,451.51 1028.96,451.52 " />
<polygon style= "fill: #C9C6A3; opacity:1.00 " points="1033.98,451.51 1038.94,455.46 1033.96,455.48 " />
<polygon style= "fill: #FFFFE4; opacity:1.00 " points="565.40,448.65 570.38,452.68 565.38,452.61 " />
<polygon style= "fill: #C7C49D; opacity:1.00 " points="1021.20,451.43 1026.20,451.43 1028.96,451.52 " />
<polygon style= "fill: #FFFFE4; opacity:1.00 " points="565.40,448.65 570.40,448.72 570.38,452.68 " />
<polygon style= "fill: #CBC8A5; opacity:1.00 " points="1028.96,451.52 1033.98,451.51 1033.96,455.48 " />
<polygon style= "fill: #C7C49D; opacity:1.00 " points="1021.20,451.43 1028.96,451.52 1023.91,451.53 " />
<polygon style= "fill: #CBC8A5; opacity:1.00 " points="1028.96,451.52 1033.96,455.48 1028.94,455.49 " />
<polygon style= "fill: #C7C49D; opacity:1.00 " points="1008.68,451.34 1016.19,451.44 1011.16,451.44 " />
<polygon style= "fill: #FFFFE3; opacity:1.00 " points="570.38,452.68 570.40,448.72 575.44,448.79 " />
<polygon style= "fill: #C7C49D; opacity:1.00 " points="1016.19,451.44 1021.20,451.43 1023.91,451.53 " />
<polygon style= "fill: #FFFFE3; opacity:1.00 " points="570.38,452.68 575.44,448.79 575.41,452.75 " />
<polygon style= "fill: #CDCAA7; opacity:1.00 " points="1023.91,451.53 1028.96,451.52 1028.94,455.49 " />
<polygon style= "fill: #C7C49D; opacity:1.00 " points="1003.78,451.35 1011.16,451.44 1006.08,451.45 " />
<polygon style= "fill: #CDCAA7; opacity:1.00 " points="1023.91,451.53 1028.94,455.49 1023.89,455.50 " />
<polygon style= "fill: #FFFFE2; opacity:1.00 " points="580.50,448.85 575.41,452.75 575.44,448.79 " />
<polygon style= "fill: #757876; opacity:1.00 " points="1062.36,455.39 1062.03,511.74 897.22,512.84 " />
<polygon style= "fill: #FFFFE2; opacity:1.00 " points="580.50,448.85 580.48,452.83 575.41,452.75 " />
<polygon style= "fill: #CFCDA9; opacity:1.00 " points="1018.82,451.54 1023.91,451.53 1023.89,455.50 " />
<polygon style= "fill: #C7C49D; opacity:1.00 " points="998.77,451.35 1006.08,451.45 1001.00,451.45 " />
<polygon style= "fill: #CFCDA9; opacity:1.00 " points="1018.82,451.54 1023.89,455.50 1018.80,455.51 " />
<polygon style= "fill: #FFFFE0; opacity:1.00 " points="580.48,452.83 580.50,448.85 585.61,448.92 " />
<polygon style= "fill: #FFFFE0; opacity:1.00 " points="580.48,452.83 585.61,448.92 585.58,452.90 " />
<polygon style= "fill: #C7C49D; opacity:1.00 " points="993.79,451.35 1001.00,451.45 995.88,451.45 " />
<polygon style= "fill: #D2CFAB; opacity:1.00 " points="1013.70,451.54 1018.82,451.54 1018.80,455.51 " />
<polygon style= "fill: #D2CFAB; opacity:1.00 " points="1013.70,451.54 1018.80,455.51 1013.68,455.52 " />
<polygon style= "fill: #FFFFDF; opacity:1.00 " points="590.74,448.99 585.58,452.90 585.61,448.92 " />
<polygon style= "fill: #FFFFDF; opacity:1.00 " points="590.74,448.99 590.72,452.97 585.58,452.90 " />
<polygon style= "fill: #C7C49D; opacity:1.00 " points="988.73,451.35 995.88,451.45 990.74,451.45 " />
<polygon style= "fill: #D4D1AE; opacity:1.00 " points="1008.55,451.55 1013.70,451.54 1013.68,455.52 " />
<polygon style= "fill: #D4D1AE; opacity:1.00 " points="1008.55,451.55 1013.68,455.52 1008.52,455.53 " />
<polygon style= "fill: #FFFFDE; opacity:1.00 " points="590.72,452.97 590.74,448.99 595.91,449.06 " />
<polygon style= "fill: #C7C49D; opacity:1.00 " points="983.49,451.35 990.74,451.45 985.50,451.45 " />
<polygon style= "fill: #FFFFDE; opacity:1.00 " points="590.72,452.97 595.91,449.06 595.88,453.04 " />
<polygon style= "fill: #D6D3B0; opacity:1.00 " points="1003.36,451.55 1008.55,451.55 1008.52,455.53 " />
<polygon style= "fill: #D6D3B0; opacity:1.00 " points="1003.36,451.55 1008.52,455.53 1003.34,455.53 " />
<polygon style= "fill: #FFFFDD; opacity:1.00 " points="595.88,453.04 595.91,449.06 601.10,449.12 " />
<polygon style= "fill: #C7C49D; opacity:1.00 " points="978.28,451.34 985.50,451.45 980.24,451.45 " />
<polygon style= "fill: #FFFFDD; opacity:1.00 " points="595.88,453.04 601.10,449.12 601.08,453.11 " />
<polygon style= "fill: #D9D6B2; opacity:1.00 " points="998.14,451.56 1003.36,451.55 1003.34,455.53 " />
<polygon style= "fill: #D9D6B2; opacity:1.00 " points="998.14,451.56 1003.34,455.53 998.12,455.54 " />
<polygon style= "fill: #C7C49D; opacity:1.00 " points="973.04,451.34 980.24,451.45 974.98,451.45 " />
<polygon style= "fill: #FFFFDC; opacity:1.00 " points="601.08,453.11 601.10,449.12 606.33,449.19 " />
<polygon style= "fill: #FFFFDC; opacity:1.00 " points="601.08,453.11 606.33,449.19 606.31,453.17 " />
<polygon style= "fill: #C7C49D; opacity:1.00 " points="969.69,451.45 973.04,451.34 974.98,451.45 " />
<polygon style= "fill: #DBD8B4; opacity:1.00 " points="992.90,451.56 998.14,451.56 998.12,455.54 " />
<polygon style= "fill: #DBD8B4; opacity:1.00 " points="992.90,451.56 998.12,455.54 992.87,455.54 " />
<polygon style= "fill: #FFFFDB; opacity:1.00 " points="606.31,453.17 606.33,449.19 611.59,449.26 " />
<polygon style= "fill: #FFFFDB; opacity:1.00 " points="606.31,453.17 611.59,449.26 611.57,453.24 " />
<polygon style= "fill: #C7C49D; opacity:1.00 " points="967.78,451.34 969.69,451.45 964.37,451.44 " />
<polygon style= "fill: #DEDBB7; opacity:1.00 " points="987.62,451.56 992.90,451.56 992.87,455.54 " />
<polygon style= "fill: #DEDBB7; opacity:1.00 " points="987.62,451.56 992.87,455.54 987.60,455.55 " />
<polygon style= "fill: #C7C49D; opacity:1.00 " points="647.01,449.46 640.07,449.49 641.71,449.41 " />
<polygon style= "fill: #FFFFDA; opacity:1.00 " points="616.88,449.32 611.57,453.24 611.59,449.26 " />
<polygon style= "fill: #FFFFDA; opacity:1.00 " points="616.88,449.32 616.85,453.31 611.57,453.24 " />
<polygon style= "fill: #C7C49D; opacity:1.00 " points="959.00,451.44 962.49,451.34 964.37,451.44 " />
<polygon style= "fill: #E1DEB9; opacity:1.00 " points="982.32,451.56 987.62,451.56 987.60,455.55 " />
<polygon style= "fill: #E1DEB9; opacity:1.00 " points="982.32,451.56 987.60,455.55 982.29,455.55 " />
<polygon style= "fill: #FFFFD9; opacity:1.00 " points="616.85,453.31 616.88,449.32 622.19,449.38 " />
<polygon style= "fill: #FFFFD9; opacity:1.00 " points="616.85,453.31 622.19,449.38 622.17,453.38 " />
<polygon style= "fill: #E3E0BC; opacity:1.00 " points="976.99,451.56 982.32,451.56 982.29,455.55 " />
<polygon style= "fill: #EAE6B8; opacity:1.00 " points="953.40,451.42 953.58,451.43 953.55,455.43 " />
<polygon style= "fill: #EAE6B8; opacity:1.00 " points="953.38,455.04 953.40,451.42 953.55,455.43 " />
<polygon style= "fill: #E3E0BC; opacity:1.00 " points="976.99,451.56 982.29,455.55 976.96,455.55 " />
<polygon style= "fill: #C7C49D; opacity:1.00 " points="640.07,449.49 632.91,449.51 634.73,449.43 " />
<polygon style= "fill: #FFFFD8; opacity:1.00 " points="622.17,453.38 622.19,449.38 627.54,449.45 " />
<polygon style= "fill: #C7C49D; opacity:1.00 " points="634.73,449.43 632.91,449.51 627.54,449.45 " />
<polygon style= "fill: #FFFFD8; opacity:1.00 " points="622.17,453.38 627.54,449.45 627.51,453.44 " />
<polygon style= "fill: #E6E3BF; opacity:1.00 " points="971.60,455.55 976.99,451.56 976.96,455.55 " />
<polygon style= "fill: #757876; opacity:1.00 " points="1062.71,395.09 897.59,451.41 897.93,394.01 " />
<polygon style= "fill: #E6E3BF; opacity:1.00 " points="971.60,455.55 971.63,451.55 976.99,451.56 " />
<polygon style= "fill: #FFFFD8; opacity:1.00 " points="632.91,449.51 627.51,453.44 627.54,449.45 " />
<polygon style= "fill: #FFFFD8; opacity:1.00 " points="632.91,449.51 632.88,453.50 627.51,453.44 " />
<polygon style= "fill: #E9E6C1; opacity:1.00 " points="971.63,451.55 971.60,455.55 966.22,455.55 " />
<polygon style= "fill: #C7C49D; opacity:1.00 " points="959.00,451.44 955.39,451.54 953.58,451.43 " />
<polygon style= "fill: #E9E6C1; opacity:1.00 " points="971.63,451.55 966.22,455.55 966.24,451.55 " />
<polygon style= "fill: #FFFFD7; opacity:1.00 " points="638.31,449.57 632.88,453.50 632.91,449.51 " />
<polygon style= "fill: #FFFFD7; opacity:1.00 " points="638.31,449.57 638.28,453.57 632.88,453.50 " />
<polygon style= "fill: #ECE9C3; opacity:1.00 " points="960.80,455.54 966.24,451.55 966.22,455.55 " />
<polygon style= "fill: #7C807D; opacity:1.00 " points="718.38,454.39 718.03,511.84 551.23,508.87 " />
<polygon style= "fill: #ECE9C3; opacity:1.00 " points="960.80,455.54 960.83,451.55 966.24,451.55 " />
<polygon style= "fill: #FFFFD6; opacity:1.00 " points="643.73,449.63 638.28,453.57 638.31,449.57 " />
<polygon style= "fill: #EAE6B8; opacity:1.00 " points="953.58,451.43 955.39,451.54 955.37,455.54 " />
<polygon style= "fill: #FFFFD6; opacity:1.00 " points="643.73,449.63 643.70,453.63 638.28,453.57 " />
<polygon style= "fill: #EEEBC6; opacity:1.00 " points="960.83,451.55 960.80,455.54 955.37,455.54 " />
<polygon style= "fill: #EEEBC6; opacity:1.00 " points="960.83,451.55 955.37,455.54 955.39,451.54 " />
<polygon style= "fill: #FFFFD6; opacity:1.00 " points="643.70,453.63 643.73,449.63 649.17,449.69 " />
<polygon style= "fill: #FFFFD6; opacity:1.00 " points="643.70,453.63 649.17,449.69 649.15,453.69 " />
<polygon style= "fill: #F1EEC8; opacity:1.00 " points="949.91,455.54 955.39,451.54 955.37,455.54 " />
<polygon style= "fill: #F1EEC8; opacity:1.00 " points="949.91,455.54 949.93,451.53 955.39,451.54 " />
<polygon style= "fill: #FFFFD5; opacity:1.00 " points="649.15,453.69 649.17,449.69 654.64,449.75 " />
<polygon style= "fill: #FFFFD5; opacity:1.00 " points="649.15,453.69 654.64,449.75 654.62,453.75 " />
<polygon style= "fill: #C7C49D; opacity:1.00 " points="937.22,451.41 933.42,451.51 931.82,451.40 " />
<polygon style= "fill: #F3F0CB; opacity:1.00 " points="944.42,455.53 949.93,451.53 949.91,455.54 " />
<polygon style= "fill: #F3F0CB; opacity:1.00 " points="944.42,455.53 944.45,451.52 949.93,451.53 " />
<polygon style= "fill: #FFFFD5; opacity:1.00 " points="654.62,453.75 654.64,449.75 660.14,449.81 " />
<polygon style= "fill: #C7C49D; opacity:1.00 " points="937.22,451.41 938.94,451.52 933.42,451.51 " />
<polygon style= "fill: #FFFFD5; opacity:1.00 " points="654.62,453.75 660.14,449.81 660.11,453.81 " />
<polygon style= "fill: #F6F3CD; opacity:1.00 " points="938.92,455.52 944.45,451.52 944.42,455.53 " />
<polygon style= "fill: #F6F3CD; opacity:1.00 " points="938.92,455.52 938.94,451.52 944.45,451.52 " />
<polygon style= "fill: #FFFFD5; opacity:1.00 " points="665.65,449.87 660.11,453.81 660.14,449.81 " />
<polygon style= "fill: #C7C49D; opacity:1.00 " points="931.82,451.40 933.42,451.51 927.87,451.49 " />
<polygon style= "fill: #FFFFD5; opacity:1.00 " points="665.65,449.87 665.63,453.87 660.11,453.81 " />
<polygon style= "fill: #F9F6D0; opacity:1.00 " points="938.94,451.52 938.92,455.52 933.39,455.51 " />
<polygon style= "fill: #F9F6D0; opacity:1.00 " points="938.94,451.52 933.39,455.51 933.42,451.51 " />
<polygon style= "fill: #FFFFD5; opacity:1.00 " points="665.63,453.87 665.65,449.87 671.19,449.92 " />
<polygon style= "fill: #C7C49D; opacity:1.00 " points="926.35,451.39 927.87,451.49 922.30,451.48 " />
<polygon style= "fill: #FFFFD5; opacity:1.00 " points="665.63,453.87 671.19,449.92 671.16,453.93 " />
<polygon style= "fill: #FCF9D2; opacity:1.00 " points="933.42,451.51 933.39,455.51 927.84,455.50 " />
<polygon style= "fill: #FCF9D2; opacity:1.00 " points="933.42,451.51 927.84,455.50 927.87,451.49 " />
<polygon style= "fill: #FFFFD5; opacity:1.00 " points="676.74,449.98 671.16,453.93 671.19,449.92 " />
<polygon style= "fill: #C7C49D; opacity:1.00 " points="916.71,451.47 920.84,451.38 922.30,451.48 " />
<polygon style= "fill: #FFFFD5; opacity:1.00 " points="676.74,449.98 676.72,453.99 671.16,453.93 " />
<polygon style= "fill: #FFFCD5; opacity:1.00 " points="927.87,451.49 927.84,455.50 922.28,455.49 " />
<polygon style= "fill: #FFFCD5; opacity:1.00 " points="927.87,451.49 922.28,455.49 922.30,451.48 " />
<polygon style= "fill: #FFFFD5; opacity:1.00 " points="676.72,453.99 676.74,449.98 682.32,450.03 " />
<polygon style= "fill: #C7C49D; opacity:1.00 " points="911.11,451.45 915.38,451.36 916.71,451.47 " />
<polygon style= "fill: #FFFFD5; opacity:1.00 " points="676.72,453.99 682.32,450.03 682.29,454.05 " />
<polygon style= "fill: #FFFED7; opacity:1.00 " points="916.69,455.48 922.30,451.48 922.28,455.49 " />
<polygon style= "fill: #C7C49D; opacity:1.00 " points="909.89,451.35 911.11,451.45 905.49,451.44 " />
<polygon style= "fill: #FFFED7; opacity:1.00 " points="916.69,455.48 916.71,451.47 922.30,451.48 " />
<polygon style= "fill: #FFFFD5; opacity:1.00 " points="682.32,450.03 687.89,454.10 682.29,454.05 " />
<polygon style= "fill: #FFFFD5; opacity:1.00 " points="682.32,450.03 687.91,450.09 687.89,454.10 " />
<polygon style= "fill: #FFFFD9; opacity:1.00 " points="911.08,455.47 916.71,451.47 916.69,455.48 " />
<polygon style= "fill: #FFFFD9; opacity:1.00 " points="911.08,455.47 911.11,451.45 916.71,451.47 " />
<polygon style= "fill: #FFFFD5; opacity:1.00 " points="687.91,450.09 693.50,454.16 687.89,454.10 " />
<polygon style= "fill: #FFFFD5; opacity:1.00 " points="687.91,450.09 693.52,450.14 693.50,454.16 " />
<polygon style= "fill: #C7C49D; opacity:1.00 " points="739.78,450.35 744.99,450.49 739.33,450.44 " />
<polygon style= "fill: #FFFFDB; opacity:1.00 " points="911.11,451.45 911.08,455.47 905.46,455.46 " />
<polygon style= "fill: #FFFFDB; opacity:1.00 " points="911.11,451.45 905.46,455.46 905.49,451.44 " />
<polygon style= "fill: #FFFFD6; opacity:1.00 " points="693.52,450.14 699.13,454.21 693.50,454.16 " />
<polygon style= "fill: #FFFFD6; opacity:1.00 " points="693.52,450.14 699.15,450.19 699.13,454.21 " />
<polygon style= "fill: #FFFFDD; opacity:1.00 " points="899.82,455.44 905.49,451.44 905.46,455.46 " />
<polygon style= "fill: #FFFFDD; opacity:1.00 " points="899.82,455.44 899.85,451.42 905.49,451.44 " />
<polygon style= "fill: #FFFFD6; opacity:1.00 " points="699.15,450.19 704.77,454.26 699.13,454.21 " />
<polygon style= "fill: #FFFFD6; opacity:1.00 " points="699.15,450.19 704.80,450.24 704.77,454.26 " />
<polygon style= "fill: #929693; opacity:1.00 " points="897.56,455.43 718.03,511.84 718.38,454.39 " />
<polygon style= "fill: #FFFFDE; opacity:1.00 " points="894.17,455.42 899.85,451.42 899.82,455.44 " />
<polygon style= "fill: #929693; opacity:1.00 " points="897.93,394.01 897.59,451.41 718.40,450.36 " />
<polygon style= "fill: #FFFFDE; opacity:1.00 " points="894.17,455.42 894.19,451.40 899.85,451.42 " />
<polygon style= "fill: #FFFFD7; opacity:1.00 " points="704.80,450.24 710.43,454.31 704.77,454.26 " />
<polygon style= "fill: #FFFFD7; opacity:1.00 " points="704.80,450.24 710.46,450.29 710.43,454.31 " />
<polygon style= "fill: #929693; opacity:1.00 " points="897.56,455.43 897.22,512.84 718.03,511.84 " />
<polygon style= "fill: #FFFFE0; opacity:1.00 " points="888.50,455.41 894.19,451.40 894.17,455.42 " />
<polygon style= "fill: #C7C49D; opacity:1.00 " points="733.70,450.40 739.33,450.44 738.95,450.53 " />
<polygon style= "fill: #FFFFE0; opacity:1.00 " points="888.50,455.41 888.53,451.39 894.19,451.40 " />
<polygon style= "fill: #FFFFD7; opacity:1.00 " points="710.46,450.29 716.11,454.37 710.43,454.31 " />
<polygon style= "fill: #929693; opacity:1.00 " points="897.93,394.01 718.40,450.36 718.75,392.92 " />
<polygon style= "fill: #FFFFD7; opacity:1.00 " points="710.46,450.29 716.13,450.34 716.11,454.37 " />
<polygon style= "fill: #FFFFE1; opacity:1.00 " points="882.82,455.39 888.53,451.39 888.50,455.41 " />
<polygon style= "fill: #C7C49D; opacity:1.00 " points="728.12,450.35 733.23,450.49 727.52,450.44 " />
<polygon style= "fill: #FFFFE1; opacity:1.00 " points="882.82,455.39 882.84,451.37 888.53,451.39 " />
<polygon style= "fill: #FFFFD8; opacity:1.00 " points="716.13,450.34 721.79,454.42 716.11,454.37 " />
<polygon style= "fill: #FFFFD8; opacity:1.00 " points="716.13,450.34 721.82,450.39 721.79,454.42 " />
<polygon style= "fill: #C7C49D; opacity:1.00 " points="733.70,450.40 738.95,450.53 733.23,450.49 " />
<polygon style= "fill: #FFFFE3; opacity:1.00 " points="882.84,451.37 882.82,455.39 877.12,455.37 " />
<polygon style= "fill: #FFFFE3; opacity:1.00 " points="882.84,451.37 877.12,455.37 877.15,451.34 " />
<polygon style= "fill: #FFFFD9; opacity:1.00 " points="721.82,450.39 727.49,454.46 721.79,454.42 " />
<polygon style= "fill: #FFFFD9; opacity:1.00 " points="721.82,450.39 727.52,450.44 727.49,454.46 " />
<polygon style= "fill: #FFFFE4; opacity:1.00 " points="871.42,455.35 877.15,451.34 877.12,455.37 " />
<polygon style= "fill: #FFFFE4; opacity:1.00 " points="871.42,455.35 871.44,451.32 877.15,451.34 " />
<polygon style= "fill: #FFFFD9; opacity:1.00 " points="727.52,450.44 733.21,454.51 727.49,454.46 " />
<polygon style= "fill: #FFFFD9; opacity:1.00 " points="727.52,450.44 733.23,450.49 733.21,454.51 " />
<polygon style= "fill: #FFFFE4; opacity:1.00 " points="871.44,451.32 871.42,455.35 865.70,455.32 " />
<polygon style= "fill: #FFFFE4; opacity:1.00 " points="871.44,451.32 865.70,455.32 865.72,451.30 " />
<polygon style= "fill: #FFFFDA; opacity:1.00 " points="733.23,450.49 738.93,454.56 733.21,454.51 " />
<polygon style= "fill: #FFFFDA; opacity:1.00 " points="733.23,450.49 738.95,450.53 738.93,454.56 " />
<polygon style= "fill: #FFFFE5; opacity:1.00 " points="859.97,455.30 865.72,451.30 865.70,455.32 " />
<polygon style= "fill: #FFFFE5; opacity:1.00 " points="859.97,455.30 859.99,451.28 865.72,451.30 " />
<polygon style= "fill: #FFFFDB; opacity:1.00 " points="738.95,450.53 744.66,454.61 738.93,454.56 " />
<polygon style= "fill: #FFFFDB; opacity:1.00 " points="738.95,450.53 744.68,450.58 744.66,454.61 " />
<polygon style= "fill: #FFFFE6; opacity:1.00 " points="854.26,451.25 859.99,451.28 859.97,455.30 " />
<polygon style= "fill: #FFFFE6; opacity:1.00 " points="854.26,451.25 859.97,455.30 854.23,455.28 " />
<polygon style= "fill: #FFFFDC; opacity:1.00 " points="744.68,450.58 750.40,454.65 744.66,454.61 " />
<polygon style= "fill: #FFFFDC; opacity:1.00 " points="744.68,450.58 750.43,450.62 750.40,454.65 " />
<polygon style= "fill: #FFFFE6; opacity:1.00 " points="848.51,451.22 854.26,451.25 854.23,455.28 " />
<polygon style= "fill: #FFFFE6; opacity:1.00 " points="848.51,451.22 854.23,455.28 848.49,455.25 " />
<polygon style= "fill: #FFFFDD; opacity:1.00 " points="750.43,450.62 756.15,454.69 750.40,454.65 " />
<polygon style= "fill: #FFFFDD; opacity:1.00 " points="750.43,450.62 756.17,450.67 756.15,454.69 " />
<polygon style= "fill: #FFFFE7; opacity:1.00 " points="842.76,451.20 848.51,451.22 848.49,455.25 " />
<polygon style= "fill: #FFFFE7; opacity:1.00 " points="842.76,451.20 848.49,455.25 842.73,455.22 " />
<polygon style= "fill: #FFFFDE; opacity:1.00 " points="756.17,450.67 761.91,454.74 756.15,454.69 " />
<polygon style= "fill: #FFFFDE; opacity:1.00 " points="756.17,450.67 761.93,450.71 761.91,454.74 " />
<polygon style= "fill: #FFFFE7; opacity:1.00 " points="837.00,451.17 842.76,451.20 842.73,455.22 " />
<polygon style= "fill: #FFFFE7; opacity:1.00 " points="837.00,451.17 842.73,455.22 836.97,455.20 " />
<polygon style= "fill: #FFFFDF; opacity:1.00 " points="761.93,450.71 767.67,454.78 761.91,454.74 " />
<polygon style= "fill: #FFFFDF; opacity:1.00 " points="761.93,450.71 767.69,450.75 767.67,454.78 " />
<polygon style= "fill: #FFFFE7; opacity:1.00 " points="831.23,451.14 837.00,451.17 836.97,455.20 " />
<polygon style= "fill: #FFFFE7; opacity:1.00 " points="831.23,451.14 836.97,455.20 831.21,455.17 " />
<polygon style= "fill: #FFFFE0; opacity:1.00 " points="767.69,450.75 773.44,454.82 767.67,454.78 " />
<polygon style= "fill: #FFFFE0; opacity:1.00 " points="767.69,450.75 773.46,450.79 773.44,454.82 " />
<polygon style= "fill: #FFFFE7; opacity:1.00 " points="825.46,451.11 831.23,451.14 831.21,455.17 " />
<polygon style= "fill: #FFFFE7; opacity:1.00 " points="825.46,451.11 831.21,455.17 825.44,455.14 " />
<polygon style= "fill: #FFFFE1; opacity:1.00 " points="773.46,450.79 779.21,454.86 773.44,454.82 " />
<polygon style= "fill: #FFFFE1; opacity:1.00 " points="773.46,450.79 779.23,450.83 779.21,454.86 " />
<polygon style= "fill: #FFFFE6; opacity:1.00 " points="819.69,451.08 825.46,451.11 825.44,455.14 " />
<polygon style= "fill: #FFFFE6; opacity:1.00 " points="819.69,451.08 825.44,455.14 819.66,455.11 " />
<polygon style= "fill: #FFFFE2; opacity:1.00 " points="779.23,450.83 784.99,454.90 779.21,454.86 " />
<polygon style= "fill: #FFFFE2; opacity:1.00 " points="779.23,450.83 785.01,450.87 784.99,454.90 " />
<polygon style= "fill: #FFFFE6; opacity:1.00 " points="813.91,451.05 819.69,451.08 819.66,455.11 " />
<polygon style= "fill: #FFFFE6; opacity:1.00 " points="813.91,451.05 819.66,455.11 813.88,455.08 " />
<polygon style= "fill: #FFFFE3; opacity:1.00 " points="785.01,450.87 790.76,454.94 784.99,454.90 " />
<polygon style= "fill: #FFFFE3; opacity:1.00 " points="785.01,450.87 790.79,450.91 790.76,454.94 " />
<polygon style= "fill: #FFFFE5; opacity:1.00 " points="808.13,451.01 813.91,451.05 813.88,455.08 " />
<polygon style= "fill: #FFFFE5; opacity:1.00 " points="808.13,451.01 813.88,455.08 808.10,455.04 " />
<polygon style= "fill: #FFFFE4; opacity:1.00 " points="790.79,450.91 796.54,454.97 790.76,454.94 " />
<polygon style= "fill: #FFFFE4; opacity:1.00 " points="790.79,450.91 796.57,450.94 796.54,454.97 " />
<polygon style= "fill: #FFFFE5; opacity:1.00 " points="802.35,450.98 808.13,451.01 808.10,455.04 " />
<polygon style= "fill: #FFFFE5; opacity:1.00 " points="802.35,450.98 808.10,455.04 802.32,455.01 " />
<polygon style= "fill: #FFFFE4; opacity:1.00 " points="796.57,450.94 802.32,455.01 796.54,454.97 " />
<polygon style= "fill: #FFFFE4; opacity:1.00 " points="796.57,450.94 802.35,450.98 802.32,455.01 " />
</svg>
</svg>
