<?xml version="1.0" encoding="UTF-8" standalone="no"?>
<!DOCTYPE svg PUBLIC "-//W3C//DTD SVG 1.0//EN"
"http://www.w3.org/Graphics/SVG/1.1/DTD/svg10.dtd">
<svg xmlns="http://www.w3.org/2000/svg" xmlns:xlink="http://www.w3.org/1999/xlink" width=" 1603.00" height="786.00" >

<svg x="0.00" y="0.00" width=" 1603.00" height="786.00" >
<rect x="0" y="0" width="1603.00" height="786.00" 	 style= "fill: #FFFFFF; " /> 
<polygon style= "fill: #343635; opacity:1.00 " points="332.23,392.99 332.27,445.11 364.04,442.90 " />
<polygon style= "fill: #343635; opacity:1.00 " points="332.27,448.76 332.30,500.88 364.08,496.14 " />
<polygon style= "fill: #5D615E; opacity:1.00 " points="730.25,262.17 721.36,392.70 721.25,263.71 " />
<polygon style= "fill: #5D615E; opacity:1.00 " points="730.25,262.17 730.36,392.65 721.36,392.70 " />
<polygon style= "fill: #3B3D3B; opacity:1.00 " points="975.67,262.83 975.78,392.46 962.47,392.43 " />
<polygon style= "fill: #3B3D3B; opacity:1.00 " points="975.67,262.83 962.47,392.43 962.35,261.36 " />
<polygon style= "fill: #6A6E6B; opacity:1.00 " points="751.39,260.79 730.36,392.65 730.25,262.17 " />
<polygon style= "fill: #006565; opacity:1.00 " points="1368.90,444.50 1363.29,444.50 1363.17,444.42 " />
<polygon style= "fill: #5D615E; opacity:1.00 " points="351.12,392.79 351.15,447.43 332.27,445.11 " />
<polygon style= "fill: #006565; opacity:1.00 " points="336.59,445.43 331.70,445.52 331.68,445.45 " />
<polygon style= "fill: #006565; opacity:1.00 " points="336.59,445.43 336.60,445.51 331.70,445.52 " />
<polygon style= "fill: #6A6E6B; opacity:1.00 " points="751.39,260.79 751.50,392.59 730.36,392.65 " />
<polygon style= "fill: #404341; opacity:1.00 " points="962.35,261.36 962.47,392.43 937.49,392.42 " />
<polygon style= "fill: #404341; opacity:1.00 " points="962.35,261.36 937.49,392.42 937.37,260.13 " />
<polygon style= "fill: #8B908C; opacity:1.00 " points="782.80,259.71 751.50,392.59 751.39,260.79 " />
<polygon style= "fill: #5D615E; opacity:1.00 " points="351.16,451.25 332.30,500.88 332.27,448.76 " />
<polygon style= "fill: #007676; opacity:1.00 " points="332.33,445.82 332.62,449.60 332.33,449.52 " />
<polygon style= "fill: #007676; opacity:1.00 " points="332.33,445.82 332.62,445.90 332.62,449.60 " />
<polygon style= "fill: #5D615E; opacity:1.00 " points="351.12,392.79 332.27,445.11 332.23,392.99 " />
<polygon style= "fill: #8B908C; opacity:1.00 " points="782.80,259.71 782.92,392.53 751.50,392.59 " />
<polygon style= "fill: #4E504E; opacity:1.00 " points="937.37,260.13 937.49,392.42 903.17,392.42 " />
<polygon style= "fill: #4E504E; opacity:1.00 " points="937.37,260.13 903.17,392.42 903.05,259.28 " />
<polygon style= "fill: #007676; opacity:1.00 " points="333.37,446.05 333.83,449.84 333.38,449.76 " />
<polygon style= "fill: #3B3D3B; opacity:1.00 " points="1368.25,392.03 1368.30,445.23 1330.22,447.59 " />
<polygon style= "fill: #004646; opacity:1.00 " points="1368.23,445.25 1368.55,445.17 1368.55,448.89 " />
<polygon style= "fill: #007676; opacity:1.00 " points="333.37,446.05 333.83,446.12 333.83,449.84 " />
<polygon style= "fill: #3B3D3B; opacity:1.00 " points="1368.31,448.96 1330.28,507.20 1330.22,451.49 " />
<polygon style= "fill: #004646; opacity:1.00 " points="1368.23,445.25 1368.55,448.89 1368.24,448.97 " />
<polygon style= "fill: #828683; opacity:1.00 " points="821.35,259.05 782.92,392.53 782.80,259.71 " />
<polygon style= "fill: #828683; opacity:1.00 " points="821.35,259.05 821.47,392.48 782.92,392.53 " />
<polygon style= "fill: #868987; opacity:1.00 " points="903.05,259.28 903.17,392.42 863.06,392.44 " />
<polygon style= "fill: #007676; opacity:1.00 " points="334.35,446.19 334.92,450.01 334.35,449.93 " />
<polygon style= "fill: #007676; opacity:1.00 " points="334.35,446.19 334.92,446.27 334.92,450.01 " />
<polygon style= "fill: #868987; opacity:1.00 " points="903.05,259.28 863.06,392.44 862.94,258.90 " />
<polygon style= "fill: #898D8A; opacity:1.00 " points="862.94,258.90 821.47,392.48 821.35,259.05 " />
<polygon style= "fill: #898D8A; opacity:1.00 " points="862.94,258.90 863.06,392.44 821.47,392.48 " />
<polygon style= "fill: #006565; opacity:1.00 " points="1362.00,445.46 1367.44,445.40 1366.96,445.47 " />
<polygon style= "fill: #004747; opacity:1.00 " points="1366.96,445.47 1367.44,445.40 1367.45,449.13 " />
<polygon style= "fill: #007676; opacity:1.00 " points="334.92,446.27 335.54,446.34 335.54,450.09 " />
<polygon style= "fill: #004747; opacity:1.00 " points="1366.43,445.55 1366.97,449.21 1366.43,449.30 " />
<polygon style= "fill: #006565; opacity:1.00 " points="346.06,446.37 346.86,446.45 341.94,446.47 " />
<polygon style= "fill: #007777; opacity:1.00 " points="336.22,446.42 336.96,450.25 336.23,450.17 " />
<polygon style= "fill: #006565; opacity:1.00 " points="341.16,446.40 341.94,446.47 336.96,446.49 " />
<polygon style= "fill: #007777; opacity:1.00 " points="336.22,446.42 336.96,446.49 336.96,450.25 " />
<polygon style= "fill: #007777; opacity:1.00 " points="336.96,446.49 337.76,450.33 336.96,450.25 " />
<polygon style= "fill: #004848; opacity:1.00 " points="1365.19,445.70 1365.84,445.62 1365.84,449.38 " />
<polygon style= "fill: #007777; opacity:1.00 " points="336.96,446.49 337.76,446.57 337.76,450.33 " />
<polygon style= "fill: #004848; opacity:1.00 " points="1365.19,445.70 1365.84,449.38 1365.19,449.46 " />
<polygon style= "fill: #007878; opacity:1.00 " points="337.76,446.57 338.61,446.64 338.61,450.41 " />
<polygon style= "fill: #5D615E; opacity:1.00 " points="351.16,451.25 351.20,505.89 332.30,500.88 " />
<polygon style= "fill: #004848; opacity:1.00 " points="1363.72,445.85 1364.48,445.78 1364.49,449.54 " />
<polygon style= "fill: #007878; opacity:1.00 " points="338.61,446.64 339.52,446.72 339.52,450.49 " />
<polygon style= "fill: #004949; opacity:1.00 " points="1362.90,445.93 1363.72,445.85 1363.73,449.62 " />
<polygon style= "fill: #007878; opacity:1.00 " points="339.52,446.72 340.48,446.79 340.48,450.57 " />
<polygon style= "fill: #004949; opacity:1.00 " points="1362.90,445.93 1363.73,449.62 1362.91,449.70 " />
<polygon style= "fill: #007979; opacity:1.00 " points="340.48,446.79 341.51,450.65 340.48,450.57 " />
<polygon style= "fill: #004949; opacity:1.00 " points="1362.03,446.00 1362.90,445.93 1362.91,449.70 " />
<polygon style= "fill: #007979; opacity:1.00 " points="340.48,446.79 341.50,446.86 341.51,450.65 " />
<polygon style= "fill: #004949; opacity:1.00 " points="1362.03,446.00 1362.91,449.70 1362.03,449.79 " />
<polygon style= "fill: #3B3D3B; opacity:1.00 " points="1368.31,448.96 1368.36,502.16 1330.28,507.20 " />
<polygon style= "fill: #007979; opacity:1.00 " points="341.50,446.86 342.59,450.73 341.51,450.65 " />
<polygon style= "fill: #004949; opacity:1.00 " points="1361.10,446.08 1362.03,446.00 1362.03,449.79 " />
<polygon style= "fill: #007979; opacity:1.00 " points="341.50,446.86 342.58,446.94 342.59,450.73 " />
<polygon style= "fill: #004949; opacity:1.00 " points="1361.10,446.08 1362.03,449.79 1361.10,449.87 " />
<polygon style= "fill: #007979; opacity:1.00 " points="342.59,450.73 342.58,446.94 343.72,447.01 " />
<polygon style= "fill: #004949; opacity:1.00 " points="1360.10,446.15 1361.10,446.08 1361.10,449.87 " />
<polygon style= "fill: #007979; opacity:1.00 " points="342.59,450.73 343.72,447.01 343.72,450.81 " />
<polygon style= "fill: #004949; opacity:1.00 " points="1360.10,446.15 1361.10,449.87 1360.11,449.95 " />
<polygon style= "fill: #017A7A; opacity:1.00 " points="344.92,447.09 343.72,450.81 343.72,447.01 " />
<polygon style= "fill: #004A4A; opacity:1.00 " points="1359.06,446.23 1360.10,446.15 1360.11,449.95 " />
<polygon style= "fill: #017A7A; opacity:1.00 " points="344.92,447.09 344.92,450.89 343.72,450.81 " />
<polygon style= "fill: #004A4A; opacity:1.00 " points="1359.06,446.23 1360.11,449.95 1359.06,450.03 " />
<polygon style= "fill: #017A7A; opacity:1.00 " points="344.92,450.89 344.92,447.09 346.17,447.16 " />
<polygon style= "fill: #004A4A; opacity:1.00 " points="1357.95,446.31 1359.06,446.23 1359.06,450.03 " />
<polygon style= "fill: #017A7A; opacity:1.00 " points="344.92,450.89 346.17,447.16 346.17,450.97 " />
<polygon style= "fill: #004A4A; opacity:1.00 " points="1357.95,446.31 1359.06,450.03 1357.95,450.11 " />
<polygon style= "fill: #017A7A; opacity:1.00 " points="347.48,447.23 346.17,450.97 346.17,447.16 " />
<polygon style= "fill: #004A4A; opacity:1.00 " points="1356.79,446.38 1357.95,446.31 1357.95,450.11 " />
<polygon style= "fill: #017A7A; opacity:1.00 " points="347.48,447.23 347.48,451.04 346.17,450.97 " />
<polygon style= "fill: #004A4A; opacity:1.00 " points="1356.79,446.38 1357.95,450.11 1356.79,450.19 " />
<polygon style= "fill: #017B7B; opacity:1.00 " points="347.48,451.04 347.48,447.23 348.85,447.31 " />
<polygon style= "fill: #006565; opacity:1.00 " points="1350.51,446.44 1356.79,446.38 1355.56,446.46 " />
<polygon style= "fill: #004A4A; opacity:1.00 " points="1355.56,446.46 1356.79,446.38 1356.79,450.19 " />
<polygon style= "fill: #017B7B; opacity:1.00 " points="347.48,451.04 348.85,447.31 348.85,451.12 " />
<polygon style= "fill: #004A4A; opacity:1.00 " points="1355.56,446.46 1356.79,450.19 1355.57,450.27 " />
<polygon style= "fill: #006565; opacity:1.00 " points="1344.11,446.49 1345.44,446.42 1350.51,446.44 " />
<polygon style= "fill: #017B7B; opacity:1.00 " points="348.85,451.12 348.85,447.31 350.27,447.38 " />
<polygon style= "fill: #004B4B; opacity:1.00 " points="1354.28,446.53 1355.56,446.46 1355.57,450.27 " />
<polygon style= "fill: #017B7B; opacity:1.00 " points="348.85,451.12 350.27,447.38 350.27,451.20 " />
<polygon style= "fill: #004B4B; opacity:1.00 " points="1354.28,446.53 1355.57,450.27 1354.29,450.36 " />
<polygon style= "fill: #6A6E6B; opacity:1.00 " points="425.89,392.54 351.15,447.43 351.12,392.79 " />
<polygon style= "fill: #0E6767; opacity:1.00 " points="385.28,448.04 390.42,448.00 390.43,451.87 " />
<polygon style= "fill: #0E6767; opacity:1.00 " points="385.28,448.04 390.43,451.87 385.28,451.92 " />
<polygon style= "fill: #0E6767; opacity:1.00 " points="380.13,448.09 385.28,448.04 385.28,451.92 " />
<polygon style= "fill: #0E6767; opacity:1.00 " points="380.13,448.09 385.28,451.92 380.13,451.97 " />
<polygon style= "fill: #0E6767; opacity:1.00 " points="375.46,448.13 380.13,448.09 380.13,451.97 " />
<polygon style= "fill: #0E6767; opacity:1.00 " points="375.46,448.50 375.46,448.13 380.13,451.97 " />
<polygon style= "fill: #6A6E6B; opacity:1.00 " points="425.89,392.54 425.93,449.59 351.15,447.43 " />
<polygon style= "fill: #017C7C; opacity:1.00 " points="350.27,451.20 350.27,447.38 351.75,447.46 " />
<polygon style= "fill: #004B4B; opacity:1.00 " points="1352.95,446.61 1354.28,446.53 1354.29,450.36 " />
<polygon style= "fill: #006565; opacity:1.00 " points="351.75,447.46 357.27,447.42 358.76,447.49 " />
<polygon style= "fill: #6A6E6B; opacity:1.00 " points="425.94,453.59 351.20,505.89 351.16,451.25 " />
<polygon style= "fill: #017C7C; opacity:1.00 " points="350.27,451.20 351.75,447.46 351.76,451.28 " />
<polygon style= "fill: #004B4B; opacity:1.00 " points="1352.95,446.61 1354.29,450.36 1352.95,450.44 " />
<polygon style= "fill: #017C7C; opacity:1.00 " points="351.76,451.28 351.75,447.46 353.30,447.53 " />
<polygon style= "fill: #004B4B; opacity:1.00 " points="1351.55,446.69 1352.95,446.61 1352.95,450.44 " />
<polygon style= "fill: #017C7C; opacity:1.00 " points="351.76,451.28 353.30,447.53 353.30,451.36 " />
<polygon style= "fill: #004B4B; opacity:1.00 " points="1351.55,446.69 1352.95,450.44 1351.55,450.52 " />
<polygon style= "fill: #017D7D; opacity:1.00 " points="354.90,447.60 353.30,451.36 353.30,447.53 " />
<polygon style= "fill: #004B4B; opacity:1.00 " points="1350.10,446.76 1351.55,446.69 1351.55,450.52 " />
<polygon style= "fill: #017D7D; opacity:1.00 " points="354.90,447.60 354.90,451.44 353.30,451.36 " />
<polygon style= "fill: #004B4B; opacity:1.00 " points="1350.10,446.76 1351.55,450.52 1350.10,450.60 " />
<polygon style= "fill: #027D7D; opacity:1.00 " points="354.90,451.44 354.90,447.60 356.55,447.67 " />
<polygon style= "fill: #004C4C; opacity:1.00 " points="1348.58,446.84 1350.10,446.76 1350.10,450.60 " />
<polygon style= "fill: #3B3D3B; opacity:1.00 " points="1368.25,392.03 1330.22,447.59 1330.16,391.87 " />
<polygon style= "fill: #027D7D; opacity:1.00 " points="354.90,451.44 356.55,447.67 356.56,451.52 " />
<polygon style= "fill: #004C4C; opacity:1.00 " points="1348.58,446.84 1350.10,450.60 1348.59,450.68 " />
<polygon style= "fill: #027E7E; opacity:1.00 " points="356.56,451.52 356.55,447.67 358.27,447.75 " />
<polygon style= "fill: #004C4C; opacity:1.00 " points="1347.01,446.91 1348.58,446.84 1348.59,450.68 " />
<polygon style= "fill: #027E7E; opacity:1.00 " points="356.56,451.52 358.27,447.75 358.27,451.60 " />
<polygon style= "fill: #004C4C; opacity:1.00 " points="1347.01,446.91 1348.59,450.68 1347.01,450.76 " />
<polygon style= "fill: #027E7E; opacity:1.00 " points="360.05,447.82 358.27,451.60 358.27,447.75 " />
<polygon style= "fill: #004C4C; opacity:1.00 " points="1345.38,446.99 1347.01,446.91 1347.01,450.76 " />
<polygon style= "fill: #027E7E; opacity:1.00 " points="360.05,447.82 360.05,451.67 358.27,451.60 " />
<polygon style= "fill: #004C4C; opacity:1.00 " points="1345.38,446.99 1347.01,450.76 1345.38,450.84 " />
<polygon style= "fill: #027F7F; opacity:1.00 " points="361.88,447.89 360.05,451.67 360.05,447.82 " />
<polygon style= "fill: #004C4C; opacity:1.00 " points="1343.69,447.06 1345.38,446.99 1345.38,450.84 " />
<polygon style= "fill: #027F7F; opacity:1.00 " points="361.88,447.89 361.88,451.75 360.05,451.67 " />
<polygon style= "fill: #004C4C; opacity:1.00 " points="1343.69,447.06 1345.38,450.84 1343.69,450.92 " />
<polygon style= "fill: #037F7F; opacity:1.00 " points="363.77,447.96 361.88,451.75 361.88,447.89 " />
<polygon style= "fill: #004C4C; opacity:1.00 " points="1341.94,447.14 1343.69,447.06 1343.69,450.92 " />
<polygon style= "fill: #037F7F; opacity:1.00 " points="363.77,447.96 363.77,451.83 361.88,451.75 " />
<polygon style= "fill: #004C4C; opacity:1.00 " points="1341.94,447.14 1343.69,450.92 1341.95,451.00 " />
<polygon style= "fill: #038080; opacity:1.00 " points="363.77,451.83 363.77,447.96 365.72,448.04 " />
<polygon style= "fill: #004D4D; opacity:1.00 " points="1340.14,447.21 1341.94,447.14 1341.95,451.00 " />
<polygon style= "fill: #038080; opacity:1.00 " points="363.77,451.83 365.72,448.04 365.72,451.91 " />
<polygon style= "fill: #004D4D; opacity:1.00 " points="1340.14,447.21 1341.95,451.00 1340.14,451.09 " />
<polygon style= "fill: #038080; opacity:1.00 " points="365.72,451.91 365.72,448.04 367.73,448.11 " />
<polygon style= "fill: #004D4D; opacity:1.00 " points="1338.27,447.29 1340.14,447.21 1340.14,451.09 " />
<polygon style= "fill: #038080; opacity:1.00 " points="365.72,451.91 367.73,448.11 367.73,451.99 " />
<polygon style= "fill: #004D4D; opacity:1.00 " points="1338.27,447.29 1340.14,451.09 1338.27,451.17 " />
<polygon style= "fill: #0E6767; opacity:1.00 " points="374.97,448.13 375.46,448.13 375.46,448.50 " />
<polygon style= "fill: #048181; opacity:1.00 " points="367.73,451.99 367.73,448.11 369.80,448.18 " />
<polygon style= "fill: #26ACAC; opacity:1.00 " points="1293.97,447.32 1299.12,447.36 1299.12,451.24 " />
<polygon style= "fill: #004D4D; opacity:1.00 " points="1336.35,451.25 1338.27,447.29 1338.27,451.17 " />
<polygon style= "fill: #0E6767; opacity:1.00 " points="369.80,448.18 374.97,448.13 374.97,452.01 " />
<polygon style= "fill: #048181; opacity:1.00 " points="367.73,451.99 369.80,448.18 369.80,452.06 " />
<polygon style= "fill: #004D4D; opacity:1.00 " points="1336.35,451.25 1336.35,447.36 1338.27,447.29 " />
<polygon style= "fill: #26ACAC; opacity:1.00 " points="1299.12,447.36 1304.28,451.28 1299.12,451.24 " />
<polygon style= "fill: #0E6767; opacity:1.00 " points="369.80,448.18 374.97,452.01 369.80,452.06 " />
<polygon style= "fill: #048282; opacity:1.00 " points="371.92,448.25 369.80,452.06 369.80,448.18 " />
<polygon style= "fill: #004D4D; opacity:1.00 " points="1336.35,447.36 1336.35,451.25 1334.37,451.33 " />
<polygon style= "fill: #048282; opacity:1.00 " points="371.92,448.25 371.92,452.14 369.80,452.06 " />
<polygon style= "fill: #004D4D; opacity:1.00 " points="1336.35,447.36 1334.37,451.33 1334.36,447.44 " />
<polygon style= "fill: #006565; opacity:1.00 " points="1332.32,447.51 1329.04,447.40 1334.36,447.44 " />
<polygon style= "fill: #048282; opacity:1.00 " points="371.92,452.14 371.92,448.25 374.11,448.32 " />
<polygon style= "fill: #004E4E; opacity:1.00 " points="1332.32,451.41 1334.36,447.44 1334.37,451.33 " />
<polygon style= "fill: #048282; opacity:1.00 " points="371.92,452.14 374.11,448.32 374.11,452.22 " />
<polygon style= "fill: #004E4E; opacity:1.00 " points="1332.32,451.41 1332.32,447.51 1334.36,447.44 " />
<polygon style= "fill: #058383; opacity:1.00 " points="376.35,448.39 374.11,452.22 374.11,448.32 " />
<polygon style= "fill: #004E4E; opacity:1.00 " points="1332.32,447.51 1332.32,451.41 1330.22,451.49 " />
<polygon style= "fill: #058383; opacity:1.00 " points="376.35,448.39 376.35,452.29 374.11,452.22 " />
<polygon style= "fill: #004E4E; opacity:1.00 " points="1332.32,447.51 1330.22,451.49 1330.22,447.59 " />
<polygon style= "fill: #058484; opacity:1.00 " points="376.35,452.29 376.35,448.39 378.65,448.46 " />
<polygon style= "fill: #404341; opacity:1.00 " points="1330.16,391.87 1330.22,447.59 1235.66,449.76 " />
<polygon style= "fill: #404341; opacity:1.00 " points="1330.22,451.49 1330.28,507.20 1235.72,511.79 " />
<polygon style= "fill: #404341; opacity:1.00 " points="1330.22,451.49 1235.72,511.79 1235.67,453.82 " />
<polygon style= "fill: #004E4E; opacity:1.00 " points="1328.06,451.57 1330.22,447.59 1330.22,451.49 " />
<polygon style= "fill: #058484; opacity:1.00 " points="376.35,452.29 378.65,448.46 378.65,452.37 " />
<polygon style= "fill: #004E4E; opacity:1.00 " points="1328.06,451.57 1328.06,447.66 1330.22,447.59 " />
<polygon style= "fill: #068585; opacity:1.00 " points="378.65,448.46 381.01,452.44 378.65,452.37 " />
<polygon style= "fill: #004E4E; opacity:1.00 " points="1325.85,451.65 1328.06,447.66 1328.06,451.57 " />
<polygon style= "fill: #068585; opacity:1.00 " points="378.65,448.46 381.01,448.53 381.01,452.44 " />
<polygon style= "fill: #004E4E; opacity:1.00 " points="1325.85,451.65 1325.84,447.73 1328.06,447.66 " />
<polygon style= "fill: #068585; opacity:1.00 " points="381.01,448.53 383.43,452.52 381.01,452.44 " />
<polygon style= "fill: #004E4E; opacity:1.00 " points="1323.57,451.72 1325.84,447.73 1325.85,451.65 " />
<polygon style= "fill: #068585; opacity:1.00 " points="381.01,448.53 383.42,448.60 383.43,452.52 " />
<polygon style= "fill: #004E4E; opacity:1.00 " points="1323.57,451.72 1323.56,447.81 1325.84,447.73 " />
<polygon style= "fill: #078686; opacity:1.00 " points="383.42,448.60 385.90,452.59 383.43,452.52 " />
<polygon style= "fill: #004F4F; opacity:1.00 " points="1323.56,447.81 1323.57,451.72 1321.23,451.80 " />
<polygon style= "fill: #078686; opacity:1.00 " points="383.42,448.60 385.90,448.67 385.90,452.59 " />
<polygon style= "fill: #004F4F; opacity:1.00 " points="1323.56,447.81 1321.23,451.80 1321.23,447.88 " />
<polygon style= "fill: #088787; opacity:1.00 " points="385.90,448.67 388.43,452.67 385.90,452.59 " />
<polygon style= "fill: #004F4F; opacity:1.00 " points="1321.23,447.88 1321.23,451.80 1318.84,451.88 " />
<polygon style= "fill: #088787; opacity:1.00 " points="385.90,448.67 388.43,448.74 388.43,452.67 " />
<polygon style= "fill: #004F4F; opacity:1.00 " points="1321.23,447.88 1318.84,451.88 1318.83,447.95 " />
<polygon style= "fill: #088888; opacity:1.00 " points="388.43,448.74 391.02,452.74 388.43,452.67 " />
<polygon style= "fill: #004F4F; opacity:1.00 " points="1318.83,447.95 1318.84,451.88 1316.39,451.96 " />
<polygon style= "fill: #088888; opacity:1.00 " points="388.43,448.74 391.02,448.81 391.02,452.74 " />
<polygon style= "fill: #004F4F; opacity:1.00 " points="1318.83,447.95 1316.39,451.96 1316.38,448.03 " />
<polygon style= "fill: #098989; opacity:1.00 " points="391.02,448.81 393.67,452.81 391.02,452.74 " />
<polygon style= "fill: #004F4F; opacity:1.00 " points="1313.87,452.04 1316.38,448.03 1316.39,451.96 " />
<polygon style= "fill: #098989; opacity:1.00 " points="391.02,448.81 393.67,448.88 393.67,452.81 " />
<polygon style= "fill: #004F4F; opacity:1.00 " points="1313.87,452.04 1313.87,448.10 1316.38,448.03 " />
<polygon style= "fill: #6A6E6B; opacity:1.00 " points="425.94,453.59 425.98,510.64 351.20,505.89 " />
<polygon style= "fill: #0A8A8A; opacity:1.00 " points="393.67,448.88 396.38,452.89 393.67,452.81 " />
<polygon style= "fill: #004F4F; opacity:1.00 " points="1311.30,452.12 1313.87,448.10 1313.87,452.04 " />
<polygon style= "fill: #0A8A8A; opacity:1.00 " points="393.67,448.88 396.38,448.95 396.38,452.89 " />
<polygon style= "fill: #004F4F; opacity:1.00 " points="1311.30,452.12 1311.30,448.17 1313.87,448.10 " />
<polygon style= "fill: #0A8B8B; opacity:1.00 " points="396.38,448.95 399.15,452.96 396.38,452.89 " />
<polygon style= "fill: #005050; opacity:1.00 " points="1311.30,448.17 1311.30,452.12 1308.68,452.19 " />
<polygon style= "fill: #0A8B8B; opacity:1.00 " points="396.38,448.95 399.14,449.01 399.15,452.96 " />
<polygon style= "fill: #005050; opacity:1.00 " points="1311.30,448.17 1308.68,452.19 1308.67,448.25 " />
<polygon style= "fill: #0B8C8C; opacity:1.00 " points="399.14,449.01 401.97,453.03 399.15,452.96 " />
<polygon style= "fill: #005050; opacity:1.00 " points="1305.99,452.27 1308.67,448.25 1308.68,452.19 " />
<polygon style= "fill: #0B8C8C; opacity:1.00 " points="399.14,449.01 401.96,449.08 401.97,453.03 " />
<polygon style= "fill: #005050; opacity:1.00 " points="1305.99,452.27 1305.99,448.32 1308.67,448.25 " />
<polygon style= "fill: #0C8D8D; opacity:1.00 " points="401.96,449.08 404.85,453.11 401.97,453.03 " />
<polygon style= "fill: #005050; opacity:1.00 " points="1303.25,452.35 1305.99,448.32 1305.99,452.27 " />
<polygon style= "fill: #0C8D8D; opacity:1.00 " points="401.96,449.08 404.84,449.15 404.85,453.11 " />
<polygon style= "fill: #005050; opacity:1.00 " points="1303.25,452.35 1303.24,448.39 1305.99,448.32 " />
<polygon style= "fill: #0D8F8F; opacity:1.00 " points="404.84,449.15 407.78,453.18 404.85,453.11 " />
<polygon style= "fill: #005050; opacity:1.00 " points="1300.44,452.42 1303.24,448.39 1303.25,452.35 " />
<polygon style= "fill: #0D8F8F; opacity:1.00 " points="404.84,449.15 407.78,449.21 407.78,453.18 " />
<polygon style= "fill: #005050; opacity:1.00 " points="1300.44,452.42 1300.44,448.46 1303.24,448.39 " />
<polygon style= "fill: #006565; opacity:1.00 " points="1297.58,448.53 1294.99,448.41 1300.44,448.46 " />
<polygon style= "fill: #006565; opacity:1.00 " points="1297.58,448.53 1292.30,448.48 1294.99,448.41 " />
<polygon style= "fill: #0E9090; opacity:1.00 " points="407.78,449.21 410.78,453.25 407.78,453.18 " />
<polygon style= "fill: #005050; opacity:1.00 " points="1297.58,452.50 1300.44,448.46 1300.44,452.42 " />
<polygon style= "fill: #0E9090; opacity:1.00 " points="407.78,449.21 410.77,449.28 410.78,453.25 " />
<polygon style= "fill: #005050; opacity:1.00 " points="1297.58,452.50 1297.58,448.53 1300.44,448.46 " />
<polygon style= "fill: #0F9191; opacity:1.00 " points="410.77,449.28 413.83,453.32 410.78,453.25 " />
<polygon style= "fill: #005151; opacity:1.00 " points="1297.58,448.53 1297.58,452.50 1294.66,452.58 " />
<polygon style= "fill: #0F9191; opacity:1.00 " points="410.77,449.28 413.82,449.35 413.83,453.32 " />
<polygon style= "fill: #005151; opacity:1.00 " points="1297.58,448.53 1294.66,452.58 1294.66,448.60 " />
<polygon style= "fill: #109292; opacity:1.00 " points="413.82,449.35 416.93,453.39 413.83,453.32 " />
<polygon style= "fill: #005151; opacity:1.00 " points="1291.69,452.65 1294.66,448.60 1294.66,452.58 " />
<polygon style= "fill: #109292; opacity:1.00 " points="413.82,449.35 416.93,449.41 416.93,453.39 " />
<polygon style= "fill: #005151; opacity:1.00 " points="1291.69,452.65 1291.69,448.67 1294.66,448.60 " />
<polygon style= "fill: #119393; opacity:1.00 " points="416.93,449.41 420.10,453.46 416.93,453.39 " />
<polygon style= "fill: #005151; opacity:1.00 " points="1291.69,448.67 1291.69,452.65 1288.66,452.73 " />
<polygon style= "fill: #006565; opacity:1.00 " points="424.41,449.42 423.32,449.54 420.10,449.48 " />
<polygon style= "fill: #119393; opacity:1.00 " points="416.93,449.41 420.10,449.48 420.10,453.46 " />
<polygon style= "fill: #005151; opacity:1.00 " points="1291.69,448.67 1288.66,452.73 1288.65,448.74 " />
<polygon style= "fill: #129595; opacity:1.00 " points="420.10,449.48 423.32,453.53 420.10,453.46 " />
<polygon style= "fill: #005151; opacity:1.00 " points="1285.57,452.80 1288.65,448.74 1288.66,452.73 " />
<polygon style= "fill: #129595; opacity:1.00 " points="420.10,449.48 423.32,449.54 423.32,453.53 " />
<polygon style= "fill: #005151; opacity:1.00 " points="1285.57,452.80 1285.56,448.81 1288.65,448.74 " />
<polygon style= "fill: #8B908C; opacity:1.00 " points="554.28,455.44 425.98,510.64 425.94,453.59 " />
<polygon style= "fill: #139696; opacity:1.00 " points="423.32,449.54 426.60,453.60 423.32,453.53 " />
<polygon style= "fill: #005151; opacity:1.00 " points="1282.42,448.88 1285.56,448.81 1285.57,452.80 " />
<polygon style= "fill: #8B908C; opacity:1.00 " points="554.23,392.29 425.93,449.59 425.89,392.54 " />
<polygon style= "fill: #8B908C; opacity:1.00 " points="554.23,392.29 554.27,451.31 425.93,449.59 " />
<polygon style= "fill: #139696; opacity:1.00 " points="423.32,449.54 426.59,449.60 426.60,453.60 " />
<polygon style= "fill: #005151; opacity:1.00 " points="1282.42,448.88 1285.57,452.80 1282.42,452.88 " />
<polygon style= "fill: #149797; opacity:1.00 " points="426.59,449.60 429.93,453.67 426.60,453.60 " />
<polygon style= "fill: #005252; opacity:1.00 " points="1279.21,448.95 1282.42,448.88 1282.42,452.88 " />
<polygon style= "fill: #149797; opacity:1.00 " points="426.59,449.60 429.92,449.67 429.93,453.67 " />
<polygon style= "fill: #005252; opacity:1.00 " points="1279.21,448.95 1282.42,452.88 1279.22,452.95 " />
<polygon style= "fill: #159999; opacity:1.00 " points="429.92,449.67 433.32,453.74 429.93,453.67 " />
<polygon style= "fill: #005252; opacity:1.00 " points="1275.95,449.02 1279.21,448.95 1279.22,452.95 " />
<polygon style= "fill: #159999; opacity:1.00 " points="429.92,449.67 433.31,449.73 433.32,453.74 " />
<polygon style= "fill: #005252; opacity:1.00 " points="1275.95,449.02 1279.22,452.95 1275.96,453.02 " />
<polygon style= "fill: #404341; opacity:1.00 " points="1330.16,391.87 1235.66,449.76 1235.61,391.79 " />
<polygon style= "fill: #169A9A; opacity:1.00 " points="433.31,449.73 436.76,453.80 433.32,453.74 " />
<polygon style= "fill: #005252; opacity:1.00 " points="1272.64,449.09 1275.95,449.02 1275.96,453.02 " />
<polygon style= "fill: #169A9A; opacity:1.00 " points="433.31,449.73 436.76,449.79 436.76,453.80 " />
<polygon style= "fill: #005252; opacity:1.00 " points="1272.64,449.09 1275.96,453.02 1272.64,453.10 " />
<polygon style= "fill: #179B9B; opacity:1.00 " points="436.76,449.79 440.26,453.87 436.76,453.80 " />
<polygon style= "fill: #005252; opacity:1.00 " points="1269.27,449.16 1272.64,449.09 1272.64,453.10 " />
<polygon style= "fill: #179B9B; opacity:1.00 " points="436.76,449.79 440.25,449.86 440.26,453.87 " />
<polygon style= "fill: #005252; opacity:1.00 " points="1269.27,449.16 1272.64,453.10 1269.27,453.17 " />
<polygon style= "fill: #189D9D; opacity:1.00 " points="440.25,449.86 443.81,453.94 440.26,453.87 " />
<polygon style= "fill: #005353; opacity:1.00 " points="1265.84,449.22 1269.27,449.16 1269.27,453.17 " />
<polygon style= "fill: #189D9D; opacity:1.00 " points="440.25,449.86 443.81,449.92 443.81,453.94 " />
<polygon style= "fill: #005353; opacity:1.00 " points="1265.84,449.22 1269.27,453.17 1265.84,453.24 " />
<polygon style= "fill: #199E9E; opacity:1.00 " points="443.81,449.92 447.42,454.00 443.81,453.94 " />
<polygon style= "fill: #005353; opacity:1.00 " points="1262.35,449.29 1265.84,449.22 1265.84,453.24 " />
<polygon style= "fill: #199E9E; opacity:1.00 " points="443.81,449.92 447.42,449.98 447.42,454.00 " />
<polygon style= "fill: #005353; opacity:1.00 " points="1262.35,449.29 1265.84,453.24 1262.36,453.31 " />
<polygon style= "fill: #1A9F9F; opacity:1.00 " points="447.42,449.98 451.08,454.07 447.42,454.00 " />
<polygon style= "fill: #015353; opacity:1.00 " points="1258.82,449.36 1262.35,449.29 1262.36,453.31 " />
<polygon style= "fill: #1A9F9F; opacity:1.00 " points="447.42,449.98 451.08,450.04 451.08,454.07 " />
<polygon style= "fill: #015353; opacity:1.00 " points="1258.82,449.36 1262.36,453.31 1258.82,453.39 " />
<polygon style= "fill: #1BA1A1; opacity:1.00 " points="451.08,450.04 454.80,454.13 451.08,454.07 " />
<polygon style= "fill: #015353; opacity:1.00 " points="1255.22,449.42 1258.82,449.36 1258.82,453.39 " />
<polygon style= "fill: #1BA1A1; opacity:1.00 " points="451.08,450.04 454.79,450.10 454.80,454.13 " />
<polygon style= "fill: #015353; opacity:1.00 " points="1255.22,449.42 1258.82,453.39 1255.23,453.46 " />
<polygon style= "fill: #1CA2A2; opacity:1.00 " points="454.79,450.10 458.57,454.20 454.80,454.13 " />
<polygon style= "fill: #015454; opacity:1.00 " points="1251.57,449.49 1255.22,449.42 1255.23,453.46 " />
<polygon style= "fill: #1CA2A2; opacity:1.00 " points="454.79,450.10 458.56,450.16 458.57,454.20 " />
<polygon style= "fill: #015454; opacity:1.00 " points="1251.57,449.49 1255.23,453.46 1251.58,453.53 " />
<polygon style= "fill: #006565; opacity:1.00 " points="1243.65,449.50 1247.41,449.43 1251.57,449.49 " />
<polygon style= "fill: #1DA3A3; opacity:1.00 " points="458.56,450.16 462.39,454.26 458.57,454.20 " />
<polygon style= "fill: #015454; opacity:1.00 " points="1247.87,449.55 1251.57,449.49 1251.58,453.53 " />
<polygon style= "fill: #1DA3A3; opacity:1.00 " points="458.56,450.16 462.39,450.22 462.39,454.26 " />
<polygon style= "fill: #015454; opacity:1.00 " points="1247.87,449.55 1251.58,453.53 1247.88,453.60 " />
<polygon style= "fill: #1EA4A4; opacity:1.00 " points="462.39,450.22 466.27,454.32 462.39,454.26 " />
<polygon style= "fill: #015454; opacity:1.00 " points="1244.11,449.62 1247.87,449.55 1247.88,453.60 " />
<polygon style= "fill: #1EA4A4; opacity:1.00 " points="462.39,450.22 466.26,450.28 466.27,454.32 " />
<polygon style= "fill: #015454; opacity:1.00 " points="1244.11,449.62 1247.88,453.60 1244.12,453.67 " />
<polygon style= "fill: #1FA5A5; opacity:1.00 " points="466.26,450.28 470.20,454.39 466.27,454.32 " />
<polygon style= "fill: #015555; opacity:1.00 " points="1240.30,449.68 1244.11,449.62 1244.12,453.67 " />
<polygon style= "fill: #1FA5A5; opacity:1.00 " points="466.26,450.28 470.19,450.33 470.20,454.39 " />
<polygon style= "fill: #015555; opacity:1.00 " points="1240.30,449.68 1244.12,453.67 1240.31,453.74 " />
<polygon style= "fill: #20A7A7; opacity:1.00 " points="470.19,450.33 474.18,454.45 470.20,454.39 " />
<polygon style= "fill: #015555; opacity:1.00 " points="1236.44,449.75 1240.30,449.68 1240.31,453.74 " />
<polygon style= "fill: #20A7A7; opacity:1.00 " points="470.19,450.33 474.17,450.39 474.18,454.45 " />
<polygon style= "fill: #015555; opacity:1.00 " points="1236.44,449.75 1240.31,453.74 1236.44,453.80 " />
<polygon style= "fill: #20A8A8; opacity:1.00 " points="474.17,450.39 478.21,454.51 474.18,454.45 " />
<polygon style= "fill: #4E504E; opacity:1.00 " points="1235.61,391.79 1235.66,449.76 1090.56,451.44 " />
<polygon style= "fill: #025555; opacity:1.00 " points="1232.52,449.81 1236.44,449.75 1236.44,453.80 " />
<polygon style= "fill: #006565; opacity:1.00 " points="478.21,450.45 486.82,450.43 482.29,450.50 " />
<polygon style= "fill: #20A8A8; opacity:1.00 " points="474.17,450.39 478.21,450.45 478.21,454.51 " />
<polygon style= "fill: #4E504E; opacity:1.00 " points="1235.67,453.82 1090.62,515.26 1090.57,455.61 " />
<polygon style= "fill: #025555; opacity:1.00 " points="1232.52,449.81 1236.44,453.80 1232.53,453.87 " />
<polygon style= "fill: #21A9A9; opacity:1.00 " points="478.21,454.51 478.21,450.45 482.29,450.50 " />
<polygon style= "fill: #025656; opacity:1.00 " points="1228.56,449.87 1232.52,449.81 1232.53,453.87 " />
<polygon style= "fill: #006565; opacity:1.00 " points="490.55,450.49 495.11,450.42 497.31,450.48 " />
<polygon style= "fill: #006565; opacity:1.00 " points="490.55,450.49 482.29,450.50 486.82,450.43 " />
<polygon style= "fill: #21A9A9; opacity:1.00 " points="478.21,454.51 482.29,450.50 482.29,454.57 " />
<polygon style= "fill: #025656; opacity:1.00 " points="1228.56,449.87 1232.53,453.87 1228.56,453.94 " />
<polygon style= "fill: #22A9A9; opacity:1.00 " points="486.43,450.56 482.29,454.57 482.29,450.50 " />
<polygon style= "fill: #025656; opacity:1.00 " points="1224.53,449.93 1228.56,449.87 1228.56,453.94 " />
<polygon style= "fill: #22A9A9; opacity:1.00 " points="486.43,450.56 486.43,454.63 482.29,454.57 " />
<polygon style= "fill: #025656; opacity:1.00 " points="1224.53,449.93 1228.56,453.94 1224.54,454.01 " />
<polygon style= "fill: #23AAAA; opacity:1.00 " points="486.43,454.63 486.43,450.56 490.61,450.61 " />
<polygon style= "fill: #025757; opacity:1.00 " points="1220.46,450.00 1224.53,449.93 1224.54,454.01 " />
<polygon style= "fill: #004E4E; opacity:1.00 " points="584.35,450.56 587.65,450.48 587.65,454.55 " />
<polygon style= "fill: #23AAAA; opacity:1.00 " points="486.43,454.63 490.61,450.61 490.61,454.69 " />
<polygon style= "fill: #025757; opacity:1.00 " points="1220.46,450.00 1224.54,454.01 1220.47,454.07 " />
<polygon style= "fill: #004E4E; opacity:1.00 " points="584.35,450.56 587.65,454.55 584.36,454.64 " />
<polygon style= "fill: #23ABAB; opacity:1.00 " points="494.85,450.67 490.61,454.69 490.61,450.61 " />
<polygon style= "fill: #035757; opacity:1.00 " points="1216.34,450.06 1220.46,450.00 1220.47,454.07 " />
<polygon style= "fill: #23ABAB; opacity:1.00 " points="494.85,450.67 494.85,454.75 490.61,454.69 " />
<polygon style= "fill: #035757; opacity:1.00 " points="1216.34,450.06 1220.47,454.07 1216.34,454.14 " />
<polygon style= "fill: #004E4E; opacity:1.00 " points="581.05,450.65 584.35,450.56 584.36,454.64 " />
<polygon style= "fill: #24ACAC; opacity:1.00 " points="494.85,454.75 494.85,450.67 499.13,450.72 " />
<polygon style= "fill: #035858; opacity:1.00 " points="1212.16,450.12 1216.34,450.06 1216.34,454.14 " />
<polygon style= "fill: #004E4E; opacity:1.00 " points="581.05,450.65 584.36,454.64 581.05,454.73 " />
<polygon style= "fill: #24ACAC; opacity:1.00 " points="494.85,454.75 499.13,450.72 499.14,454.80 " />
<polygon style= "fill: #035858; opacity:1.00 " points="1212.16,450.12 1216.34,454.14 1212.17,454.20 " />
<polygon style= "fill: #25ACAC; opacity:1.00 " points="499.14,454.80 499.13,450.72 503.47,450.77 " />
<polygon style= "fill: #004E4E; opacity:1.00 " points="577.74,450.73 581.05,450.65 581.05,454.73 " />
<polygon style= "fill: #035858; opacity:1.00 " points="1207.94,450.18 1212.16,450.12 1212.17,454.20 " />
<polygon style= "fill: #8B908C; opacity:1.00 " points="554.28,455.44 554.32,514.46 425.98,510.64 " />
<polygon style= "fill: #25ACAC; opacity:1.00 " points="499.14,454.80 503.47,450.77 503.47,454.86 " />
<polygon style= "fill: #035858; opacity:1.00 " points="1207.94,450.18 1212.17,454.20 1207.94,454.27 " />
<polygon style= "fill: #25ADAD; opacity:1.00 " points="503.47,454.86 503.47,450.77 507.85,450.82 " />
<polygon style= "fill: #045959; opacity:1.00 " points="1203.66,450.24 1207.94,450.18 1207.94,454.27 " />
<polygon style= "fill: #25ADAD; opacity:1.00 " points="503.47,454.86 507.85,450.82 507.86,454.92 " />
<polygon style= "fill: #045959; opacity:1.00 " points="1203.66,450.24 1207.94,454.27 1203.66,454.33 " />
<polygon style= "fill: #004E4E; opacity:1.00 " points="574.42,450.81 577.74,450.73 577.74,454.82 " />
<polygon style= "fill: #004E4E; opacity:1.00 " points="574.42,450.81 577.74,454.82 574.42,454.90 " />
<polygon style= "fill: #25ADAD; opacity:1.00 " points="507.86,454.92 507.85,450.82 512.29,450.88 " />
<polygon style= "fill: #045A5A; opacity:1.00 " points="1199.33,450.30 1203.66,450.24 1203.66,454.33 " />
<polygon style= "fill: #25ADAD; opacity:1.00 " points="507.86,454.92 512.29,450.88 512.29,454.97 " />
<polygon style= "fill: #045A5A; opacity:1.00 " points="1199.33,450.30 1203.66,454.33 1199.34,454.39 " />
<polygon style= "fill: #4E504E; opacity:1.00 " points="1235.67,453.82 1235.72,511.79 1090.62,515.26 " />
<polygon style= "fill: #26AEAE; opacity:1.00 " points="516.77,450.93 512.29,454.97 512.29,450.88 " />
<polygon style= "fill: #055A5A; opacity:1.00 " points="1194.96,450.35 1199.33,450.30 1199.34,454.39 " />
<polygon style= "fill: #26AEAE; opacity:1.00 " points="516.77,450.93 516.77,455.03 512.29,454.97 " />
<polygon style= "fill: #055A5A; opacity:1.00 " points="1194.96,450.35 1199.34,454.39 1194.96,454.45 " />
<polygon style= "fill: #26AEAE; opacity:1.00 " points="516.77,455.03 516.77,450.93 521.29,450.98 " />
<polygon style= "fill: #055B5B; opacity:1.00 " points="1190.54,450.41 1194.96,450.35 1194.96,454.45 " />
<polygon style= "fill: #26AEAE; opacity:1.00 " points="516.77,455.03 521.29,450.98 521.30,455.08 " />
<polygon style= "fill: #055B5B; opacity:1.00 " points="1190.54,450.41 1194.96,454.45 1190.54,454.52 " />
<polygon style= "fill: #26AEAE; opacity:1.00 " points="521.30,455.08 521.29,450.98 525.87,451.03 " />
<polygon style= "fill: #065C5C; opacity:1.00 " points="1186.06,450.47 1190.54,450.41 1190.54,454.52 " />
<polygon style= "fill: #006565; opacity:1.00 " points="1177.80,450.45 1182.26,450.40 1186.06,450.47 " />
<polygon style= "fill: #26AEAE; opacity:1.00 " points="521.30,455.08 525.87,451.03 525.87,455.13 " />
<polygon style= "fill: #065C5C; opacity:1.00 " points="1186.06,450.47 1190.54,454.52 1186.07,454.58 " />
<polygon style= "fill: #006565; opacity:1.00 " points="1169.82,450.43 1177.80,450.45 1173.31,450.50 " />
<polygon style= "fill: #27AEAE; opacity:1.00 " points="530.49,451.07 525.87,455.13 525.87,451.03 " />
<polygon style= "fill: #065D5D; opacity:1.00 " points="1181.54,450.52 1186.06,450.47 1186.07,454.58 " />
<polygon style= "fill: #27AEAE; opacity:1.00 " points="530.49,451.07 530.49,455.19 525.87,455.13 " />
<polygon style= "fill: #065D5D; opacity:1.00 " points="1181.54,450.52 1186.07,454.58 1181.55,454.64 " />
<polygon style= "fill: #27AEAE; opacity:1.00 " points="535.16,451.12 530.49,455.19 530.49,451.07 " />
<polygon style= "fill: #075E5E; opacity:1.00 " points="1176.98,450.58 1181.54,450.52 1181.55,454.64 " />
<polygon style= "fill: #27AEAE; opacity:1.00 " points="535.16,451.12 535.16,455.24 530.49,455.19 " />
<polygon style= "fill: #075E5E; opacity:1.00 " points="1176.98,450.58 1181.55,454.64 1176.98,454.70 " />
<polygon style= "fill: #27AEAE; opacity:1.00 " points="539.87,451.17 535.16,455.24 535.16,451.12 " />
<polygon style= "fill: #085F5F; opacity:1.00 " points="1172.36,450.64 1176.98,450.58 1176.98,454.70 " />
<polygon style= "fill: #27AEAE; opacity:1.00 " points="539.87,451.17 539.87,455.29 535.16,455.24 " />
<polygon style= "fill: #085F5F; opacity:1.00 " points="1172.36,450.64 1176.98,454.70 1172.37,454.76 " />
<polygon style= "fill: #27ADAD; opacity:1.00 " points="539.87,455.29 539.87,451.17 544.63,451.22 " />
<polygon style= "fill: #096060; opacity:1.00 " points="1167.71,450.69 1172.36,450.64 1172.37,454.76 " />
<polygon style= "fill: #27ADAD; opacity:1.00 " points="539.87,455.29 544.63,451.22 544.63,455.34 " />
<polygon style= "fill: #096060; opacity:1.00 " points="1167.71,450.69 1172.37,454.76 1167.71,454.81 " />
<polygon style= "fill: #26ADAD; opacity:1.00 " points="544.63,455.34 544.63,451.22 549.43,451.26 " />
<polygon style= "fill: #096161; opacity:1.00 " points="1163.00,450.74 1167.71,450.69 1167.71,454.81 " />
<polygon style= "fill: #26ADAD; opacity:1.00 " points="544.63,455.34 549.43,451.26 549.43,455.39 " />
<polygon style= "fill: #096161; opacity:1.00 " points="1163.00,450.74 1167.71,454.81 1163.00,454.87 " />
<polygon style= "fill: #26ADAD; opacity:1.00 " points="549.43,455.39 549.43,451.26 554.27,451.31 " />
<polygon style= "fill: #0A6262; opacity:1.00 " points="1158.25,454.93 1163.00,450.74 1163.00,454.87 " />
<polygon style= "fill: #26ADAD; opacity:1.00 " points="549.43,455.39 554.27,451.31 554.28,455.44 " />
<polygon style= "fill: #0A6262; opacity:1.00 " points="1158.25,454.93 1158.25,450.80 1163.00,450.74 " />
<polygon style= "fill: #828683; opacity:1.00 " points="723.55,392.06 723.60,452.28 554.27,451.31 " />
<polygon style= "fill: #26ACAC; opacity:1.00 " points="559.16,451.35 554.28,455.44 554.27,451.31 " />
<polygon style= "fill: #0B6464; opacity:1.00 " points="1158.25,450.80 1158.25,454.93 1153.46,454.98 " />
<polygon style= "fill: #828683; opacity:1.00 " points="723.60,456.50 554.32,514.46 554.28,455.44 " />
<polygon style= "fill: #26ACAC; opacity:1.00 " points="559.16,451.35 559.16,455.49 554.28,455.44 " />
<polygon style= "fill: #0B6464; opacity:1.00 " points="1158.25,450.80 1153.46,454.98 1153.46,450.85 " />
<polygon style= "fill: #26ACAC; opacity:1.00 " points="559.16,455.49 559.16,451.35 564.09,451.39 " />
<polygon style= "fill: #4E504E; opacity:1.00 " points="1235.61,391.79 1090.56,451.44 1090.51,391.79 " />
<polygon style= "fill: #0C6565; opacity:1.00 " points="1148.62,455.04 1153.46,450.85 1153.46,454.98 " />
<polygon style= "fill: #26ACAC; opacity:1.00 " points="559.16,455.49 564.09,451.39 564.09,455.53 " />
<polygon style= "fill: #0C6565; opacity:1.00 " points="1148.62,455.04 1148.62,450.90 1153.46,450.85 " />
<polygon style= "fill: #25ABAB; opacity:1.00 " points="569.06,451.44 564.09,455.53 564.09,451.39 " />
<polygon style= "fill: #0D6666; opacity:1.00 " points="1148.62,450.90 1148.62,455.04 1143.74,455.09 " />
<polygon style= "fill: #25ABAB; opacity:1.00 " points="569.06,451.44 569.07,455.58 564.09,455.53 " />
<polygon style= "fill: #0D6666; opacity:1.00 " points="1148.62,450.90 1143.74,455.09 1143.74,450.95 " />
<polygon style= "fill: #25AAAA; opacity:1.00 " points="569.07,455.58 569.06,451.44 574.08,451.48 " />
<polygon style= "fill: #0E6868; opacity:1.00 " points="1138.82,455.15 1143.74,450.95 1143.74,455.09 " />
<polygon style= "fill: #25AAAA; opacity:1.00 " points="569.07,455.58 574.08,451.48 574.08,455.62 " />
<polygon style= "fill: #0E6868; opacity:1.00 " points="1138.82,455.15 1138.81,451.00 1143.74,450.95 " />
<polygon style= "fill: #25A9A9; opacity:1.00 " points="574.08,451.48 579.13,455.67 574.08,455.62 " />
<polygon style= "fill: #106A6A; opacity:1.00 " points="1133.85,455.20 1138.81,451.00 1138.82,455.15 " />
<polygon style= "fill: #25A9A9; opacity:1.00 " points="574.08,451.48 579.13,451.52 579.13,455.67 " />
<polygon style= "fill: #106A6A; opacity:1.00 " points="1133.85,455.20 1133.85,451.05 1138.81,451.00 " />
<polygon style= "fill: #24A9A9; opacity:1.00 " points="579.13,451.52 584.23,455.71 579.13,455.67 " />
<polygon style= "fill: #116B6B; opacity:1.00 " points="1128.84,455.25 1133.85,451.05 1133.85,455.20 " />
<polygon style= "fill: #24A9A9; opacity:1.00 " points="579.13,451.52 584.22,451.56 584.23,455.71 " />
<polygon style= "fill: #116B6B; opacity:1.00 " points="1128.84,455.25 1128.84,451.10 1133.85,451.05 " />
<polygon style= "fill: #23A8A8; opacity:1.00 " points="584.22,451.56 589.36,455.75 584.23,455.71 " />
<polygon style= "fill: #126D6D; opacity:1.00 " points="1128.84,451.10 1128.84,455.25 1123.79,455.30 " />
<polygon style= "fill: #23A8A8; opacity:1.00 " points="584.22,451.56 589.36,451.60 589.36,455.75 " />
<polygon style= "fill: #126D6D; opacity:1.00 " points="1128.84,451.10 1123.79,455.30 1123.79,451.15 " />
<polygon style= "fill: #23A7A7; opacity:1.00 " points="589.36,451.60 594.53,455.80 589.36,455.75 " />
<polygon style= "fill: #136F6F; opacity:1.00 " points="1123.79,451.15 1123.79,455.30 1118.71,455.35 " />
<polygon style= "fill: #23A7A7; opacity:1.00 " points="589.36,451.60 594.53,451.64 594.53,455.80 " />
<polygon style= "fill: #136F6F; opacity:1.00 " points="1123.79,451.15 1118.71,455.35 1118.70,451.19 " />
<polygon style= "fill: #828683; opacity:1.00 " points="723.55,392.06 554.27,451.31 554.23,392.29 " />
<polygon style= "fill: #22A6A6; opacity:1.00 " points="594.53,451.64 599.74,455.84 594.53,455.80 " />
<polygon style= "fill: #157171; opacity:1.00 " points="1118.70,451.19 1118.71,455.35 1113.58,455.40 " />
<polygon style= "fill: #22A6A6; opacity:1.00 " points="594.53,451.64 599.74,451.67 599.74,455.84 " />
<polygon style= "fill: #157171; opacity:1.00 " points="1118.70,451.19 1113.58,455.40 1113.57,451.24 " />
<polygon style= "fill: #22A5A5; opacity:1.00 " points="599.74,451.67 604.99,455.88 599.74,455.84 " />
<polygon style= "fill: #167272; opacity:1.00 " points="1108.41,455.45 1113.57,451.24 1113.58,455.40 " />
<polygon style= "fill: #22A5A5; opacity:1.00 " points="599.74,451.67 604.98,451.71 604.99,455.88 " />
<polygon style= "fill: #167272; opacity:1.00 " points="1108.41,455.45 1108.41,451.29 1113.57,451.24 " />
<polygon style= "fill: #21A4A4; opacity:1.00 " points="604.98,451.71 610.27,455.92 604.99,455.88 " />
<polygon style= "fill: #187474; opacity:1.00 " points="1103.21,455.50 1108.41,451.29 1108.41,455.45 " />
<polygon style= "fill: #21A4A4; opacity:1.00 " points="604.98,451.71 610.27,451.75 610.27,455.92 " />
<polygon style= "fill: #187474; opacity:1.00 " points="1103.21,455.50 1103.20,451.33 1108.41,451.29 " />
<polygon style= "fill: #21A2A2; opacity:1.00 " points="610.27,451.75 615.59,455.95 610.27,455.92 " />
<polygon style= "fill: #197676; opacity:1.00 " points="1103.20,451.33 1103.21,455.50 1097.97,455.55 " />
<polygon style= "fill: #21A2A2; opacity:1.00 " points="610.27,451.75 615.58,451.78 615.59,455.95 " />
<polygon style= "fill: #197676; opacity:1.00 " points="1103.20,451.33 1097.97,455.55 1097.96,451.38 " />
<polygon style= "fill: #20A1A1; opacity:1.00 " points="615.58,451.78 620.94,455.99 615.59,455.95 " />
<polygon style= "fill: #1B7878; opacity:1.00 " points="1092.69,455.59 1097.96,451.38 1097.97,455.55 " />
<polygon style= "fill: #20A1A1; opacity:1.00 " points="615.58,451.78 620.94,451.82 620.94,455.99 " />
<polygon style= "fill: #1B7878; opacity:1.00 " points="1092.69,455.59 1092.68,451.42 1097.96,451.38 " />
<polygon style= "fill: #868987; opacity:1.00 " points="1090.51,391.79 1090.56,451.44 911.51,452.33 " />
<polygon style= "fill: #006565; opacity:1.00 " points="1082.02,451.50 1078.88,451.41 1084.37,451.37 " />
<polygon style= "fill: #1FA0A0; opacity:1.00 " points="620.94,451.82 626.33,456.03 620.94,455.99 " />
<polygon style= "fill: #868987; opacity:1.00 " points="1090.57,455.61 911.56,517.01 911.51,456.56 " />
<polygon style= "fill: #1C7B7B; opacity:1.00 " points="1087.37,455.64 1092.68,451.42 1092.69,455.59 " />
<polygon style= "fill: #006565; opacity:1.00 " points="1082.02,451.50 1084.37,451.37 1087.37,451.46 " />
<polygon style= "fill: #1FA0A0; opacity:1.00 " points="620.94,451.82 626.33,451.85 626.33,456.03 " />
<polygon style= "fill: #1C7B7B; opacity:1.00 " points="1087.37,455.64 1087.37,451.46 1092.68,451.42 " />
<polygon style= "fill: #1F9F9F; opacity:1.00 " points="626.33,451.85 631.75,456.06 626.33,456.03 " />
<polygon style= "fill: #1E7D7D; opacity:1.00 " points="1082.02,455.68 1087.37,451.46 1087.37,455.64 " />
<polygon style= "fill: #006565; opacity:1.00 " points="1076.64,451.54 1078.88,451.41 1082.02,451.50 " />
<polygon style= "fill: #1F9F9F; opacity:1.00 " points="626.33,451.85 631.75,451.88 631.75,456.06 " />
<polygon style= "fill: #1E7D7D; opacity:1.00 " points="1082.02,455.68 1082.02,451.50 1087.37,451.46 " />
<polygon style= "fill: #1E9E9E; opacity:1.00 " points="631.75,451.88 637.21,456.10 631.75,456.06 " />
<polygon style= "fill: #207F7F; opacity:1.00 " points="1076.64,455.73 1082.02,451.50 1082.02,455.68 " />
<polygon style= "fill: #1E9E9E; opacity:1.00 " points="631.75,451.88 637.20,451.91 637.21,456.10 " />
<polygon style= "fill: #207F7F; opacity:1.00 " points="1076.64,455.73 1076.64,451.54 1082.02,451.50 " />
<polygon style= "fill: #1E9D9D; opacity:1.00 " points="637.20,451.91 642.69,456.13 637.21,456.10 " />
<polygon style= "fill: #218181; opacity:1.00 " points="1076.64,451.54 1076.64,455.73 1071.22,455.77 " />
<polygon style= "fill: #1E9D9D; opacity:1.00 " points="637.20,451.91 642.69,451.94 642.69,456.13 " />
<polygon style= "fill: #218181; opacity:1.00 " points="1076.64,451.54 1071.22,455.77 1071.22,451.58 " />
<polygon style= "fill: #1D9C9C; opacity:1.00 " points="642.69,451.94 648.21,456.16 642.69,456.13 " />
<polygon style= "fill: #238383; opacity:1.00 " points="1065.77,455.81 1071.22,451.58 1071.22,455.77 " />
<polygon style= "fill: #1D9C9C; opacity:1.00 " points="642.69,451.94 648.21,451.97 648.21,456.16 " />
<polygon style= "fill: #238383; opacity:1.00 " points="1065.77,455.81 1065.77,451.62 1071.22,451.58 " />
<polygon style= "fill: #828683; opacity:1.00 " points="723.60,456.50 723.65,516.73 554.32,514.46 " />
<polygon style= "fill: #1D9B9B; opacity:1.00 " points="648.21,451.97 653.76,456.19 648.21,456.16 " />
<polygon style= "fill: #258585; opacity:1.00 " points="1065.77,451.62 1065.77,455.81 1060.29,455.85 " />
<polygon style= "fill: #1D9B9B; opacity:1.00 " points="648.21,451.97 653.75,452.00 653.76,456.19 " />
<polygon style= "fill: #258585; opacity:1.00 " points="1065.77,451.62 1060.29,455.85 1060.28,451.66 " />
<polygon style= "fill: #1C9B9B; opacity:1.00 " points="653.75,452.00 659.34,456.22 653.76,456.19 " />
<polygon style= "fill: #268888; opacity:1.00 " points="1054.77,455.89 1060.28,451.66 1060.29,455.85 " />
<polygon style= "fill: #1C9B9B; opacity:1.00 " points="653.75,452.00 659.33,452.03 659.34,456.22 " />
<polygon style= "fill: #268888; opacity:1.00 " points="1054.77,455.89 1054.77,451.70 1060.28,451.66 " />
<polygon style= "fill: #1C9A9A; opacity:1.00 " points="659.33,452.03 664.94,456.25 659.34,456.22 " />
<polygon style= "fill: #288A8A; opacity:1.00 " points="1049.22,451.73 1054.77,451.70 1054.77,455.89 " />
<polygon style= "fill: #868987; opacity:1.00 " points="1090.57,455.61 1090.62,515.26 911.56,517.01 " />
<polygon style= "fill: #1C9A9A; opacity:1.00 " points="659.33,452.03 664.94,452.06 664.94,456.25 " />
<polygon style= "fill: #288A8A; opacity:1.00 " points="1049.22,451.73 1054.77,455.89 1049.23,455.93 " />
<polygon style= "fill: #1B9999; opacity:1.00 " points="664.94,452.06 670.58,456.28 664.94,456.25 " />
<polygon style= "fill: #2A8D8D; opacity:1.00 " points="1043.65,451.77 1049.22,451.73 1049.23,455.93 " />
<polygon style= "fill: #1B9999; opacity:1.00 " points="664.94,452.06 670.57,452.08 670.58,456.28 " />
<polygon style= "fill: #2A8D8D; opacity:1.00 " points="1043.65,451.77 1049.23,455.93 1043.65,455.97 " />
<polygon style= "fill: #1B9898; opacity:1.00 " points="670.57,452.08 676.24,456.31 670.58,456.28 " />
<polygon style= "fill: #2B8F8F; opacity:1.00 " points="1038.04,451.80 1043.65,451.77 1043.65,455.97 " />
<polygon style= "fill: #1B9898; opacity:1.00 " points="670.57,452.08 676.24,452.11 676.24,456.31 " />
<polygon style= "fill: #2B8F8F; opacity:1.00 " points="1038.04,451.80 1043.65,455.97 1038.05,456.00 " />
<polygon style= "fill: #1B9898; opacity:1.00 " points="676.24,452.11 681.93,456.34 676.24,456.31 " />
<polygon style= "fill: #2D9292; opacity:1.00 " points="1032.41,451.84 1038.04,451.80 1038.05,456.00 " />
<polygon style= "fill: #1B9898; opacity:1.00 " points="676.24,452.11 681.93,452.13 681.93,456.34 " />
<polygon style= "fill: #2D9292; opacity:1.00 " points="1032.41,451.84 1038.05,456.00 1032.41,456.04 " />
<polygon style= "fill: #1B9797; opacity:1.00 " points="681.93,452.13 687.64,456.36 681.93,456.34 " />
<polygon style= "fill: #2F9494; opacity:1.00 " points="1026.75,451.87 1032.41,451.84 1032.41,456.04 " />
<polygon style= "fill: #1B9797; opacity:1.00 " points="681.93,452.13 687.64,452.16 687.64,456.36 " />
<polygon style= "fill: #2F9494; opacity:1.00 " points="1026.75,451.87 1032.41,456.04 1026.75,456.08 " />
<polygon style= "fill: #1B9797; opacity:1.00 " points="687.64,452.16 693.38,456.39 687.64,456.36 " />
<polygon style= "fill: #309696; opacity:1.00 " points="1021.06,451.90 1026.75,451.87 1026.75,456.08 " />
<polygon style= "fill: #1B9797; opacity:1.00 " points="687.64,452.16 693.38,452.18 693.38,456.39 " />
<polygon style= "fill: #309696; opacity:1.00 " points="1021.06,451.90 1026.75,456.08 1021.07,456.11 " />
<polygon style= "fill: #1B9797; opacity:1.00 " points="693.38,452.18 699.15,456.41 693.38,456.39 " />
<polygon style= "fill: #329898; opacity:1.00 " points="1015.35,451.93 1021.06,451.90 1021.07,456.11 " />
<polygon style= "fill: #1B9797; opacity:1.00 " points="693.38,452.18 699.14,452.20 699.15,456.41 " />
<polygon style= "fill: #329898; opacity:1.00 " points="1015.35,451.93 1021.07,456.11 1015.36,456.14 " />
<polygon style= "fill: #1B9696; opacity:1.00 " points="699.14,452.20 704.93,456.43 699.15,456.41 " />
<polygon style= "fill: #339B9B; opacity:1.00 " points="1009.61,451.96 1015.35,451.93 1015.36,456.14 " />
<polygon style= "fill: #1B9696; opacity:1.00 " points="699.14,452.20 704.93,452.22 704.93,456.43 " />
<polygon style= "fill: #339B9B; opacity:1.00 " points="1009.61,451.96 1015.36,456.14 1009.62,456.18 " />
<polygon style= "fill: #1B9696; opacity:1.00 " points="704.93,452.22 710.74,456.45 704.93,456.43 " />
<polygon style= "fill: #349D9D; opacity:1.00 " points="1003.85,451.99 1009.61,451.96 1009.62,456.18 " />
<polygon style= "fill: #1B9696; opacity:1.00 " points="704.93,452.22 710.74,452.24 710.74,456.45 " />
<polygon style= "fill: #349D9D; opacity:1.00 " points="1003.85,451.99 1009.62,456.18 1003.86,456.21 " />
<polygon style= "fill: #1C9696; opacity:1.00 " points="710.74,452.24 716.57,456.47 710.74,456.45 " />
<polygon style= "fill: #369F9F; opacity:1.00 " points="998.07,452.02 1003.85,451.99 1003.86,456.21 " />
<polygon style= "fill: #868987; opacity:1.00 " points="1090.51,391.79 911.51,452.33 911.45,391.88 " />
<polygon style= "fill: #1C9696; opacity:1.00 " points="710.74,452.24 716.57,452.26 716.57,456.47 " />
<polygon style= "fill: #369F9F; opacity:1.00 " points="998.07,452.02 1003.86,456.21 998.07,456.24 " />
<polygon style= "fill: #1C9696; opacity:1.00 " points="716.57,452.26 722.43,456.49 716.57,456.47 " />
<polygon style= "fill: #37A1A1; opacity:1.00 " points="992.26,452.05 998.07,452.02 998.07,456.24 " />
<polygon style= "fill: #1C9696; opacity:1.00 " points="716.57,452.26 722.42,452.28 722.43,456.49 " />
<polygon style= "fill: #37A1A1; opacity:1.00 " points="992.26,452.05 998.07,456.24 992.26,456.27 " />
<polygon style= "fill: #898D8A; opacity:1.00 " points="911.51,456.56 723.65,516.73 723.60,456.50 " />
<polygon style= "fill: #1C9797; opacity:1.00 " points="722.42,452.28 728.30,456.51 722.43,456.49 " />
<polygon style= "fill: #38A3A3; opacity:1.00 " points="986.43,452.08 992.26,452.05 992.26,456.27 " />
<polygon style= "fill: #898D8A; opacity:1.00 " points="911.45,391.88 723.60,452.28 723.55,392.06 " />
<polygon style= "fill: #898D8A; opacity:1.00 " points="911.45,391.88 911.51,452.33 723.60,452.28 " />
<polygon style= "fill: #1C9797; opacity:1.00 " points="722.42,452.28 728.29,452.29 728.30,456.51 " />
<polygon style= "fill: #38A3A3; opacity:1.00 " points="986.43,452.08 992.26,456.27 986.43,456.29 " />
<polygon style= "fill: #1D9797; opacity:1.00 " points="728.29,452.29 734.19,456.53 728.30,456.51 " />
<polygon style= "fill: #39A5A5; opacity:1.00 " points="980.58,452.10 986.43,452.08 986.43,456.29 " />
<polygon style= "fill: #1D9797; opacity:1.00 " points="728.29,452.29 734.18,452.31 734.19,456.53 " />
<polygon style= "fill: #39A5A5; opacity:1.00 " points="980.58,452.10 986.43,456.29 980.58,456.32 " />
<polygon style= "fill: #1E9797; opacity:1.00 " points="734.18,452.31 740.09,456.55 734.19,456.53 " />
<polygon style= "fill: #3AA7A7; opacity:1.00 " points="974.71,452.13 980.58,452.10 980.58,456.32 " />
<polygon style= "fill: #1E9797; opacity:1.00 " points="734.18,452.31 740.09,452.33 740.09,456.55 " />
<polygon style= "fill: #3AA7A7; opacity:1.00 " points="974.71,452.13 980.58,456.32 974.72,456.35 " />
<polygon style= "fill: #1E9898; opacity:1.00 " points="740.09,452.33 746.02,456.56 740.09,456.55 " />
<polygon style= "fill: #3BA9A9; opacity:1.00 " points="968.82,452.15 974.71,452.13 974.72,456.35 " />
<polygon style= "fill: #1E9898; opacity:1.00 " points="740.09,452.33 746.02,452.34 746.02,456.56 " />
<polygon style= "fill: #3BA9A9; opacity:1.00 " points="968.82,452.15 974.72,456.35 968.83,456.37 " />
<polygon style= "fill: #1F9999; opacity:1.00 " points="746.02,456.56 746.02,452.34 751.96,452.35 " />
<polygon style= "fill: #3CAAAA; opacity:1.00 " points="962.92,452.17 968.82,452.15 968.83,456.37 " />
<polygon style= "fill: #1F9999; opacity:1.00 " points="746.02,456.56 751.96,452.35 751.96,456.57 " />
<polygon style= "fill: #3CAAAA; opacity:1.00 " points="962.92,452.17 968.83,456.37 962.92,456.40 " />
<polygon style= "fill: #209999; opacity:1.00 " points="757.91,452.36 751.96,456.57 751.96,452.35 " />
<polygon style= "fill: #3CACAC; opacity:1.00 " points="956.99,452.20 962.92,452.17 962.92,456.40 " />
<polygon style= "fill: #209999; opacity:1.00 " points="757.91,452.36 757.92,456.59 751.96,456.57 " />
<polygon style= "fill: #3CACAC; opacity:1.00 " points="956.99,452.20 962.92,456.40 957.00,456.42 " />
<polygon style= "fill: #219A9A; opacity:1.00 " points="757.92,456.59 757.91,452.36 763.88,452.37 " />
<polygon style= "fill: #3DADAD; opacity:1.00 " points="951.05,452.22 956.99,452.20 957.00,456.42 " />
<polygon style= "fill: #219A9A; opacity:1.00 " points="757.92,456.59 763.88,452.37 763.89,456.60 " />
<polygon style= "fill: #3DADAD; opacity:1.00 " points="951.05,452.22 957.00,456.42 951.06,456.44 " />
<polygon style= "fill: #229B9B; opacity:1.00 " points="769.87,452.38 763.89,456.60 763.88,452.37 " />
<polygon style= "fill: #3DAEAE; opacity:1.00 " points="945.10,452.24 951.05,452.22 951.06,456.44 " />
<polygon style= "fill: #229B9B; opacity:1.00 " points="769.87,452.38 769.87,456.61 763.89,456.60 " />
<polygon style= "fill: #3DAEAE; opacity:1.00 " points="945.10,452.24 951.06,456.44 945.10,456.46 " />
<polygon style= "fill: #898D8A; opacity:1.00 " points="911.51,456.56 911.56,517.01 723.65,516.73 " />
<polygon style= "fill: #239C9C; opacity:1.00 " points="769.87,456.61 769.87,452.38 775.87,452.39 " />
<polygon style= "fill: #3DAFAF; opacity:1.00 " points="939.13,452.26 945.10,452.24 945.10,456.46 " />
<polygon style= "fill: #239C9C; opacity:1.00 " points="769.87,456.61 775.87,452.39 775.87,456.62 " />
<polygon style= "fill: #3DAFAF; opacity:1.00 " points="939.13,452.26 945.10,456.46 939.13,456.48 " />
<polygon style= "fill: #249D9D; opacity:1.00 " points="775.87,456.62 775.87,452.39 781.87,452.40 " />
<polygon style= "fill: #3DB0B0; opacity:1.00 " points="933.14,452.27 939.13,452.26 939.13,456.48 " />
<polygon style= "fill: #249D9D; opacity:1.00 " points="775.87,456.62 781.87,452.40 781.88,456.63 " />
<polygon style= "fill: #3DB0B0; opacity:1.00 " points="933.14,452.27 939.13,456.48 933.15,456.50 " />
<polygon style= "fill: #269E9E; opacity:1.00 " points="781.88,456.63 781.87,452.40 787.89,452.41 " />
<polygon style= "fill: #3DB0B0; opacity:1.00 " points="927.15,452.29 933.14,452.27 933.15,456.50 " />
<polygon style= "fill: #269E9E; opacity:1.00 " points="781.88,456.63 787.89,452.41 787.90,456.64 " />
<polygon style= "fill: #3DB0B0; opacity:1.00 " points="927.15,452.29 933.15,456.50 927.15,456.52 " />
<polygon style= "fill: #279F9F; opacity:1.00 " points="787.90,456.64 787.89,452.41 793.92,452.41 " />
<polygon style= "fill: #3DB1B1; opacity:1.00 " points="921.14,452.31 927.15,452.29 927.15,456.52 " />
<polygon style= "fill: #279F9F; opacity:1.00 " points="787.90,456.64 793.92,452.41 793.93,456.64 " />
<polygon style= "fill: #3DB1B1; opacity:1.00 " points="921.14,452.31 927.15,456.52 921.14,456.54 " />
<polygon style= "fill: #28A0A0; opacity:1.00 " points="799.96,452.42 793.93,456.64 793.92,452.41 " />
<polygon style= "fill: #3DB1B1; opacity:1.00 " points="915.12,452.32 921.14,452.31 921.14,456.54 " />
<polygon style= "fill: #28A0A0; opacity:1.00 " points="799.96,452.42 799.96,456.65 793.93,456.64 " />
<polygon style= "fill: #3DB1B1; opacity:1.00 " points="915.12,452.32 921.14,456.54 915.13,456.55 " />
<polygon style= "fill: #2AA2A2; opacity:1.00 " points="799.96,456.65 799.96,452.42 806.01,452.42 " />
<polygon style= "fill: #3DB1B1; opacity:1.00 " points="909.09,452.34 915.12,452.32 915.13,456.55 " />
<polygon style= "fill: #2AA2A2; opacity:1.00 " points="799.96,456.65 806.01,452.42 806.01,456.65 " />
<polygon style= "fill: #3DB1B1; opacity:1.00 " points="909.09,452.34 915.13,456.55 909.10,456.57 " />
<polygon style= "fill: #2BA3A3; opacity:1.00 " points="806.01,456.65 806.01,452.42 812.06,452.43 " />
<polygon style= "fill: #3CB1B1; opacity:1.00 " points="903.06,452.35 909.09,452.34 909.10,456.57 " />
<polygon style= "fill: #2BA3A3; opacity:1.00 " points="806.01,456.65 812.06,452.43 812.06,456.66 " />
<polygon style= "fill: #3CB1B1; opacity:1.00 " points="903.06,452.35 909.10,456.57 903.06,456.58 " />
<polygon style= "fill: #2CA4A4; opacity:1.00 " points="818.12,452.43 812.06,456.66 812.06,452.43 " />
<polygon style= "fill: #3CB1B1; opacity:1.00 " points="897.01,452.36 903.06,452.35 903.06,456.58 " />
<polygon style= "fill: #2CA4A4; opacity:1.00 " points="818.12,452.43 818.12,456.66 812.06,456.66 " />
<polygon style= "fill: #3CB1B1; opacity:1.00 " points="897.01,452.36 903.06,456.58 897.01,456.59 " />
<polygon style= "fill: #2EA5A5; opacity:1.00 " points="824.18,452.43 818.12,456.66 818.12,452.43 " />
<polygon style= "fill: #3BB1B1; opacity:1.00 " points="890.96,452.37 897.01,452.36 897.01,456.59 " />
<polygon style= "fill: #2EA5A5; opacity:1.00 " points="824.18,452.43 824.19,456.66 818.12,456.66 " />
<polygon style= "fill: #3BB1B1; opacity:1.00 " points="890.96,452.37 897.01,456.59 890.96,456.61 " />
<polygon style= "fill: #2FA7A7; opacity:1.00 " points="830.25,452.43 824.19,456.66 824.18,452.43 " />
<polygon style= "fill: #3AB0B0; opacity:1.00 " points="884.90,452.38 890.96,452.37 890.96,456.61 " />
<polygon style= "fill: #2FA7A7; opacity:1.00 " points="830.25,452.43 830.25,456.66 824.19,456.66 " />
<polygon style= "fill: #3AB0B0; opacity:1.00 " points="884.90,452.38 890.96,456.61 884.90,456.62 " />
<polygon style= "fill: #30A8A8; opacity:1.00 " points="830.25,456.66 830.25,452.43 836.32,452.43 " />
<polygon style= "fill: #3AB0B0; opacity:1.00 " points="878.84,452.39 884.90,452.38 884.90,456.62 " />
<polygon style= "fill: #30A8A8; opacity:1.00 " points="830.25,456.66 836.32,452.43 836.33,456.66 " />
<polygon style= "fill: #3AB0B0; opacity:1.00 " points="878.84,452.39 884.90,456.62 878.84,456.63 " />
<polygon style= "fill: #32A9A9; opacity:1.00 " points="836.33,456.66 836.32,452.43 842.40,452.42 " />
<polygon style= "fill: #39AFAF; opacity:1.00 " points="872.77,452.40 878.84,452.39 878.84,456.63 " />
<polygon style= "fill: #32A9A9; opacity:1.00 " points="836.33,456.66 842.40,452.42 842.40,456.66 " />
<polygon style= "fill: #39AFAF; opacity:1.00 " points="872.77,452.40 878.84,456.63 872.77,456.63 " />
<polygon style= "fill: #33AAAA; opacity:1.00 " points="842.40,456.66 842.40,452.42 848.47,452.42 " />
<polygon style= "fill: #38AEAE; opacity:1.00 " points="866.70,456.64 872.77,452.40 872.77,456.63 " />
<polygon style= "fill: #33AAAA; opacity:1.00 " points="842.40,456.66 848.47,452.42 848.47,456.66 " />
<polygon style= "fill: #38AEAE; opacity:1.00 " points="866.70,456.64 866.70,452.41 872.77,452.40 " />
<polygon style= "fill: #34ABAB; opacity:1.00 " points="854.55,452.42 848.47,456.66 848.47,452.42 " />
<polygon style= "fill: #37ADAD; opacity:1.00 " points="866.70,452.41 866.70,456.64 860.63,456.65 " />
<polygon style= "fill: #34ABAB; opacity:1.00 " points="854.55,452.42 854.55,456.65 848.47,456.66 " />
<polygon style= "fill: #37ADAD; opacity:1.00 " points="866.70,452.41 860.63,456.65 860.62,452.41 " />
<polygon style= "fill: #35ACAC; opacity:1.00 " points="854.55,456.65 854.55,452.42 860.62,452.41 " />
<polygon style= "fill: #35ACAC; opacity:1.00 " points="854.55,456.65 860.62,452.41 860.63,456.65 " />
<defs> <symbol id="Circle" overflow="visible"> <circle cx="0.0" cy="0.0" r="0.50" /> </symbol> </defs>
<defs> <symbol id="Square" overflow="visible"> <rect x="-0.50" y="-0.50" width="1.00" height="1.00" /> </symbol> </defs>
<defs> <symbol id="Triangle" overflow="visible"> <polygon points="-0.50,0.33 0.50,0.33 0.0,-0.67" /> </symbol> </defs>
<defs> <symbol id="Diamond" overflow="visible"> <polygon points="-0.50,0.0 0.0,0.50 0.50,0.0 0.0,-0.50" /> </symbol> </defs>
<defs> <symbol id="Cross" overflow="visible"> 
<line x1="-0.50" y1="0.0" x2="0.50" y2="0.0" />
<line x1="0.0" y1="0.50" x2="0.0" y2="-0.50" />
</symbol> </defs>
<defs> <symbol id="XMarker" overflow="visible"> 
<line x1="-0.50" y1="0.50" x2="0.50" y2="-0.50" />
<line x1="0.50" y1="0.50" x2="-0.50" y2="-0.50" />
</symbol> </defs>
<defs> <symbol id="PerpMarker" overflow="visible"> 
<line x1="-0.50" y1="0.0" x2="0.50" y2="0.0" /> 
<line x1="0.0" y1="0.0" x2="0.0" y2="0.50" />
</symbol> </defs>
<defs> <symbol id="SlashMarker" overflow="visible"> 
<line x1="-0.50" y1="0.50" x2="0.50" y2="-0.50" /> 
</symbol> </defs>
<use xlink:href="#XMarker" transform="translate(1330.28,507.20) scale(30.24)" style= "stroke: #656966; stroke-width:0.03" />
</svg>
</svg>
